<svg width="511" height="613" viewBox="0 0 511 613" fill="none" xmlns="http://www.w3.org/2000/svg">
<g id="Group 1">
<circle id="Ellipse 3" cx="255.5" cy="357.238" r="255.5" fill="#4F3415"/>
<path id="Ellipse 4" d="M495.971 356.081C495.971 481.228 395.296 582.679 271.107 582.679C146.919 582.679 46.2443 481.228 46.2443 356.081C46.2443 230.935 146.919 129.484 271.107 129.484C395.296 129.484 495.971 230.935 495.971 356.081Z" fill="#B67426"/>
<g id="collar">
<path id="Vector 16" d="M355.855 433.52C355.852 415.572 350.522 398.028 340.538 383.107C330.555 368.185 316.366 356.556 299.767 349.69C283.168 342.824 264.904 341.029 247.284 344.533C229.664 348.036 213.48 356.681 200.777 369.373C188.075 382.065 179.425 398.235 175.921 415.839C172.417 433.442 174.217 451.688 181.093 468.269C187.969 484.851 199.612 499.023 214.55 508.994C229.488 518.965 247.05 524.287 265.016 524.287C289.108 524.278 312.211 514.712 329.245 497.691C346.28 480.671 355.851 457.589 355.855 433.52V433.52Z" fill="#DB9D95"/>
<path id="Vector 17" d="M401.759 434.087C401.759 375.031 347.599 327.04 280.612 327.04H270.17C203.45 327.04 149.023 374.731 149.023 434.087C149.052 441.495 149.902 448.878 151.559 456.099V534.235C151.559 544.867 166.337 550.182 174.911 542.567L199.68 521.004C220.748 534.135 245.123 541.002 269.953 540.801H280.545C305.09 540.94 329.181 534.184 350.067 521.304L374.687 542.417C383.494 549.799 398.406 544.633 398.406 534.085V458.632C400.704 450.667 401.828 442.409 401.742 434.12L401.759 434.087Z" fill="#1A1005"/>
<path id="Vector 18" d="M404.511 425.155C404.511 365.35 349.284 316.842 280.962 316.842H270.304C202.283 316.842 146.755 365.166 146.755 425.155C146.775 432.754 147.642 440.327 149.34 447.734V526.82C149.34 537.585 164.352 542.967 173.226 535.352L198.479 513.522C220.023 526.809 244.887 533.741 270.204 533.519H281.012C306.028 533.664 330.586 526.824 351.919 513.772L377.056 535.202C386.03 542.667 401.258 537.435 401.258 526.67V450.117C403.576 441.991 404.699 433.571 404.594 425.122L404.511 425.155Z" fill="#4F3415"/>
<path id="Vector 19" d="M382.81 427.838C382.81 377.764 334.555 337.088 275.107 337.088C215.66 337.088 167.405 377.764 167.405 427.838C167.405 477.912 215.66 518.605 275.107 518.605C334.555 518.605 382.81 477.929 382.81 427.838Z" fill="#CB9187"/>
<path id="Vector 19_2" d="M382.81 416.657C382.81 366.583 334.555 325.907 275.107 325.907C215.66 325.907 167.405 366.583 167.405 416.657C167.405 466.731 215.66 507.407 275.107 507.407C334.555 507.407 382.81 466.748 382.81 416.657Z" fill="#DDA79C"/>
</g>
<g id="Back-Hair">
<path id="Vector" d="M363.562 161.42H176.846C143.221 161.42 115.963 188.651 115.963 222.242V263.568C115.963 297.159 143.221 324.39 176.846 324.39H363.562C397.186 324.39 424.444 297.159 424.444 263.568V222.242C424.444 188.651 397.186 161.42 363.562 161.42Z" fill="#73381B"/>
<path id="Vector_2" d="M368.399 91.6998H171.074C137.45 91.6998 110.192 118.931 110.192 152.522V187.466C110.192 221.057 137.45 248.288 171.074 248.288H368.399C402.023 248.288 429.281 221.057 429.281 187.466V152.522C429.281 118.931 402.023 91.6998 368.399 91.6998Z" fill="#73381B"/>
</g>
<g id="right-ear">
<path id="outer" d="M421.191 265.218C435.811 265.218 447.662 253.378 447.662 238.773C447.662 224.168 435.811 212.328 421.191 212.328C406.571 212.328 394.72 224.168 394.72 238.773C394.72 253.378 406.571 265.218 421.191 265.218Z" fill="#EFBDB4"/>
<path id="inner" d="M420.707 253.02C428.584 253.02 434.969 246.641 434.969 238.773C434.969 230.904 428.584 224.525 420.707 224.525C412.831 224.525 406.446 230.904 406.446 238.773C406.446 246.641 412.831 253.02 420.707 253.02Z" fill="#DDA79C"/>
</g>
<g id="left-ear">
<path id="outer_2" d="M121.818 262.302C136.438 262.302 148.289 250.462 148.289 235.857C148.289 221.251 136.438 209.412 121.818 209.412C107.198 209.412 95.3469 221.251 95.3469 235.857C95.3469 250.462 107.198 262.302 121.818 262.302Z" fill="#EFBDB4"/>
<path id="inner_2" d="M121.351 250.104C129.227 250.104 135.612 243.725 135.612 235.857C135.612 227.988 129.227 221.609 121.351 221.609C113.475 221.609 107.09 227.988 107.09 235.857C107.09 243.725 113.475 250.104 121.351 250.104Z" fill="#DDA79C"/>
</g>
<path id="Face" d="M140.275 374.47L185.543 424.327C191.274 430.793 198.289 435.982 206.137 439.56C213.985 443.138 222.492 445.026 231.11 445.102H307.637C316.255 445.029 324.763 443.143 332.611 439.565C340.46 435.986 347.475 430.795 353.204 424.327L398.488 374.47C410.748 360.684 417.471 342.814 417.354 324.329V178.769C417.468 160.284 410.745 142.415 398.488 128.628L376.378 104.293C317.269 39.2266 221.444 39.2266 162.335 104.293L140.275 128.611C128.007 142.393 121.277 160.264 121.393 178.752V324.295C121.266 342.796 127.997 360.682 140.275 374.47V374.47Z" fill="#EFBDB4"/>
<g id="nose">
<path id="Vector 30" d="M274.106 261.119C270.148 261.107 266.326 262.557 263.373 265.19C260.42 267.823 258.546 271.453 258.11 275.383C258.097 275.614 258.125 275.845 258.193 276.066C258.255 276.293 258.376 276.5 258.543 276.666C258.69 276.839 258.865 276.985 259.06 277.099C259.278 277.211 259.517 277.273 259.761 277.282H288.551C288.793 277.261 289.03 277.199 289.251 277.099C289.462 277.008 289.642 276.857 289.768 276.666C289.93 276.496 290.05 276.291 290.119 276.066C290.186 275.845 290.215 275.614 290.202 275.383C289.779 271.446 287.899 267.809 284.931 265.185C281.939 262.557 278.09 261.111 274.106 261.119Z" fill="#EBB8B0"/>
<path id="Vector 31" d="M258.027 275.783C258.008 275.992 258.036 276.203 258.111 276.399C258.194 276.566 258.277 276.832 258.461 276.916C258.613 277.056 258.788 277.168 258.978 277.249C259.161 277.355 259.367 277.418 259.578 277.432H288.301C288.515 277.43 288.723 277.366 288.902 277.249C289.092 277.168 289.267 277.056 289.419 276.916C289.565 276.766 289.684 276.591 289.769 276.399C289.836 276.201 289.864 275.992 289.853 275.783H258.027Z" fill="#DDA79C"/>
<path id="Vector 32" d="M283.197 270.45H264.949C264.491 270.45 264.052 270.632 263.729 270.955C263.405 271.279 263.223 271.718 263.223 272.175C263.223 272.632 263.405 273.071 263.729 273.395C264.052 273.718 264.491 273.9 264.949 273.9H283.197C283.655 273.9 284.094 273.718 284.418 273.395C284.742 273.071 284.924 272.632 284.924 272.175C284.924 271.718 284.742 271.279 284.418 270.955C284.094 270.632 283.655 270.45 283.197 270.45Z" fill="#F0C6BE"/>
</g>
<g id="Eyebrows">
<g id="left eyebrow">
<path id="Vector 22" d="M226.752 192.148H180.498C177.705 192.127 174.992 191.209 172.759 189.532C170.606 187.817 169.02 185.494 168.205 182.866C167.884 183.976 167.732 185.128 167.755 186.282C167.777 189.654 169.126 192.881 171.51 195.266C173.895 197.652 177.124 199.004 180.498 199.03H226.752C230.13 199.008 233.362 197.658 235.751 195.272C238.139 192.886 239.49 189.657 239.512 186.282C239.477 185.132 239.326 183.987 239.062 182.866C238.386 185.559 236.772 187.922 234.508 189.532C232.279 191.229 229.555 192.148 226.752 192.148V192.148Z" fill="#DDA79C"/>
<path id="Vector 23" d="M226.752 170.635H180.398C178.722 170.633 177.062 170.961 175.513 171.601C173.964 172.241 172.556 173.18 171.371 174.364C170.185 175.548 169.245 176.954 168.605 178.502C167.964 180.05 167.636 181.708 167.638 183.383V183.383C167.636 185.058 167.964 186.716 168.605 188.264C169.245 189.812 170.185 191.218 171.371 192.402C172.556 193.586 173.964 194.525 175.513 195.165C177.062 195.805 178.722 196.133 180.398 196.131H226.752C228.428 196.133 230.089 195.805 231.638 195.165C233.187 194.525 234.595 193.586 235.78 192.402C236.965 191.218 237.905 189.812 238.545 188.264C239.186 186.716 239.515 185.058 239.512 183.383V183.383C239.515 181.708 239.186 180.05 238.545 178.502C237.905 176.954 236.965 175.548 235.78 174.364C234.595 173.18 233.187 172.241 231.638 171.601C230.089 170.961 228.428 170.633 226.752 170.635V170.635Z" fill="#73381B"/>
<path id="Vector 24" d="M226.752 189.132H180.498C177.699 189.131 174.977 188.205 172.759 186.499C170.601 184.789 169.013 182.465 168.205 179.834C167.891 180.916 167.739 182.039 167.755 183.166C167.768 184.839 168.073 186.497 168.656 188.065C169.295 189.595 170.224 190.987 171.391 192.165C172.56 193.343 173.956 194.273 175.494 194.898C177.049 195.535 178.719 195.841 180.398 195.797H226.635C228.31 195.784 229.969 195.48 231.539 194.898C233.07 194.258 234.463 193.331 235.643 192.165C236.822 190.997 237.753 189.602 238.378 188.065C239.021 186.514 239.334 184.845 239.295 183.166C239.25 182.043 239.094 180.926 238.828 179.834C238.082 182.476 236.506 184.81 234.331 186.49C232.157 188.17 229.5 189.108 226.752 189.165V189.132Z" fill="#5F2411"/>
<path id="Vector 25" d="M217.194 174.851H189.956C189.142 174.851 188.361 175.174 187.786 175.749C187.21 176.324 186.887 177.104 186.887 177.917C186.885 178.321 186.962 178.722 187.116 179.096C187.269 179.47 187.495 179.81 187.78 180.096C188.065 180.383 188.404 180.61 188.778 180.765C189.151 180.92 189.552 181 189.956 181H217.194C217.599 181 217.999 180.92 218.373 180.765C218.746 180.61 219.085 180.383 219.371 180.096C219.656 179.81 219.882 179.47 220.035 179.096C220.188 178.722 220.266 178.321 220.264 177.917V177.917C220.264 177.104 219.94 176.324 219.365 175.749C218.789 175.174 218.008 174.851 217.194 174.851Z" fill="#895339"/>
</g>
<g id="left-eyebrow">
<path id="Vector 22_2" d="M368.015 191.731H321.762C318.967 191.716 316.252 190.798 314.022 189.115C311.865 187.401 310.272 185.079 309.452 182.45C309.137 183.561 308.986 184.711 309.001 185.866C309.023 189.24 310.375 192.47 312.763 194.856C315.151 197.242 318.384 198.592 321.762 198.614H368.015C371.39 198.583 374.618 197.23 377.004 194.846C379.391 192.462 380.745 189.237 380.775 185.866C380.762 184.723 380.634 183.584 380.392 182.466C379.724 185.162 378.108 187.528 375.838 189.132C373.591 190.84 370.839 191.755 368.015 191.731V191.731Z" fill="#DDA79C"/>
<path id="Vector 23_2" d="M368.015 170.219H321.645C319.968 170.217 318.308 170.545 316.759 171.185C315.21 171.824 313.802 172.763 312.617 173.948C311.432 175.132 310.492 176.538 309.851 178.085C309.211 179.633 308.882 181.292 308.885 182.966C308.882 184.641 309.211 186.3 309.851 187.847C310.492 189.395 311.432 190.801 312.617 191.985C313.802 193.169 315.21 194.108 316.759 194.748C318.308 195.388 319.968 195.716 321.645 195.714H368.015C369.691 195.716 371.352 195.388 372.901 194.748C374.45 194.108 375.858 193.169 377.043 191.985C378.228 190.801 379.168 189.395 379.809 187.847C380.449 186.3 380.778 184.641 380.775 182.966V182.966C380.778 181.292 380.449 179.633 379.809 178.085C379.168 176.538 378.228 175.132 377.043 173.948C375.858 172.763 374.45 171.824 372.901 171.185C371.352 170.545 369.691 170.217 368.015 170.219Z" fill="#73381B"/>
<path id="Vector 24_2" d="M368.015 188.649H321.762C318.963 188.659 316.24 187.739 314.022 186.033C311.861 184.322 310.268 181.998 309.452 179.367C309.139 180.478 308.988 181.629 309.001 182.783C309.02 184.457 309.331 186.115 309.919 187.682C310.552 189.215 311.482 190.608 312.654 191.781C313.82 192.956 315.21 193.885 316.741 194.514C318.295 195.15 319.965 195.457 321.645 195.414H367.898C369.573 195.399 371.232 195.095 372.802 194.514C374.326 193.871 375.713 192.944 376.889 191.781C378.073 190.605 379.008 189.201 379.635 187.655C380.263 186.109 380.571 184.451 380.542 182.783C380.498 181.633 380.347 180.489 380.092 179.367C379.352 182.014 377.778 184.352 375.602 186.033C373.426 187.714 370.765 188.649 368.015 188.699V188.649Z" fill="#5F2411"/>
<path id="Vector 25_2" d="M358.441 174.435H331.219C330.815 174.432 330.414 174.51 330.04 174.663C329.665 174.816 329.325 175.042 329.038 175.327C328.751 175.612 328.524 175.95 328.369 176.323C328.213 176.697 328.133 177.097 328.133 177.501V177.501C328.131 177.906 328.209 178.308 328.364 178.683C328.518 179.058 328.745 179.399 329.032 179.685C329.319 179.972 329.66 180.199 330.036 180.353C330.411 180.507 330.813 180.586 331.219 180.583H358.441C358.846 180.586 359.247 180.507 359.622 180.353C359.996 180.199 360.336 179.971 360.622 179.685C360.908 179.398 361.133 179.057 361.286 178.682C361.438 178.307 361.514 177.905 361.51 177.501C361.512 177.097 361.434 176.698 361.281 176.325C361.127 175.952 360.902 175.613 360.616 175.328C360.331 175.043 359.991 174.817 359.618 174.663C359.245 174.51 358.845 174.432 358.441 174.435V174.435Z" fill="#895339"/>
</g>
</g>
<g id="mouth">
<path id="Vector 37" d="M234.909 328.59C230.029 328.589 225.343 330.499 221.856 333.91C218.37 337.321 216.361 341.962 216.26 346.836C216.174 350.064 216.983 353.253 218.596 356.051C224.04 365.602 231.918 373.543 241.429 379.066C250.94 384.59 261.746 387.499 272.747 387.499C283.749 387.499 294.554 384.59 304.066 379.066C313.577 373.543 321.455 365.602 326.899 356.051C328.466 353.24 329.265 350.066 329.216 346.848C329.166 343.631 328.269 340.483 326.615 337.721C324.93 334.974 322.593 332.684 319.81 331.056C316.996 329.468 313.818 328.636 310.586 328.64L234.909 328.59Z" fill="#921A1E"/>
<path id="Vector_3" d="M326.899 352.519C322.81 359.647 317.353 365.898 310.84 370.914C304.326 375.931 296.886 379.613 288.945 381.749C281.004 383.886 272.719 384.435 264.566 383.365C256.412 382.295 248.55 379.627 241.431 375.514C231.892 370.034 224.005 362.091 218.596 352.519C217.371 350.241 216.612 347.743 216.36 345.17C216.36 345.637 216.26 346.086 216.26 346.553C216.18 349.78 216.987 352.968 218.596 355.768C224.043 365.314 231.922 373.251 241.433 378.771C250.944 384.291 261.748 387.199 272.747 387.199C283.747 387.199 294.55 384.291 304.061 378.771C313.572 373.251 321.451 365.314 326.899 355.768C328.46 352.943 329.259 349.762 329.217 346.536C329.231 346.074 329.203 345.611 329.134 345.153C328.916 347.738 328.155 350.248 326.899 352.519Z" fill="#75101F"/>
<path id="Vector_4" d="M303.656 346.109C303.729 340.863 290.064 336.42 273.133 336.184C256.203 335.948 242.419 340.008 242.346 345.253C242.273 350.499 255.938 354.942 272.868 355.178C289.798 355.415 303.582 351.354 303.656 346.109Z" fill="#3F1215"/>
<path id="Teeth" d="M217.745 339.488V340.038C217.877 341.674 218.653 343.192 219.904 344.257C221.155 345.323 222.778 345.849 224.417 345.72H322.012C323.34 345.847 324.668 345.486 325.748 344.703C326.821 343.936 327.682 342.91 328.25 341.721C328.299 341.653 328.325 341.571 328.325 341.487C328.325 341.404 328.299 341.322 328.25 341.254C326.933 337.426 324.577 334.04 321.445 331.472C318.441 329.041 314.685 327.728 310.819 327.756H234.442C230.931 327.791 227.515 328.895 224.65 330.923C221.628 333.114 219.244 336.07 217.745 339.488V339.488Z" fill="white"/>
<path id="Vector_5" d="M286.45 349.919H260.996C254.29 349.921 247.802 352.298 242.684 356.627C237.566 360.956 234.149 366.957 233.04 373.565C235.546 375.585 238.194 377.423 240.963 379.064C250.534 384.609 261.4 387.529 272.464 387.529C283.527 387.529 294.394 384.609 303.964 379.064C307.524 376.998 310.875 374.592 313.972 371.882C312.579 365.634 309.091 360.05 304.085 356.055C299.079 352.06 292.857 349.895 286.45 349.919V349.919Z" fill="#C5515A"/>
<path id="Vector_6" d="M304.064 375.431C294.431 380.797 283.585 383.613 272.555 383.613C261.526 383.613 250.68 380.797 241.047 375.431C238.495 373.97 236.039 372.351 233.691 370.582C233.427 371.47 233.21 372.371 233.04 373.281C235.549 375.243 238.197 377.019 240.963 378.597C250.594 383.963 261.437 386.78 272.464 386.78C283.49 386.78 294.334 383.963 303.964 378.597C307.497 376.566 310.846 374.23 313.972 371.615C313.77 370.73 313.52 369.856 313.221 368.999C310.43 371.492 307.357 373.651 304.064 375.431Z" fill="#AA4952"/>
</g>
<g id="Shadow">
<path id="shadow-right" d="M345.364 288.38C315.34 288.38 291.02 262.468 291.02 230.608V201.063H399.707V230.608C399.707 262.452 375.388 288.38 345.364 288.38Z" fill="#DDA79C"/>
<path id="shadow-left" d="M208.387 288.38C178.363 288.38 154.044 262.668 154.044 231.074V201.746H262.731V231.074C262.731 262.668 238.345 288.38 208.387 288.38Z" fill="#DDA79C"/>
</g>
<g id="eyes">
<path id="left eye" d="M217.428 229.808C217.428 226.966 216.298 224.241 214.287 222.231C212.275 220.222 209.547 219.093 206.703 219.093C203.858 219.093 201.13 220.222 199.119 222.231C197.107 224.241 195.978 226.966 195.978 229.808V244.805C195.978 247.647 197.107 250.372 199.119 252.381C201.13 254.391 203.858 255.52 206.703 255.52C209.547 255.52 212.275 254.391 214.287 252.381C216.298 250.372 217.428 247.647 217.428 244.805V229.808Z" fill="#231F20"/>
<path id="right eye" d="M355.539 230.791C355.539 227.949 354.409 225.224 352.397 223.215C350.386 221.205 347.658 220.076 344.813 220.076C341.969 220.076 339.241 221.205 337.229 223.215C335.218 225.224 334.088 227.949 334.088 230.791V245.788C334.088 248.63 335.218 251.355 337.229 253.365C339.241 255.374 341.969 256.503 344.813 256.503C347.658 256.503 350.386 255.374 352.397 253.365C354.409 251.355 355.539 248.63 355.539 245.788V230.791Z" fill="#231F20"/>
</g>
<g id="Glasses">
<g id="bridge">
<path id="shadow" d="M287.2 216.394H258.911V226.808H287.2V216.394Z" fill="#DDA79C"/>
<path id="dark" d="M286.016 214.844H257.727V225.259H286.016V214.844Z" fill="black"/>
<path id="front" d="M286.016 213.078H257.727V223.492H286.016V213.078Z" fill="#0F1D2C"/>
</g>
<g id="glasses-shade">
<g id="left glass shade" opacity="0.6">
<path id="Vector 48" opacity="0.3" d="M195.677 211.427L161.016 244.538V245.788C161.16 250.241 162.228 254.616 164.152 258.635C166.206 262.668 169.041 266.253 172.492 269.183L233.007 211.377L195.677 211.427Z" fill="white"/>
</g>
<g id="left-glass-shade" opacity="0.6">
<path id="Vector 48_2" opacity="0.3" d="M332.854 211.095L296.491 241.422V242.589C296.658 246.718 297.801 250.75 299.827 254.353C302.063 258.148 305.055 261.443 308.618 264.035L372.052 211.095H332.854Z" fill="white"/>
</g>
</g>
<g id="Glasses-Handle-Shadow">
<path id="Vector_7" d="M155.028 203.429H129.141C125.898 203.429 123.269 206.055 123.269 209.295V209.995C123.269 213.234 125.898 215.86 129.141 215.86H155.028C158.271 215.86 160.899 213.234 160.899 209.995V209.295C160.899 206.055 158.271 203.429 155.028 203.429Z" fill="#DDA79C"/>
<path id="Vector_8" d="M418.255 201.78H397.872C394.63 201.78 392.001 204.406 392.001 207.645V210.395C392.001 213.634 394.63 216.26 397.872 216.26H418.255C421.498 216.26 424.127 213.634 424.127 210.395V207.645C424.127 204.406 421.498 201.78 418.255 201.78Z" fill="#DDA79C"/>
</g>
<g id="dark-glasses-border">
<path id="dark-left-glass-border" d="M203.383 286.714C173.359 286.714 149.04 261.485 149.04 230.508V201.746H257.727V230.508C257.727 261.485 233.341 286.714 203.383 286.714ZM158.347 211.394V230.508C158.347 256.17 178.547 277.049 203.383 277.049C228.22 277.049 248.419 256.17 248.419 230.508V211.394H158.347Z" fill="black"/>
<path id="dark-right-glass-border" d="M340.36 285.881C325.952 285.863 312.14 280.138 301.953 269.96C291.765 259.783 286.034 245.984 286.016 231.591V203.813H394.703V231.591C394.686 245.984 388.954 259.783 378.767 269.96C368.579 280.138 354.767 285.863 340.36 285.881V285.881ZM295.324 213.128V231.591C295.324 243.523 300.068 254.967 308.514 263.405C316.96 271.842 328.415 276.583 340.36 276.583C352.304 276.583 363.759 271.842 372.205 263.405C380.651 254.967 385.396 243.523 385.396 231.591V213.128H295.324Z" fill="black"/>
</g>
<g id="glasses-frame-border">
<path id="right-glass-border" d="M343.696 283.031C312.004 284.998 285.949 259.386 285.949 227.641V201.13H394.503V228.841C394.487 242.625 389.231 255.889 379.799 265.949C370.367 276.009 357.463 282.115 343.696 283.031V283.031ZM295.324 210.445V227.825C295.324 252.32 314.522 273.1 339.042 273.8C345.063 273.971 351.058 272.934 356.671 270.75C362.284 268.566 367.402 265.279 371.721 261.084C376.04 256.889 379.472 251.871 381.816 246.327C384.159 240.783 385.365 234.826 385.362 228.808V210.478H295.424L295.324 210.445Z" fill="#0F1D2C"/>
<path id="left-glass-border" d="M206.786 283.715C175.094 285.681 149.04 260.069 149.04 228.325V201.813H257.593V229.525C257.577 243.308 252.322 256.572 242.89 266.632C233.458 276.692 220.553 282.798 206.786 283.715ZM158.414 211.128V228.508C158.414 253.004 177.613 273.783 202.132 274.483C208.154 274.655 214.148 273.618 219.762 271.434C225.375 269.249 230.492 265.963 234.811 261.768C239.13 257.572 242.563 252.554 244.906 247.01C247.249 241.466 248.455 235.509 248.453 229.491V211.161H158.548L158.364 211.128H158.414Z" fill="#0F1D2C"/>
</g>
<g id="Dark-glasses-handle">
<path id="dark-left-glasses-handle" d="M151.559 198.979H119.199C115.957 198.979 113.328 201.605 113.328 204.845V205.545C113.328 208.784 115.957 211.41 119.199 211.41H151.559C154.801 211.41 157.43 208.784 157.43 205.545V204.845C157.43 201.605 154.801 198.979 151.559 198.979Z" fill="#0A1523"/>
<path id="dark-right-glasses-handle" d="M423.409 198.63H395.587C392.345 198.63 389.716 201.256 389.716 204.496V206.445C389.716 209.685 392.345 212.311 395.587 212.311H423.409C426.652 212.311 429.281 209.685 429.281 206.445V204.496C429.281 201.256 426.652 198.63 423.409 198.63Z" fill="black"/>
</g>
<g id="Glasses-Handle">
<path id="right-glasses-handle" d="M423.409 196.697H393.786C390.543 196.697 387.914 199.323 387.914 202.563V204.512C387.914 207.752 390.543 210.378 393.786 210.378H423.409C426.652 210.378 429.281 207.752 429.281 204.512V202.563C429.281 199.323 426.652 196.697 423.409 196.697Z" fill="#0F1D2C"/>
<path id="left-glasses-handle" d="M152.543 196.98H118.132C114.889 196.98 112.26 199.606 112.26 202.845V203.545C112.26 206.785 114.889 209.411 118.132 209.411H152.543C155.785 209.411 158.414 206.785 158.414 203.545V202.845C158.414 199.606 155.785 196.98 152.543 196.98Z" fill="#0F1D2C"/>
</g>
</g>
<g id="Top-Hair">
<g id="Shadow_2">
<path id="shadow-2" d="M276.142 0H409.582C413.523 0 417.304 1.56426 420.091 4.34867C422.878 7.13307 424.444 10.9095 424.444 14.8473V104.831C424.444 120.962 418.029 136.432 406.612 147.839C395.194 159.245 379.708 165.653 363.562 165.653H276.142C259.995 165.653 244.509 159.245 233.091 147.839C221.674 136.432 215.26 120.962 215.26 104.831V60.8222C215.26 44.6911 221.674 29.2208 233.091 17.8144C244.509 6.40803 259.995 0 276.142 0V0Z" fill="#DDA79C"/>
<path id="shadow-1" d="M177.946 20.7295H193.909C204.681 20.7295 215.012 25.0045 222.629 32.6139C230.246 40.2234 234.525 50.544 234.525 61.3054V136.642C234.525 143.748 231.699 150.563 226.669 155.589C221.639 160.614 214.817 163.437 207.703 163.437H177.946C161.507 163.437 145.742 156.913 134.118 145.3C122.494 133.687 115.963 117.937 115.963 101.515V82.6515C115.963 66.2287 122.494 50.4787 134.118 38.866C145.742 27.2534 161.507 20.7295 177.946 20.7295V20.7295Z" fill="#DDA79C"/>
</g>
<g id="Dark-hair">
<path id="dark-fronthair-1" d="M165.737 20.7295H189.789C195.127 20.723 200.414 21.7676 205.348 23.8038C210.281 25.84 214.764 28.8278 218.541 32.5962C222.318 36.3647 225.314 40.84 227.359 45.7661C229.403 50.6923 230.455 55.9727 230.455 61.3054V129.826C230.457 133.351 229.763 136.841 228.413 140.097C227.063 143.353 225.084 146.311 222.587 148.802C220.091 151.292 217.128 153.266 213.867 154.611C210.606 155.956 207.111 156.644 203.584 156.638H165.737C157.59 156.647 149.521 155.051 141.992 151.942C134.463 148.833 127.622 144.272 121.859 138.519C116.096 132.766 111.525 125.935 108.407 118.416C105.289 110.897 103.685 102.838 103.687 94.6993V82.6515C103.687 74.5142 105.292 66.4566 108.411 58.9396C111.531 51.4225 116.102 44.5933 121.865 38.8425C127.628 33.0916 134.468 28.5319 141.996 25.4239C149.524 22.316 157.591 20.7208 165.737 20.7295V20.7295Z" fill="#5F2411"/>
<path id="darkhair-2" d="M272.555 7.1987H420.107C424.048 7.1987 427.829 8.76296 430.616 11.5474C433.403 14.3318 434.969 18.1082 434.969 22.046V95.7991C434.971 103.788 433.398 111.699 430.339 119.08C427.281 126.461 422.796 133.168 417.143 138.818C411.489 144.467 404.777 148.949 397.389 152.006C390.001 155.064 382.083 156.638 374.087 156.638H272.555C256.408 156.638 240.923 150.23 229.505 138.823C218.088 127.417 211.673 111.947 211.673 95.8157V68.0208C211.673 51.8898 218.088 36.4195 229.505 25.0131C240.923 13.6067 256.408 7.1987 272.555 7.1987V7.1987Z" fill="#5F2411"/>
</g>
<g id="Front-Hair">
<path id="front-hair1" d="M165.737 10.5647H189.789C195.127 10.5582 200.414 11.6028 205.348 13.639C210.281 15.6752 214.764 18.663 218.541 22.4314C222.318 26.1999 225.314 30.6752 227.359 35.6013C229.403 40.5275 230.455 45.8079 230.455 51.1406V122.594C230.455 129.701 227.629 136.516 222.599 141.541C217.569 146.566 210.747 149.389 203.634 149.389H165.737C157.591 149.398 149.524 147.803 141.996 144.695C134.468 141.587 127.628 137.027 121.865 131.276C116.102 125.525 111.531 118.696 108.411 111.179C105.292 103.662 103.687 95.6046 103.687 87.4673V72.47C103.689 64.3341 105.296 56.2784 108.416 48.7632C111.536 41.2481 116.108 34.4209 121.871 28.6718C127.633 22.9227 134.473 18.3644 142 15.2575C149.527 12.1506 157.593 10.556 165.737 10.5647V10.5647Z" fill="#73381B"/>
<path id="front-hair-2" d="M265.867 0H420.107C424.048 0 427.829 1.56426 430.616 4.34867C433.403 7.13307 434.969 10.9095 434.969 14.8473V86.9007C434.969 94.888 433.394 102.797 430.334 110.176C427.275 117.556 422.79 124.261 417.137 129.908C411.483 135.556 404.772 140.036 397.385 143.093C389.999 146.15 382.082 147.723 374.087 147.723H265.867C249.72 147.723 234.234 141.315 222.817 129.908C211.399 118.502 204.985 103.032 204.985 86.9007V60.8222C204.985 44.6911 211.399 29.2208 222.817 17.8144C234.234 6.40803 249.72 0 265.867 0V0Z" fill="#73381B"/>
</g>
<g id="Glow">
<path id="glow-2" d="M398.606 17.7467H274.257C269.918 17.7467 266.4 21.2607 266.4 25.5953C266.4 29.9299 269.918 33.4439 274.257 33.4439H398.606C402.945 33.4439 406.463 29.9299 406.463 25.5953C406.463 21.2607 402.945 17.7467 398.606 17.7467Z" fill="#895339"/>
<path id="glow-1" d="M130.025 78.7689C127.89 78.8101 125.812 78.0826 124.17 76.7192C123.448 76.1199 122.862 75.3753 122.448 74.5339C122.034 73.6926 121.802 72.7736 121.768 71.8368C121.834 66.6197 123.053 61.4816 125.336 56.7892C127.62 52.0969 130.912 47.9661 134.979 44.6918C143.959 37.3076 155.257 33.3194 166.887 33.4272C169.022 33.3859 171.1 34.1135 172.742 35.4768C173.464 36.0761 174.051 36.8208 174.464 37.6621C174.878 38.5034 175.11 39.4224 175.144 40.3592C175.134 41.3007 174.914 42.2279 174.498 43.0729C174.082 43.9178 173.482 44.6589 172.742 45.2417C171.107 46.6152 169.023 47.3389 166.887 47.2746C159.45 47.1922 152.223 49.7424 146.488 54.4733C143.92 56.5606 141.843 59.1855 140.402 62.1627C138.961 65.1399 138.191 68.3968 138.148 71.7035C138.172 72.6506 137.966 73.5894 137.548 74.4397C137.129 75.29 136.511 76.0264 135.746 76.5859C134.201 78.0376 132.145 78.822 130.025 78.7689V78.7689Z" fill="#895339"/>
</g>
</g>
</g>
</svg>
