<svg width="445" height="543" viewBox="0 0 445 543" fill="none" xmlns="http://www.w3.org/2000/svg">
<circle cx="222.5" cy="320.458" r="222.5" fill="#351826"/>
<path d="M432 318.958C432 427.759 344.472 515.958 236.5 515.958C128.528 515.958 41 427.759 41 318.958C41 210.158 128.528 121.958 236.5 121.958C344.472 121.958 432 210.158 432 318.958Z" fill="#9A436D"/>
<path d="M200.608 45H272.392C302.257 45 330.9 53.2029 352.018 67.8042C373.136 82.4056 385 102.209 385 122.859V305.242C385 314.991 379.399 324.341 369.429 331.234C359.459 338.127 345.936 342 331.837 342H141.163C127.064 342 113.541 338.127 103.571 331.234C93.6011 324.341 88 314.991 88 305.242V122.859C88 102.209 99.8641 82.4056 120.982 67.8042C142.1 53.2029 170.743 45 200.608 45V45Z" fill="#072132"/>
<path d="M353.155 252.186C367.576 252.186 379.267 240.502 379.267 226.088C379.267 211.674 367.576 199.989 353.155 199.989C338.733 199.989 327.043 211.674 327.043 226.088C327.043 240.502 338.733 252.186 353.155 252.186Z" fill="#EFBDB4"/>
<path d="M352.691 240.151C360.462 240.151 366.762 233.855 366.762 226.088C366.762 218.321 360.462 212.024 352.691 212.024C344.92 212.024 338.62 218.321 338.62 226.088C338.62 233.855 344.92 240.151 352.691 240.151Z" fill="#DDA79C"/>
<path d="M126.715 252.186C141.137 252.186 152.828 240.502 152.828 226.088C152.828 211.674 141.137 199.989 126.715 199.989C112.294 199.989 100.603 211.674 100.603 226.088C100.603 240.502 112.294 252.186 126.715 252.186Z" fill="#EFBDB4"/>
<path d="M126.252 240.151C134.023 240.151 140.323 233.855 140.323 226.088C140.323 218.321 134.023 212.024 126.252 212.024C118.481 212.024 112.181 218.321 112.181 226.088C112.181 233.855 118.481 240.151 126.252 240.151Z" fill="#DDA79C"/>
<path d="M122.831 259.588C126.914 259.588 130.224 256.28 130.224 252.199C130.224 248.118 126.914 244.81 122.831 244.81C118.748 244.81 115.439 248.118 115.439 252.199C115.439 256.28 118.748 259.588 122.831 259.588Z" fill="#EAE4E4"/>
<path d="M356.663 258.348C360.746 258.348 364.056 255.04 364.056 250.959C364.056 246.878 360.746 243.57 356.663 243.57C352.58 243.57 349.27 246.878 349.27 250.959C349.27 255.04 352.58 258.348 356.663 258.348Z" fill="#EAE4E4"/>
<path d="M239.91 298.836C196.381 299.95 161.974 336.531 163.102 380.576C164.23 424.62 200.479 459.398 244.007 458.283C287.536 457.168 321.943 420.588 320.815 376.531C319.687 332.474 283.451 297.721 239.91 298.836Z" fill="#D3A09B"/>
<path d="M352.95 194.984C352.95 140.839 302.365 96.9585 239.95 96.9585C177.535 96.9585 127 140.839 127 194.984V254.356C127 308.488 177.385 385.958 239.8 385.958C302.215 385.958 353 308.501 353 254.356L352.95 194.984Z" fill="#EFBDB4"/>
<path d="M239.71 263.533C236.686 263.529 233.766 264.634 231.503 266.638C229.255 268.665 227.817 271.436 227.456 274.44C227.444 274.623 227.469 274.806 227.531 274.979C227.575 275.154 227.666 275.314 227.794 275.442C227.907 275.569 228.038 275.678 228.182 275.768C228.351 275.85 228.534 275.897 228.721 275.906H250.811C250.997 275.889 251.179 275.843 251.35 275.768C251.506 275.695 251.639 275.583 251.738 275.442C251.866 275.314 251.957 275.154 252.002 274.979C252.064 274.794 252.086 274.597 252.064 274.403C251.736 271.389 250.292 268.606 248.017 266.601C245.714 264.601 242.76 263.51 239.71 263.533Z" fill="#EBB8B0"/>
<path d="M227.393 274.716C227.379 274.873 227.4 275.031 227.455 275.179C227.53 275.304 227.593 275.505 227.731 275.567C227.843 275.679 227.974 275.768 228.119 275.83C228.262 275.909 228.42 275.956 228.583 275.968H250.56C250.725 275.968 250.886 275.92 251.024 275.83C251.175 275.773 251.312 275.683 251.425 275.567C251.536 275.456 251.626 275.324 251.688 275.179C251.738 275.03 251.759 274.873 251.751 274.716H227.393Z" fill="#DDA79C"/>
<path d="M246.664 270.646H232.693C232.341 270.646 232.003 270.786 231.754 271.035C231.505 271.284 231.365 271.621 231.365 271.973C231.365 272.325 231.505 272.663 231.754 272.912C232.003 273.161 232.341 273.301 232.693 273.301H246.664C247.016 273.301 247.354 273.161 247.603 272.912C247.852 272.663 247.992 272.325 247.992 271.973C247.992 271.621 247.852 271.284 247.603 271.035C247.354 270.786 247.016 270.646 246.664 270.646Z" fill="#F0C6BE"/>
<path d="M200.992 207.478H172.462C170.689 207.448 168.989 206.766 167.688 205.562C166.309 204.212 165.336 202.503 164.881 200.628C164.68 201.447 164.583 202.289 164.593 203.132C164.566 205.536 165.387 207.873 166.911 209.732C167.575 210.574 168.417 211.258 169.377 211.737C170.336 212.215 171.39 212.476 172.462 212.5H200.992C202.064 212.476 203.118 212.215 204.077 211.737C205.037 211.258 205.879 210.574 206.543 209.732C208.067 207.873 208.888 205.536 208.861 203.132C208.839 202.291 208.743 201.453 208.573 200.628C208.216 202.54 207.228 204.278 205.766 205.562C204.473 206.779 202.768 207.463 200.992 207.478V207.478Z" fill="#DDA79C"/>
<path d="M200.992 191.749H172.399C168.039 191.749 164.518 195.919 164.518 201.104C164.518 206.288 168.039 210.471 172.399 210.471H200.992C205.353 210.471 208.861 206.288 208.861 201.104C208.861 195.856 205.353 191.749 200.992 191.749Z" fill="#072132"/>
<path d="M195.091 194.779H178.301C177.75 194.827 177.24 195.091 176.883 195.514C176.526 195.936 176.351 196.483 176.396 197.034C176.351 197.585 176.526 198.131 176.883 198.554C177.24 198.976 177.75 199.24 178.301 199.288H195.091C195.64 199.237 196.146 198.972 196.5 198.55C196.855 198.127 197.028 197.583 196.983 197.034V197.034C197.028 196.485 196.855 195.94 196.5 195.518C196.146 195.096 195.64 194.83 195.091 194.779Z" fill="#143748"/>
<path d="M307.534 206.426H279.103C277.331 206.41 275.631 205.726 274.342 204.51C272.95 203.14 271.977 201.403 271.535 199.501C271.321 200.319 271.203 201.16 271.184 202.005C271.157 204.413 271.977 206.754 273.502 208.618C274.162 209.457 275 210.139 275.956 210.616C276.911 211.092 277.961 211.351 279.028 211.373H307.534C308.603 211.351 309.654 211.092 310.612 210.616C311.569 210.14 312.409 209.457 313.072 208.618C314.588 206.75 315.403 204.411 315.377 202.005C315.353 201.164 315.261 200.327 315.102 199.501C314.696 201.395 313.716 203.118 312.295 204.435C311.672 205.064 310.93 205.564 310.113 205.906C309.296 206.248 308.419 206.424 307.534 206.426Z" fill="#DDA79C"/>
<path d="M307.533 190.634H279.028C274.693 190.634 271.184 194.804 271.184 199.989C271.184 205.174 274.693 209.357 279.028 209.357H307.533C311.881 209.357 315.377 205.174 315.377 199.989C315.377 194.804 311.881 190.634 307.533 190.634Z" fill="#072132"/>
<path d="M307.534 204.084H279.103C277.331 204.068 275.631 203.384 274.342 202.168C272.921 200.821 271.943 199.074 271.535 197.159C271.345 197.98 271.253 198.821 271.26 199.664C271.231 202.069 272.047 204.409 273.565 206.276C274.227 207.115 275.068 207.798 276.025 208.274C276.983 208.751 278.034 209.009 279.103 209.031H307.534C308.603 209.009 309.654 208.751 310.612 208.274C311.569 207.798 312.409 207.115 313.072 206.276C314.59 204.409 315.405 202.069 315.377 199.664C315.353 198.823 315.261 197.985 315.102 197.159C314.72 199.083 313.737 200.837 312.295 202.168C311.008 203.386 309.306 204.071 307.534 204.084Z" fill="#0B161E"/>
<path d="M301.657 193.715H284.917C284.367 193.769 283.861 194.037 283.507 194.461C283.153 194.885 282.98 195.431 283.025 195.982C282.98 196.531 283.153 197.075 283.508 197.498C283.862 197.92 284.368 198.185 284.917 198.236H301.657C302.206 198.185 302.713 197.92 303.067 197.498C303.421 197.075 303.594 196.531 303.549 195.982V195.982C303.594 195.431 303.422 194.885 303.068 194.461C302.714 194.037 302.207 193.769 301.657 193.715V193.715Z" fill="#143748"/>
<path d="M194.339 226.814C194.339 224.346 193.358 221.98 191.612 220.235C189.866 218.49 187.498 217.509 185.029 217.509C182.56 217.509 180.192 218.49 178.446 220.235C176.7 221.98 175.72 224.346 175.72 226.814V239.826C175.72 242.294 176.7 244.66 178.446 246.405C180.192 248.15 182.56 249.131 185.029 249.131C187.498 249.131 189.866 248.15 191.612 246.405C193.358 244.66 194.339 242.294 194.339 239.826V226.814Z" fill="#231F20"/>
<path d="M300.93 226.814C300.93 224.346 299.949 221.98 298.204 220.235C296.458 218.49 294.09 217.509 291.621 217.509C289.152 217.509 286.784 218.49 285.038 220.235C283.292 221.98 282.311 224.346 282.311 226.814V239.826C282.311 242.294 283.292 244.66 285.038 246.405C286.784 248.15 289.152 249.131 291.621 249.131C294.09 249.131 296.458 248.15 298.204 246.405C299.949 244.66 300.93 242.294 300.93 239.826V226.814Z" fill="#231F20"/>
<path d="M305.98 222.09L299.633 226.589C297.857 227.847 295.654 228.349 293.508 227.984C291.363 227.619 289.45 226.417 288.191 224.642L286.632 222.446L292.98 217.947C294.755 216.689 296.958 216.187 299.104 216.552C301.25 216.917 303.163 218.119 304.422 219.894L305.98 222.09Z" fill="#231F20"/>
<path d="M185.16 217.991L191.507 222.489L189.949 224.685C189.326 225.564 188.535 226.312 187.623 226.885C186.71 227.458 185.694 227.846 184.632 228.027C183.569 228.208 182.481 228.178 181.431 227.938C180.38 227.699 179.386 227.255 178.507 226.632L172.16 222.134L173.718 219.937C174.977 218.163 176.89 216.961 179.036 216.595C181.182 216.23 183.385 216.732 185.16 217.991Z" fill="#231F20"/>
<path d="M249.307 298.31C247.432 298.308 245.575 298.676 243.842 299.392C242.109 300.108 240.534 301.159 239.208 302.483C237.881 303.808 236.829 305.381 236.111 307.112C235.393 308.844 235.023 310.7 235.023 312.574H263.579C263.579 310.701 263.21 308.846 262.493 307.115C261.775 305.385 260.724 303.812 259.399 302.488C258.074 301.163 256.5 300.112 254.769 299.396C253.037 298.679 251.181 298.31 249.307 298.31V298.31Z" fill="#BC3451"/>
<path d="M239.935 336.256C246.214 336.252 252.234 333.757 256.672 329.319C261.111 324.88 263.604 318.862 263.604 312.586H216.266C216.266 318.862 218.759 324.88 223.198 329.319C227.636 333.757 233.656 336.252 239.935 336.256V336.256Z" fill="#BC3451"/>
<path d="M230.563 298.36C226.776 298.363 223.147 299.869 220.47 302.546C217.794 305.223 216.291 308.852 216.291 312.637H244.847C244.847 308.85 243.342 305.219 240.663 302.541C237.984 299.864 234.351 298.36 230.563 298.36V298.36Z" fill="#BC3451"/>
<path d="M251.443 307.958H228.557C227.125 307.958 226 309.522 226 311.458C226 313.407 227.151 314.958 228.557 314.958H251.443C252.874 314.958 254 313.395 254 311.458C254.025 309.522 252.874 307.958 251.443 307.958Z" fill="#A12A4A"/>
<path d="M228.796 186.962L154.023 186.962C145.792 186.952 137.901 183.54 132.084 177.474C126.267 171.408 123 163.185 123 154.611V120.906C123 94.94 132.903 70.0371 150.531 51.6761C168.158 33.3151 192.066 23 216.995 23H274.783C276.697 23 278.533 23.792 279.886 25.2019C281.24 26.6118 282 28.5239 282 30.5178V131.632C282 146.316 276.4 160.399 266.431 170.783C256.462 181.167 242.942 187 228.844 187L228.796 186.962Z" fill="#DDA79C"/>
<path d="M233.069 177.585H122.618C114.053 177.575 105.841 174.171 99.7837 168.119C93.7261 162.066 90.3169 153.86 90.3036 145.3V115.857C90.3036 89.904 100.619 65.0135 118.98 46.6617C137.342 28.3099 162.245 18 188.212 18H280.97C282.964 18 284.876 18.7916 286.286 20.2008C287.696 21.6099 288.488 23.5212 288.488 25.514V122.232C288.49 129.504 287.057 136.706 284.272 143.425C281.487 150.144 277.405 156.248 272.258 161.389C267.111 166.53 261 170.607 254.276 173.386C247.552 176.164 240.345 177.591 233.069 177.585V177.585Z" fill="#072132"/>
<path d="M226.403 131.837H137.19C133.343 131.837 130.224 134.955 130.224 138.8V140.353C130.224 144.199 133.343 147.316 137.19 147.316H226.403C230.25 147.316 233.369 144.199 233.369 140.353V138.8C233.369 134.955 230.25 131.837 226.403 131.837Z" fill="#143748"/>
<path d="M181.345 63.4472H137.466C133.466 63.4472 130.224 66.688 130.224 70.6857V72.3012C130.224 76.2989 133.466 79.5397 137.466 79.5397H181.345C185.345 79.5397 188.588 76.2989 188.588 72.3012V70.6857C188.588 66.688 185.345 63.4472 181.345 63.4472Z" fill="#143748"/>
<path d="M161.323 463.468L136.363 352.974L164.794 347.401L189.753 457.895L161.323 463.468Z" fill="#351826"/>
<path d="M262.915 504.131L162.288 462.503L174.128 436.067L274.755 477.694L262.915 504.131Z" fill="#351826"/>
<path d="M232.58 431.145L179.704 420.538L171.76 460.061L273.064 480.387L232.58 431.145Z" fill="#351826"/>
<path d="M322.306 463.468L347.366 352.486L318.936 346.913L293.876 457.895L322.306 463.468Z" fill="#351826"/>
<path d="M220.714 504.131L321.341 462.503L309.501 436.067L208.874 477.694L220.714 504.131Z" fill="#351826"/>
<path d="M251.049 431.145L303.925 420.538L311.856 460.061L210.565 480.387L251.049 431.145Z" fill="#351826"/>
<path d="M202.578 8H270.409C286.116 8 301.67 11.7411 316.181 19.0098C330.692 26.2784 343.877 36.9321 354.982 50.3625C366.087 63.7929 374.896 79.7368 380.904 97.2836C386.913 114.831 390.003 133.637 390 152.628V389.735C390 407.84 384.052 425.204 373.463 438.006C362.875 450.808 348.514 458 333.54 458H139.46C132.045 458 124.704 456.234 117.854 452.804C111.004 449.373 104.779 444.345 99.5367 438.006C94.2939 431.667 90.1351 424.141 87.2977 415.859C84.4604 407.577 83 398.7 83 389.735V152.628C82.9965 133.638 86.0868 114.833 92.0944 97.2874C98.102 79.7415 106.909 63.7983 118.013 50.3682C129.117 36.938 142.3 26.284 156.81 19.0144C171.32 11.7448 186.872 8.00211 202.578 8V8Z" fill="#072132"/>
<path d="M359 238C374.464 238 387 225.688 387 210.5C387 195.312 374.464 183 359 183C343.536 183 331 195.312 331 210.5C331 225.688 343.536 238 359 238Z" fill="#EFBDB4"/>
<path d="M357 225C365.284 225 372 218.284 372 210C372 201.716 365.284 195 357 195C348.716 195 342 201.716 342 210C342 218.284 348.716 225 357 225Z" fill="#DDA79C"/>
<path d="M118 238C133.464 238 146 225.688 146 210.5C146 195.312 133.464 183 118 183C102.536 183 90 195.312 90 210.5C90 225.688 102.536 238 118 238Z" fill="#EFBDB4"/>
<path d="M117 225C125.284 225 132 218.284 132 210C132 201.716 125.284 195 117 195C108.716 195 102 201.716 102 210C102 218.284 108.716 225 117 225Z" fill="#DDA79C"/>
<path d="M114 246C118.418 246 122 242.418 122 238C122 233.582 118.418 230 114 230C109.582 230 106 233.582 106 238C106 242.418 109.582 246 114 246Z" fill="#EAE4E4"/>
<path d="M362 245C366.418 245 370 241.418 370 237C370 232.582 366.418 229 362 229C357.582 229 354 232.582 354 237C354 241.418 357.582 245 362 245Z" fill="#EAE4E4"/>
<path d="M237.958 287.44C191.688 288.625 155.114 327.53 156.313 374.373C157.512 421.216 196.044 458.202 242.314 457.017C288.584 455.832 325.158 416.927 323.959 370.071C322.76 323.215 284.242 286.255 237.958 287.44Z" fill="#D3A09B"/>
<path d="M357.947 177.131C357.947 119.613 304.228 73 237.947 73C171.665 73 118 119.613 118 177.131V240.2C118 297.705 171.506 380 237.788 380C304.069 380 358 297.718 358 240.2L357.947 177.131Z" fill="#EFBDB4"/>
<path d="M237.745 249.894C234.531 249.89 231.427 251.065 229.021 253.197C226.632 255.352 225.104 258.3 224.719 261.495C224.707 261.689 224.734 261.884 224.799 262.067C224.846 262.254 224.943 262.424 225.079 262.56C225.2 262.694 225.339 262.811 225.492 262.906C225.671 262.994 225.866 263.044 226.065 263.053H249.546C249.744 263.036 249.937 262.986 250.119 262.906C250.284 262.829 250.426 262.709 250.532 262.56C250.668 262.424 250.764 262.254 250.811 262.067C250.878 261.87 250.901 261.661 250.878 261.455C250.528 258.249 248.994 255.29 246.576 253.157C244.128 251.03 240.988 249.87 237.745 249.894V249.894Z" fill="#EBB8B0"/>
<path d="M224.653 261.788C224.638 261.955 224.661 262.123 224.719 262.28C224.799 262.414 224.866 262.627 225.012 262.693C225.131 262.812 225.271 262.907 225.425 262.973C225.577 263.056 225.745 263.106 225.918 263.119H249.28C249.454 263.119 249.626 263.068 249.772 262.973C249.933 262.912 250.078 262.816 250.199 262.693C250.317 262.574 250.412 262.434 250.478 262.28C250.531 262.122 250.554 261.955 250.545 261.788H224.653Z" fill="#DDA79C"/>
<path d="M245.137 257.459H230.287C229.912 257.459 229.553 257.608 229.288 257.872C229.024 258.137 228.875 258.496 228.875 258.871C228.875 259.245 229.024 259.604 229.288 259.869C229.553 260.134 229.912 260.283 230.287 260.283H245.137C245.512 260.283 245.871 260.134 246.136 259.869C246.4 259.604 246.549 259.245 246.549 258.871C246.549 258.496 246.4 258.137 246.136 257.872C245.871 257.608 245.512 257.459 245.137 257.459V257.459Z" fill="#F0C6BE"/>
<path d="M211.465 158H158.155C149.097 158 140.409 154.351 134.004 147.855C127.598 141.359 124 132.549 124 123.363V104.824C124 77.0226 134.89 50.3603 154.275 30.7021C173.66 11.0439 199.951 -1.15848e-06 227.365 -1.15848e-06H262.063C264.168 -1.15848e-06 266.187 0.848 267.675 2.35746C269.164 3.86692 270 5.9142 270 8.0489V98.7198C270 106.511 268.485 114.226 265.543 121.424C262.6 128.621 258.287 135.16 252.851 140.666C247.414 146.171 240.961 150.536 233.859 153.511C226.758 156.485 219.148 158.011 211.465 158V158Z" fill="#DDA79C"/>
<path d="M210.827 148L126.543 148C117.382 148 108.596 144.363 102.117 137.89C95.6393 131.417 92 122.638 92 113.483V104.46C92 76.7552 103.014 50.1855 122.619 30.5955C142.224 11.0055 168.814 1.43408e-06 196.539 1.43408e-06H261.973C264.102 1.43408e-06 266.144 0.845078 267.649 2.3493C269.154 3.85352 270 5.89367 270 8.02096V88.9257C270 104.593 263.771 119.619 252.684 130.698C241.597 141.776 226.56 148 210.881 148H210.827Z" fill="#072132"/>
<g opacity="0.5">
<path opacity="0.5" d="M177.957 293.22C190.381 293.22 200.452 283.149 200.452 270.725C200.452 258.301 190.381 248.229 177.957 248.229C165.532 248.229 155.461 258.301 155.461 270.725C155.461 283.149 165.532 293.22 177.957 293.22Z" fill="#EA9D9B"/>
<path opacity="0.5" d="M295.39 293.22C307.814 293.22 317.886 283.149 317.886 270.725C317.886 258.301 307.814 248.229 295.39 248.229C282.966 248.229 272.894 258.301 272.894 270.725C272.894 283.149 282.966 293.22 295.39 293.22Z" fill="#EA9D9B"/>
</g>
<path d="M196.59 190.278H166.262C164.378 190.246 162.571 189.521 161.188 188.24C159.722 186.805 158.688 184.987 158.204 182.993C157.991 183.864 157.888 184.759 157.898 185.656C157.869 188.213 158.742 190.698 160.362 192.675C161.068 193.57 161.963 194.298 162.983 194.807C164.003 195.316 165.123 195.593 166.262 195.619H196.59C197.729 195.593 198.849 195.316 199.869 194.807C200.889 194.298 201.784 193.57 202.49 192.675C204.11 190.698 204.983 188.213 204.954 185.656C204.931 184.761 204.829 183.87 204.648 182.993C204.269 185.026 203.218 186.874 201.664 188.24C200.29 189.534 198.477 190.262 196.59 190.278V190.278Z" fill="#DDA79C"/>
<path d="M196.59 173.549H166.196C161.561 173.549 157.818 177.985 157.818 183.499C157.818 189.013 161.561 193.461 166.196 193.461H196.59C201.225 193.461 204.954 189.013 204.954 183.499C204.954 177.918 201.225 173.549 196.59 173.549Z" fill="#072132"/>
<path d="M190.317 176.773H172.469C171.883 176.824 171.341 177.104 170.962 177.554C170.583 178.003 170.397 178.584 170.445 179.17V179.17C170.397 179.756 170.583 180.337 170.962 180.787C171.341 181.236 171.883 181.517 172.469 181.567H190.317C190.9 181.513 191.438 181.231 191.815 180.782C192.192 180.333 192.376 179.754 192.328 179.17V179.17C192.376 178.586 192.192 178.007 191.815 177.558C191.438 177.109 190.9 176.827 190.317 176.773V176.773Z" fill="#143748"/>
<path d="M309.841 189.159H279.62C277.737 189.142 275.929 188.414 274.559 187.121C273.079 185.664 272.045 183.817 271.576 181.794C271.348 182.664 271.223 183.558 271.203 184.458C271.173 187.018 272.045 189.508 273.667 191.49C274.368 192.383 275.259 193.108 276.274 193.615C277.29 194.122 278.405 194.397 279.54 194.42H309.841C310.978 194.397 312.095 194.122 313.113 193.615C314.131 193.109 315.024 192.383 315.728 191.49C317.339 189.503 318.206 187.016 318.179 184.458C318.153 183.563 318.055 182.672 317.886 181.794C317.454 183.808 316.413 185.641 314.902 187.042C314.24 187.711 313.452 188.243 312.583 188.606C311.714 188.969 310.782 189.158 309.841 189.159V189.159Z" fill="#DDA79C"/>
<path d="M309.841 172.364H279.54C274.932 172.364 271.203 176.799 271.203 182.313C271.203 187.827 274.932 192.276 279.54 192.276H309.841C314.463 192.276 318.179 187.827 318.179 182.313C318.179 176.799 314.463 172.364 309.841 172.364Z" fill="#072132"/>
<path d="M309.841 186.669H279.62C277.737 186.652 275.929 185.924 274.559 184.631C273.049 183.198 272.008 181.34 271.576 179.303C271.374 180.177 271.275 181.071 271.283 181.967C271.253 184.526 272.12 187.014 273.733 188.999C274.437 189.892 275.33 190.618 276.348 191.125C277.366 191.631 278.483 191.906 279.62 191.93H309.841C310.978 191.906 312.095 191.631 313.113 191.125C314.131 190.618 315.024 189.892 315.728 188.999C317.341 187.014 318.209 184.526 318.179 181.967C318.153 181.073 318.055 180.182 317.886 179.303C317.48 181.35 316.436 183.216 314.902 184.631C313.534 185.926 311.725 186.654 309.841 186.669Z" fill="#0B161E"/>
<path d="M303.594 175.641H285.8C285.216 175.698 284.677 175.983 284.301 176.434C283.925 176.885 283.741 177.466 283.789 178.051C283.741 178.635 283.925 179.215 284.302 179.663C284.678 180.112 285.217 180.394 285.8 180.449H303.594C304.178 180.394 304.716 180.112 305.093 179.663C305.469 179.215 305.654 178.635 305.605 178.051C305.654 177.466 305.47 176.885 305.094 176.434C304.717 175.983 304.179 175.698 303.594 175.641V175.641Z" fill="#143748"/>
<path d="M189.517 210.843C189.517 208.218 188.475 205.701 186.619 203.845C184.763 201.989 182.246 200.947 179.621 200.947C176.997 200.947 174.48 201.989 172.624 203.845C170.768 205.701 169.725 208.218 169.725 210.843V224.681C169.725 227.306 170.768 229.823 172.624 231.678C174.48 233.534 176.997 234.577 179.621 234.577C182.246 234.577 184.763 233.534 186.619 231.678C188.475 229.823 189.517 227.306 189.517 224.681V210.843Z" fill="#231F20"/>
<path d="M302.822 210.843C302.822 208.218 301.779 205.701 299.923 203.845C298.067 201.989 295.55 200.947 292.926 200.947C290.301 200.947 287.784 201.989 285.928 203.845C284.072 205.701 283.03 208.218 283.03 210.843V224.681C283.03 227.306 284.072 229.823 285.928 231.678C287.784 233.534 290.301 234.577 292.926 234.577C295.55 234.577 298.067 233.534 299.923 231.678C301.779 229.823 302.822 227.306 302.822 224.681V210.843Z" fill="#231F20"/>
<path d="M308.188 205.823L301.441 210.608C299.553 211.946 297.211 212.48 294.93 212.091C292.65 211.703 290.616 210.425 289.278 208.537L287.622 206.201L294.369 201.417C295.303 200.755 296.359 200.282 297.476 200.028C298.593 199.773 299.749 199.741 300.879 199.933C302.008 200.126 303.089 200.538 304.058 201.148C305.028 201.758 305.869 202.553 306.531 203.487L308.188 205.823Z" fill="#231F20"/>
<path d="M179.761 201.46L186.508 206.244L184.851 208.58C184.189 209.515 183.349 210.31 182.379 210.919C181.409 211.529 180.328 211.942 179.199 212.134C178.07 212.326 176.913 212.294 175.796 212.04C174.679 211.785 173.623 211.313 172.689 210.65L165.942 205.866L167.598 203.53C168.937 201.643 170.97 200.364 173.251 199.976C175.532 199.588 177.873 200.122 179.761 201.46Z" fill="#231F20"/>
<path d="M248.007 286C246.036 285.998 244.085 286.436 242.265 287.29C240.444 288.143 238.79 289.395 237.396 290.974C236.002 292.553 234.897 294.427 234.143 296.491C233.388 298.554 233 300.766 233 303H263C263 298.491 261.42 294.167 258.609 290.979C255.797 287.791 251.983 286 248.007 286V286Z" fill="#BC3451"/>
<path d="M237.5 327C244.264 326.997 250.75 324.467 255.532 319.966C260.314 315.466 263 309.363 263 303H212C212 309.363 214.686 315.466 219.468 319.966C224.25 324.467 230.736 326.997 237.5 327V327Z" fill="#BC3451"/>
<path d="M227.993 287C223.75 287.004 219.682 288.691 216.683 291.691C213.685 294.691 212 298.759 212 303H244C244 300.899 243.586 298.818 242.782 296.877C241.977 294.936 240.798 293.172 239.312 291.686C237.825 290.201 236.061 289.022 234.119 288.218C232.177 287.414 230.095 287 227.993 287V287Z" fill="#BC3451"/>
<path d="M250.26 297H225.74C224.205 297 223 298.787 223 301C223 303.227 224.233 305 225.74 305H250.26C251.794 305 253 303.213 253 301C253.027 298.787 251.794 297 250.26 297Z" fill="#A12A4A"/>
<path d="M213.635 99H137.365C133.297 99 130 102.233 130 106.221V107.779C130 111.767 133.297 115 137.365 115H213.635C217.703 115 221 111.767 221 107.779V106.221C221 102.233 217.703 99 213.635 99Z" fill="#143748"/>
<path d="M173.416 27H137.584C133.395 27 130 30.4316 130 34.6646V36.3354C130 40.5684 133.395 44 137.584 44H173.416C177.605 44 181 40.5684 181 36.3354V34.6646C181 30.4316 177.605 27 173.416 27Z" fill="#143748"/>
<path d="M154.18 463L128 345.906L157.833 340L184 457.094L154.18 463Z" fill="#351826"/>
<path d="M262.485 505L156 461.569L168.528 434L275 477.431L262.485 505Z" fill="#351826"/>
<path d="M230.435 427.354L173.535 416L165 458.256L274 480L230.435 427.354Z" fill="#351826"/>
<path d="M324.764 463L351 343.977L321.236 338L295 457.023L324.764 463Z" fill="#351826"/>
<path d="M217.528 505L324 461.569L311.472 434L205 477.431L217.528 505Z" fill="#351826"/>
<path d="M249.56 427.354L306.453 416L315 458.256L206 480L249.56 427.354Z" fill="#351826"/>
</svg>
