<svg width="972" height="662" viewBox="0 0 972 662" fill="none" xmlns="http://www.w3.org/2000/svg">
<g id="helpdesk" clip-path="url(#clip0)">
<g id="plant">
<path id="Vector" d="M145.834 534.809C138.85 561.407 114.375 578.029 114.375 578.029C114.375 578.029 101.225 551.527 108.209 524.929C115.194 498.331 139.668 481.71 139.668 481.71C139.668 481.71 152.819 508.211 145.834 534.809Z" fill="#743D3D"/>
<path id="Vector_2" d="M135.24 529.183C115.678 548.51 113.489 578.014 113.489 578.014C113.489 578.014 143.017 576.183 162.58 556.855C182.143 537.528 184.331 508.024 184.331 508.024C184.331 508.024 154.803 509.856 135.24 529.183Z" fill="#CB5555"/>
<path id="Vector_3" d="M159.772 570.241H83.251C74.8576 570.241 68.0535 577.045 68.0535 585.439V600.54C68.0535 608.933 74.8576 615.737 83.251 615.737H159.772C168.165 615.737 174.969 608.933 174.969 600.54V585.439C174.969 577.045 168.165 570.241 159.772 570.241Z" fill="#CB5555"/>
</g>
<g id="body">
<path id="Vector_4" d="M489.331 521.722C538.227 521.722 618.145 507.148 656.127 482.109C652.013 459.625 642.548 423.242 633.577 390.681C622.153 349.213 550.05 320.465 507.037 320.465H465.588C422.442 320.465 350.235 349.38 338.955 391.025C330.358 422.761 321.182 457.614 316.616 478.077C355.751 505.575 437.868 521.722 489.331 521.722Z" fill="#CB3B3B"/>
<rect id="Rectangle 1" x="475" y="369" width="24" height="74" fill="#9E2828"/>
<path id="Vector_5" d="M485.306 310C465.576 310 433.327 314.272 418 321.613C419.66 328.204 423.48 338.87 427.099 348.416C431.709 360.572 460.805 369 478.161 369L494.887 369C512.297 369 541.434 360.523 545.986 348.315C549.455 339.011 553.158 328.794 555 322.795C539.208 314.733 506.072 310 485.306 310Z" fill="#9E2828"/>
<path id="Vector_6" d="M486.806 280.733C551.002 280.733 603.042 228.692 603.042 164.497C603.042 100.302 551.002 48.261 486.806 48.261C422.611 48.261 370.571 100.302 370.571 164.497C370.571 228.692 422.611 280.733 486.806 280.733Z" fill="#72351C"/>
<path id="Vector_7" opacity="0.1" d="M449.291 261.311H523.77V320.894C523.77 330.771 519.847 340.243 512.863 347.226C505.879 354.21 496.407 358.133 486.531 358.133H486.531C476.654 358.133 467.182 354.21 460.199 347.226C453.215 340.243 449.291 330.771 449.291 320.894V261.311H449.291Z" fill="black"/>
<path id="Vector_8" d="M459.974 258.553H513.087C515.92 258.553 518.638 259.678 520.641 261.682C522.645 263.685 523.77 266.402 523.77 269.236V318.136C523.77 328.012 519.847 337.484 512.863 344.468C505.879 351.451 496.407 355.375 486.531 355.375H486.531C476.654 355.375 467.182 351.451 460.199 344.468C453.215 337.484 449.291 328.012 449.291 318.136V269.236C449.291 266.402 450.417 263.685 452.42 261.682C454.424 259.678 457.141 258.553 459.974 258.553Z" fill="#FDA57D"/>
<path id="Vector_9" opacity="0.1" d="M449.429 289.434C473.433 298.402 499.855 298.475 523.908 289.64V280.49H449.429V289.434Z" fill="black"/>
<path id="Vector_10" d="M486.806 294.421C545.764 294.421 593.559 246.626 593.559 187.668C593.559 128.71 545.764 80.9153 486.806 80.9153C427.849 80.9153 380.054 128.71 380.054 187.668C380.054 246.626 427.849 294.421 486.806 294.421Z" fill="#FDA57D"/>
<path id="Vector_11" opacity="0.1" d="M410.766 90.5649C410.766 90.5649 455.756 181.888 582.668 128.84L553.122 82.507L500.746 63.7053L410.766 90.5649Z" fill="black"/>
<path id="Vector_12" d="M410.766 89.2219C410.766 89.2219 455.756 180.545 582.668 127.497L553.122 81.164L500.746 62.3623L410.766 89.2219Z" fill="#72351C"/>
<path id="Vector_13" d="M428.627 52.2669C434.918 44.6637 442.942 38.6814 452.025 34.8225C479.215 23.3074 512.815 31.9689 537.974 16.5126C539.484 24.1827 532.7 32.3533 524.883 32.2794C540.619 38.4273 559.403 44.3128 573.438 34.9087C573.599 40.8962 572.057 46.8064 568.991 51.9522C565.926 57.0979 561.462 61.2678 556.121 63.9772C569.799 70.1562 580.899 85.5287 576.258 99.8031C573.167 109.313 563.859 115.776 554.123 118.059C544.388 120.342 534.199 119.113 524.33 117.501C495.522 112.795 389.953 99.1135 428.627 52.2669Z" fill="#72351C"/>
<path id="Vector_14" d="M592.458 202H589.627L534.565 251.019C481.517 226.174 442.571 251.019 442.571 251.019L384.823 204.014L379 204.746C379.789 232.764 391.567 259.347 411.788 278.756C432.01 298.165 459.054 308.842 487.081 308.481C515.108 308.12 541.868 296.751 561.584 276.829C581.3 256.906 592.389 230.029 592.458 202ZM485.546 269.82C464.779 269.82 447.943 265.611 447.943 260.42C447.943 255.228 464.779 251.019 485.546 251.019C506.314 251.019 523.15 255.228 523.15 260.42C523.15 265.612 506.314 269.82 485.546 269.82Z" fill="#72351C"/>
<path id="Vector_15" d="M380.011 206.186C385.496 206.186 389.942 197.85 389.942 187.566C389.942 177.283 385.496 168.947 380.011 168.947C374.527 168.947 370.081 177.283 370.081 187.566C370.081 197.85 374.527 206.186 380.011 206.186Z" fill="#FDA57D"/>
<path id="Vector_16" d="M593.545 206.186C599.03 206.186 603.476 197.85 603.476 187.566C603.476 177.283 599.03 168.947 593.545 168.947C588.061 168.947 583.615 177.283 583.615 187.566C583.615 197.85 588.061 206.186 593.545 206.186Z" fill="#FDA57D"/>
</g>
<g id="desk">
<path id="Vector_17" d="M971.44 615.598H0V648.529H971.44V615.598Z" fill="#CFCCCC"/>
<path id="Vector_18" d="M930.278 648.529H41.1627V662H930.278V648.529Z" fill="#D5D0D0"/>
<path id="Vector_19" opacity="0.1" d="M930.278 648.529H41.1627V653.019H930.278V648.529Z" fill="#0A0A0A"/>
</g>
<g id="cup">
<path id="Vector_20" d="M892.857 546.744C889.008 546.744 885.246 547.886 882.046 550.024C878.846 552.162 876.352 555.201 874.879 558.757C873.407 562.312 873.021 566.225 873.772 569.999C874.523 573.774 876.376 577.241 879.098 579.963C881.819 582.684 885.286 584.537 889.061 585.288C892.835 586.039 896.748 585.653 900.304 584.181C903.859 582.708 906.898 580.214 909.036 577.014C911.175 573.814 912.316 570.052 912.316 566.203C912.316 561.042 910.266 556.093 906.616 552.444C902.967 548.795 898.018 546.744 892.857 546.744ZM892.857 578.178C890.489 578.178 888.174 577.475 886.204 576.16C884.235 574.844 882.7 572.974 881.794 570.786C880.888 568.598 880.65 566.19 881.112 563.867C881.575 561.544 882.715 559.41 884.39 557.736C886.064 556.061 888.198 554.921 890.521 554.459C892.844 553.997 895.251 554.234 897.44 555.14C899.628 556.046 901.498 557.581 902.814 559.55C904.129 561.52 904.832 563.835 904.832 566.203C904.832 569.379 903.57 572.425 901.324 574.67C899.079 576.916 896.033 578.178 892.857 578.178Z" fill="#EE4F4F"/>
<path id="Vector_21" opacity="0.1" d="M892.459 547C888.61 547 884.848 548.141 881.648 550.279C878.448 552.418 875.954 555.457 874.481 559.012C873.008 562.568 872.623 566.48 873.374 570.255C874.125 574.03 875.978 577.497 878.699 580.218C881.421 582.939 884.888 584.793 888.663 585.544C892.437 586.294 896.35 585.909 899.905 584.436C903.461 582.963 906.5 580.469 908.638 577.269C910.776 574.069 911.918 570.307 911.918 566.459C911.918 561.298 909.867 556.349 906.218 552.699C902.569 549.05 897.62 547 892.459 547ZM892.459 578.433C890.09 578.433 887.775 577.731 885.806 576.415C883.837 575.099 882.302 573.229 881.396 571.041C880.489 568.853 880.252 566.445 880.714 564.123C881.176 561.8 882.317 559.666 883.991 557.991C885.666 556.317 887.8 555.176 890.123 554.714C892.445 554.252 894.853 554.489 897.041 555.396C899.229 556.302 901.1 557.837 902.415 559.806C903.731 561.775 904.433 564.09 904.433 566.459C904.433 569.635 903.172 572.68 900.926 574.926C898.68 577.172 895.635 578.433 892.459 578.433Z" fill="black"/>
<path id="Vector_22" d="M818.016 531.776H892.857V605.848C892.857 608.434 891.83 610.914 890.001 612.743C888.173 614.571 885.693 615.598 883.107 615.598H827.766C825.18 615.598 822.7 614.571 820.871 612.743C819.043 610.914 818.016 608.434 818.016 605.848V531.776Z" fill="#EE4F4F"/>
<path id="Vector_23" opacity="0.1" d="M879.386 531.776V601.004C879.386 604.875 877.848 608.587 875.111 611.324C872.374 614.061 868.662 615.598 864.792 615.598H872.276C876.146 615.598 879.858 614.061 882.595 611.324C885.332 608.587 886.87 604.875 886.87 601.004V531.776H879.386Z" fill="black"/>
</g>
<path id="cup smoke" d="M832.615 455.66C831.343 455.959 829.907 456.433 829.283 457.989C828.294 460.46 830.087 463.246 831.724 464.944C834.747 468.081 837.933 471.162 839.989 475.54C842.044 479.918 842.689 486.028 840.443 490.223C837.509 495.702 830.511 496.881 829.834 503.624C829.399 507.953 832.116 511.646 834.87 513.819C841.665 519.18 850.426 520.61 855.348 529C857.384 523.233 861.939 519.899 866.479 518.476C871.018 517.052 875.735 517.158 880.338 516.193C881.824 515.881 883.498 515.256 884.162 513.399C885.449 509.802 881.782 505.489 883.048 501.878C884.011 499.13 886.841 499.343 888.907 498.243C892.272 496.451 893.66 490.486 892.705 485.695C891.75 480.903 889.052 477.158 886.215 474.088C878.57 465.814 869.378 460.948 860.08 457.448C855.755 455.82 850.679 453.268 846.188 453.021C841.852 452.783 836.907 454.648 832.615 455.66Z" fill="#EEEEEE"/>
<g id="eyebrows">
<ellipse id="left-eyebrow" cx="449.89" cy="170.5" rx="5.5" ry="13.89" transform="rotate(90 449.89 170.5)" fill="#72351C"/>
<ellipse id="right-eyebrow" cx="522.89" cy="170.5" rx="5.5" ry="13.89" transform="rotate(90 522.89 170.5)" fill="#72351C"/>
</g>
<g id="eyes">
<ellipse id="left-eye" cx="450.5" cy="191" rx="5.5" ry="9" fill="black"/>
<ellipse id="right-eye" cx="521.5" cy="191" rx="5.5" ry="9" fill="black"/>
</g>
<g id="pc">
<path id="Vector_24" d="M657.963 382.093H313.477C298.657 382.093 286.642 394.108 286.642 408.928V588.763C286.642 603.584 298.657 615.598 313.477 615.598H657.963C672.784 615.598 684.798 603.584 684.798 588.763V408.928C684.798 394.108 672.784 382.093 657.963 382.093Z" fill="#393942"/>
<path id="Vector_25" d="M486.72 511.317C494.16 511.317 500.192 505.286 500.192 497.846C500.192 490.406 494.16 484.374 486.72 484.374C479.28 484.374 473.249 490.406 473.249 497.846C473.249 505.286 479.28 511.317 486.72 511.317Z" fill="white"/>
<path id="Vector_26" d="M486.459 478C482.61 478 478.848 479.141 475.648 481.279C472.448 483.418 469.954 486.457 468.481 490.012C467.008 493.568 466.623 497.48 467.374 501.255C468.125 505.03 469.978 508.497 472.699 511.218C475.421 513.939 478.888 515.793 482.663 516.544C486.437 517.294 490.35 516.909 493.905 515.436C497.461 513.963 500.5 511.469 502.638 508.269C504.776 505.069 505.918 501.307 505.918 497.459C505.918 492.298 503.867 487.349 500.218 483.699C496.569 480.05 491.62 478 486.459 478ZM486.459 509.433C484.09 509.433 481.775 508.731 479.806 507.415C477.837 506.099 476.302 504.229 475.396 502.041C474.489 499.853 474.252 497.445 474.714 495.123C475.176 492.8 476.317 490.666 477.991 488.991C479.666 487.317 481.8 486.176 484.123 485.714C486.445 485.252 488.853 485.489 491.041 486.396C493.229 487.302 495.1 488.837 496.415 490.806C497.731 492.775 498.433 495.09 498.433 497.459C498.433 500.635 497.172 503.68 494.926 505.926C492.68 508.172 489.635 509.433 486.459 509.433Z" fill="#B85757"/>
</g>
<path id="mouth" d="M511 255.5C511 258.55 508.366 261.475 503.678 263.632C498.989 265.788 492.63 267 486 267C479.37 267 473.011 265.788 468.322 263.632C463.634 261.475 461 258.55 461 255.5L486 255.5H511Z" fill="#E89068"/>
</g>
<defs>
<clipPath id="clip0">
<rect width="971.44" height="662" fill="white"/>
</clipPath>
</defs>
</svg>
