<svg width="1403" height="1005" viewBox="0 0 1403 1005" fill="none" xmlns="http://www.w3.org/2000/svg">
<rect width="1403" height="1005" fill="#E5E5E5"/>
<g id="window-bg">
<path id="bg" d="M1403 0H0V1004.97H1403V0Z" fill="#D0CDE1"/>
<path id="window-glass" d="M1126.36 55.1345H211.537V819.142H1126.36V55.1345Z" fill="#EAE6FC"/>
<path id="window-bars" d="M1156.83 413.251H724.788C717.791 413.251 711.08 410.471 706.132 405.522C701.184 400.573 698.405 393.861 698.405 386.862V54.0819C698.405 47.0831 695.625 40.371 690.677 35.4221C685.729 30.4732 679.019 27.693 672.022 27.6929H665.879C658.881 27.693 652.171 30.4732 647.223 35.4221C642.275 40.371 639.496 47.0831 639.496 54.0819V386.862C639.496 393.861 636.716 400.573 631.768 405.522C626.82 410.471 620.11 413.251 613.112 413.251H181.071C177.607 413.251 174.176 413.933 170.975 415.26C167.774 416.586 164.866 418.53 162.416 420.98C159.966 423.43 158.022 426.34 156.697 429.541C155.371 432.743 154.688 436.174 154.688 439.64V445.784C154.688 452.783 157.468 459.495 162.416 464.444C167.363 469.393 174.074 472.173 181.071 472.173H613.112C620.109 472.173 626.82 474.953 631.768 479.902C636.716 484.851 639.495 491.563 639.495 498.562V814.445C639.495 821.444 642.275 828.156 647.223 833.105C652.171 838.054 658.881 840.834 665.878 840.834H672.021C679.019 840.834 685.729 838.054 690.677 833.105C695.625 828.156 698.405 821.444 698.405 814.445V498.562C698.405 491.563 701.184 484.851 706.132 479.902C711.08 474.953 717.79 472.173 724.788 472.173H1156.83C1163.83 472.173 1170.54 469.393 1175.48 464.444C1180.43 459.495 1183.21 452.783 1183.21 445.784V439.64C1183.21 432.641 1180.43 425.929 1175.48 420.98C1170.54 416.031 1163.83 413.251 1156.83 413.251V413.251Z" fill="#D0CDE1"/>
<path id="tree" d="M591.798 798.05L536.929 682.381C536.341 681.143 536.077 679.776 536.159 678.408C536.242 677.04 536.67 675.715 537.402 674.556C538.134 673.398 539.148 672.444 540.348 671.783C541.548 671.121 542.896 670.775 544.267 670.775C545.637 670.775 546.985 670.428 548.185 669.767C549.386 669.105 550.399 668.151 551.131 666.993C551.864 665.834 552.291 664.509 552.374 663.141C552.457 661.773 552.192 660.406 551.605 659.168L505.778 562.561C505.191 561.323 504.926 559.956 505.009 558.588C505.092 557.22 505.519 555.895 506.251 554.737C506.984 553.579 507.997 552.624 509.198 551.963C510.398 551.302 511.746 550.955 513.116 550.955H528.662C530.032 550.955 531.38 550.608 532.58 549.947C533.78 549.286 534.794 548.332 535.526 547.173C536.259 546.015 536.686 544.69 536.769 543.322C536.852 541.954 536.587 540.587 536 539.349L487.101 436.266C486.513 435.027 486.249 433.661 486.331 432.292C486.414 430.924 486.842 429.599 487.574 428.441C488.306 427.283 489.32 426.328 490.52 425.667C491.72 425.006 493.068 424.659 494.439 424.659H499.575C500.945 424.659 502.293 424.312 503.494 423.651C504.694 422.99 505.707 422.036 506.44 420.877C507.172 419.719 507.6 418.394 507.682 417.026C507.765 415.658 507.5 414.291 506.913 413.053L441.447 275.045C440.788 273.656 439.749 272.483 438.45 271.661C437.151 270.84 435.646 270.404 434.109 270.404C432.572 270.404 431.067 270.84 429.768 271.661C428.469 272.483 427.43 273.656 426.771 275.045L361.305 413.053C360.718 414.291 360.453 415.658 360.536 417.026C360.618 418.394 361.046 419.719 361.778 420.877C362.511 422.036 363.524 422.99 364.724 423.651C365.925 424.312 367.273 424.659 368.643 424.659H373.779C375.15 424.659 376.498 425.006 377.698 425.667C378.898 426.328 379.912 427.283 380.644 428.441C381.376 429.599 381.804 430.924 381.887 432.292C381.969 433.66 381.705 435.027 381.117 436.266L332.218 539.349C331.631 540.587 331.366 541.954 331.449 543.322C331.532 544.69 331.959 546.015 332.692 547.173C333.424 548.331 334.438 549.286 335.638 549.947C336.838 550.608 338.186 550.955 339.556 550.955H355.102C356.472 550.955 357.82 551.302 359.02 551.963C360.221 552.624 361.234 553.578 361.967 554.737C362.699 555.895 363.126 557.22 363.209 558.588C363.292 559.956 363.027 561.323 362.44 562.561L316.613 659.168C316.026 660.406 315.761 661.773 315.844 663.141C315.927 664.509 316.354 665.834 317.086 666.993C317.819 668.151 318.832 669.105 320.033 669.766C321.233 670.428 322.581 670.775 323.951 670.775V670.775C325.322 670.775 326.67 671.121 327.87 671.782C329.07 672.444 330.084 673.398 330.816 674.556C331.548 675.715 331.976 677.04 332.059 678.408C332.141 679.776 331.877 681.143 331.289 682.381L276.42 798.05C275.833 799.288 275.568 800.655 275.651 802.023C275.734 803.391 276.161 804.716 276.893 805.874C277.626 807.033 278.639 807.987 279.84 808.648C281.04 809.309 282.388 809.656 283.758 809.656H392.425C393.492 809.656 394.548 809.866 395.534 810.275C396.519 810.683 397.414 811.281 398.169 812.036C398.923 812.79 399.521 813.686 399.929 814.671C400.337 815.657 400.548 816.713 400.548 817.78V854.18C400.548 856.335 401.403 858.401 402.927 859.925C404.45 861.448 406.516 862.304 408.67 862.304H447.615C449.769 862.304 451.835 861.448 453.358 859.925C454.882 858.401 455.737 856.335 455.737 854.18V817.78C455.737 816.713 455.947 815.657 456.356 814.671C456.764 813.686 457.362 812.79 458.116 812.036C458.871 811.281 459.766 810.683 460.751 810.275C461.737 809.866 462.793 809.656 463.86 809.656H584.46C585.83 809.656 587.178 809.309 588.378 808.648C589.579 807.987 590.592 807.033 591.325 805.874C592.057 804.716 592.484 803.391 592.567 802.023C592.65 800.655 592.385 799.288 591.798 798.05V798.05Z" fill="#D0CDE1"/>
<g id="snow">
<path id="Vector" d="M354.676 375.397C355.182 375.38 355.661 375.167 356.012 374.803C356.363 374.439 356.559 373.953 356.559 373.448C356.559 372.942 356.363 372.456 356.012 372.092C355.661 371.729 355.182 371.516 354.676 371.498C354.171 371.516 353.692 371.729 353.341 372.092C352.99 372.456 352.794 372.942 352.794 373.448C352.794 373.953 352.99 374.439 353.341 374.803C353.692 375.167 354.171 375.38 354.676 375.397V375.397Z" fill="#D0CDE1"/>
<path id="Vector_2" d="M828.164 124.214C836.078 124.214 842.493 117.797 842.493 109.882C842.493 101.966 836.078 95.5493 828.164 95.5493C820.25 95.5493 813.835 101.966 813.835 109.882C813.835 117.797 820.25 124.214 828.164 124.214Z" fill="#D0CDE1"/>
<path id="Vector_3" d="M842.493 222.948C847.769 222.948 852.046 218.67 852.046 213.393C852.046 208.116 847.769 203.839 842.493 203.839C837.218 203.839 832.941 208.116 832.941 213.393C832.941 218.67 837.218 222.948 842.493 222.948Z" fill="#D0CDE1"/>
<path id="Vector_4" d="M1012.85 350.348C1018.13 350.348 1022.41 346.07 1022.41 340.793C1022.41 335.516 1018.13 331.238 1012.85 331.238C1007.58 331.238 1003.3 335.516 1003.3 340.793C1003.3 346.07 1007.58 350.348 1012.85 350.348Z" fill="#D0CDE1"/>
<path id="Vector_5" d="M737.412 339.2C742.688 339.2 746.965 334.922 746.965 329.645C746.965 324.368 742.688 320.09 737.412 320.09C732.136 320.09 727.859 324.368 727.859 329.645C727.859 334.922 732.136 339.2 737.412 339.2Z" fill="#D0CDE1"/>
<path id="Vector_6" d="M336.192 238.873C341.468 238.873 345.745 234.595 345.745 229.318C345.745 224.041 341.468 219.763 336.192 219.763C330.916 219.763 326.639 224.041 326.639 229.318C326.639 234.595 330.916 238.873 336.192 238.873Z" fill="#D0CDE1"/>
<path id="Vector_7" d="M305.942 597.183C311.218 597.183 315.494 592.905 315.494 587.628C315.494 582.351 311.218 578.073 305.942 578.073C300.666 578.073 296.389 582.351 296.389 587.628C296.389 592.905 300.666 597.183 305.942 597.183Z" fill="#D0CDE1"/>
<path id="Vector_8" d="M532.026 288.24C539.94 288.24 546.355 281.824 546.355 273.908C546.355 265.992 539.94 259.576 532.026 259.576C524.112 259.576 517.697 265.992 517.697 273.908C517.697 281.824 524.112 288.24 532.026 288.24Z" fill="#D0CDE1"/>
</g>
</g>
<g id="Desk">
<path id="lower" d="M1314.56 925.927H106.68C92.9846 925.927 81.8825 933.843 81.8825 943.609V948.661C81.8825 958.426 92.9846 966.342 106.68 966.342H1314.56C1328.26 966.342 1339.36 958.426 1339.36 948.661V943.609C1339.36 933.843 1328.26 925.927 1314.56 925.927Z" fill="#686867"/>
<path id="upper" d="M1323.53 903.261H90.4675C76.4022 903.261 65 911.392 65 921.421V932.299C65 942.328 76.4022 950.458 90.4675 950.458H1323.53C1337.6 950.458 1349 942.328 1349 932.299V921.421C1349 911.392 1337.6 903.261 1323.53 903.261Z" fill="#8C8B89"/>
</g>
<g id="cat">
<path id="body-cat" d="M354.101 904.056H111.509V904.056C111.509 882.988 119.876 862.783 134.77 847.886C149.664 832.988 169.865 824.619 190.929 824.619C235.131 810.838 292.79 815.26 354.101 824.619V904.056Z" fill="#B58CD9"/>
<path id="back-arm-cat" d="M319.445 886.725H433.521C434.469 886.725 435.408 886.911 436.284 887.274C437.16 887.637 437.956 888.169 438.626 888.84C439.297 889.51 439.829 890.307 440.191 891.183C440.554 892.059 440.741 892.998 440.741 893.946V893.946C440.741 895.862 439.98 897.698 438.626 899.053C437.272 900.407 435.436 901.168 433.521 901.168H319.445V886.725Z" fill="#3F3D56"/>
<path id="rightear-cat" d="M339.202 756.631L369.779 719.558C370.484 718.088 371.619 716.867 373.035 716.058C374.45 715.249 376.078 714.89 377.702 715.029C379.326 715.169 380.87 715.799 382.127 716.837C383.384 717.875 384.295 719.272 384.74 720.84L396.798 763.423L339.202 756.631Z" fill="#3F3D56"/>
<path id="leftear-cat" d="M302.117 775.512L313.669 728.862C313.669 727.231 314.165 725.64 315.092 724.298C316.019 722.957 317.332 721.929 318.857 721.353C320.381 720.776 322.046 720.677 323.628 721.07C325.21 721.462 326.635 722.328 327.714 723.55L356.989 756.736L302.117 775.512Z" fill="#B58CD9"/>
<g id="tail">
<path id="tail-cat" d="M111.509 904.056H134.613V953.163C134.613 956.198 134.015 959.203 132.854 962.007C131.693 964.81 129.991 967.358 127.846 969.504C125.7 971.65 123.153 973.352 120.35 974.513C117.547 975.675 114.543 976.272 111.509 976.272V976.272V904.056L111.509 904.056Z" fill="#B58CD9"/>
<path id="Vector_9" d="M125.549 916.414L125.549 951.376C125.549 954.052 126.539 956.222 127.76 956.223C128.981 956.224 129.971 954.056 129.971 951.38L129.971 916.418C129.971 913.742 128.981 911.572 127.76 911.571C126.539 911.57 125.549 913.738 125.549 916.414Z" fill="#DAB6FA"/>
</g>
<path id="front-arm-cat" d="M315.113 889.613H429.189C430.137 889.613 431.076 889.8 431.952 890.163C432.828 890.526 433.624 891.058 434.295 891.728C434.965 892.399 435.497 893.195 435.86 894.071C436.222 894.947 436.409 895.887 436.409 896.835C436.409 897.783 436.222 898.722 435.86 899.598C435.497 900.475 434.965 901.271 434.295 901.941C433.624 902.612 432.828 903.144 431.952 903.507C431.076 903.87 430.137 904.056 429.189 904.056H315.113V889.613Z" fill="#B58CD9"/>
<path id="face-cat" d="M354.101 904.056C397.166 904.056 432.077 869.138 432.077 826.063C432.077 782.989 397.166 748.07 354.101 748.07C311.036 748.07 276.125 782.989 276.125 826.063C276.125 869.138 311.036 904.056 354.101 904.056Z" fill="#B58CD9"/>
<path id="Vector_10" d="M316.381 806.595C315.109 806.595 313.888 806.122 312.988 805.28C312.089 804.439 311.583 803.297 311.583 802.107C311.571 795.547 314.344 789.25 319.292 784.6C324.24 779.95 330.959 777.325 337.974 777.304C339.247 777.304 340.467 777.777 341.367 778.618C342.267 779.46 342.773 780.601 342.773 781.791C342.773 782.981 342.267 784.123 341.367 784.964C340.467 785.806 339.247 786.279 337.974 786.279C333.506 786.284 329.224 787.948 326.067 790.904C322.909 793.86 321.136 797.868 321.136 802.046C321.148 803.238 320.654 804.386 319.763 805.238C318.872 806.091 317.656 806.578 316.381 806.595Z" fill="#DAB6FA"/>
<path id="nose-cat" d="M429.189 852.061C433.974 852.061 437.853 843.008 437.853 831.841C437.853 820.673 433.974 811.62 429.189 811.62C424.404 811.62 420.525 820.673 420.525 831.841C420.525 843.008 424.404 852.061 429.189 852.061Z" fill="#3F3D56"/>
<path id="left-eye-cat" d="M408.251 815.953C409.447 815.953 410.417 813.69 410.417 810.898C410.417 808.106 409.447 805.843 408.251 805.843C407.055 805.843 406.085 808.106 406.085 810.898C406.085 813.69 407.055 815.953 408.251 815.953Z" fill="#3F3D56"/>
<path id="right-eye-cat" d="M424.135 805.843C425.331 805.843 426.301 803.58 426.301 800.788C426.301 797.996 425.331 795.733 424.135 795.733C422.939 795.733 421.969 797.996 421.969 800.788C421.969 803.58 422.939 805.843 424.135 805.843Z" fill="#3F3D56"/>
<path id="hair2" d="M347.559 747.202C347.559 747.202 343.225 739.661 343.225 735.061Z" fill="#3F3D56"/>
<path id="hair" d="M349.465 742.325C349.465 742.325 351.827 733.954 355.116 730.738Z" fill="#3F3D56"/>
</g>
<g id="female-3 1" clip-path="url(#clip0)">
<path id="backhair" d="M857.582 297.15H917.065C941.812 297.15 965.547 306.976 983.046 324.466C1000.55 341.957 1010.38 365.679 1010.38 390.414V608.883C1010.38 620.561 1005.74 631.76 997.474 640.017C989.212 648.275 978.007 652.913 966.323 652.913H808.324C796.64 652.913 785.435 648.275 777.173 640.017C768.912 631.76 764.271 620.561 764.271 608.883V390.414C764.271 365.679 774.102 341.957 791.601 324.466C809.1 306.976 832.835 297.15 857.582 297.15V297.15Z" fill="#072132"/>
<path id="Vector_11" d="M765.85 557.179H1014.05V875.049C1014.05 881.576 1011.46 887.836 1006.84 892.452C1002.22 897.067 995.961 899.66 989.43 899.66H790.474C783.943 899.66 777.68 897.067 773.062 892.452C768.444 887.836 765.85 881.576 765.85 875.049V557.179Z" fill="#7C51A1"/>
<g id="ears">
<g id="right-ear">
<path id="Vector_12" d="M983.841 469.232C995.799 469.232 1005.49 459.543 1005.49 447.591C1005.49 435.639 995.799 425.949 983.841 425.949C971.882 425.949 962.188 435.639 962.188 447.591C962.188 459.543 971.882 469.232 983.841 469.232Z" fill="#EFBDB4"/>
<path id="Vector_13" d="M983.456 459.253C989.9 459.253 995.124 454.031 995.124 447.591C995.124 441.15 989.9 435.929 983.456 435.929C977.012 435.929 971.788 441.15 971.788 447.591C971.788 454.031 977.012 459.253 983.456 459.253Z" fill="#DDA79C"/>
</g>
<g id="left-ear">
<path id="Vector_14" d="M796.074 469.232C808.032 469.232 817.727 459.543 817.727 447.591C817.727 435.639 808.032 425.949 796.074 425.949C784.116 425.949 774.421 435.639 774.421 447.591C774.421 459.543 784.116 469.232 796.074 469.232Z" fill="#EFBDB4"/>
<path id="Vector_15" d="M795.69 459.253C802.134 459.253 807.358 454.031 807.358 447.591C807.358 441.15 802.134 435.929 795.69 435.929C789.246 435.929 784.022 441.15 784.022 447.591C784.022 454.031 789.246 459.253 795.69 459.253Z" fill="#DDA79C"/>
</g>
</g>
<g id="ear-rings">
<path id="Vector_16" d="M792.853 475.369C796.239 475.369 798.983 472.626 798.983 469.242C798.983 465.859 796.239 463.116 792.853 463.116C789.468 463.116 786.723 465.859 786.723 469.242C786.723 472.626 789.468 475.369 792.853 475.369Z" fill="#EAE4E4"/>
<path id="Vector_17" d="M986.75 474.341C990.135 474.341 992.88 471.598 992.88 468.214C992.88 464.831 990.135 462.088 986.75 462.088C983.364 462.088 980.62 464.831 980.62 468.214C980.62 471.598 983.364 474.341 986.75 474.341Z" fill="#EAE4E4"/>
</g>
<g id="collar">
<path id="Vector 20" d="M889.937 507.914C853.842 508.839 825.311 539.172 826.246 575.694C827.181 612.217 857.24 641.054 893.334 640.13C929.429 639.206 957.959 608.873 957.024 572.34C956.089 535.807 926.042 506.99 889.937 507.914Z" fill="#D3A09B"/>
</g>
<path id="face" d="M983.841 421.723C983.841 376.862 941.813 340.506 889.957 340.506C838.101 340.506 796.116 376.862 796.116 421.723V470.914C796.116 515.765 837.977 579.952 889.833 579.952C941.689 579.952 983.882 515.776 983.882 470.914L983.841 421.723Z" fill="#EFBDB4"/>
<g id="nose">
<path id="Vector 30" d="M889.771 478.64C887.263 478.638 884.842 479.554 882.965 481.216C881.101 482.896 879.909 485.194 879.609 487.685C879.599 487.837 879.621 487.989 879.672 488.132C879.708 488.277 879.784 488.41 879.89 488.516C879.984 488.621 880.092 488.712 880.212 488.786C880.351 488.854 880.503 488.893 880.659 488.9H898.976C899.13 488.887 899.281 488.848 899.423 488.786C899.552 488.726 899.663 488.633 899.745 488.516C899.851 488.41 899.926 488.277 899.963 488.132C900.015 487.978 900.033 487.815 900.015 487.654C899.743 485.155 898.546 482.848 896.659 481.185C894.749 479.527 892.3 478.622 889.771 478.64Z" fill="#EBB8B0"/>
<path id="Vector 31" d="M879.557 487.914C879.546 488.044 879.563 488.175 879.609 488.298C879.671 488.402 879.723 488.568 879.838 488.62C879.93 488.712 880.04 488.786 880.16 488.838C880.278 488.903 880.409 488.942 880.544 488.952H898.768C898.904 488.952 899.038 488.912 899.152 488.838C899.278 488.79 899.391 488.716 899.485 488.62C899.577 488.527 899.651 488.418 899.703 488.298C899.744 488.174 899.762 488.044 899.755 487.914H879.557Z" fill="#DDA79C"/>
<path id="Vector 32" d="M895.537 484.539H883.952C883.66 484.539 883.38 484.655 883.173 484.861C882.967 485.068 882.851 485.348 882.851 485.64C882.851 485.932 882.967 486.212 883.173 486.418C883.38 486.624 883.66 486.74 883.952 486.74H895.537C895.829 486.74 896.109 486.624 896.316 486.418C896.522 486.212 896.638 485.932 896.638 485.64C896.638 485.348 896.522 485.068 896.316 484.861C896.109 484.655 895.829 484.539 895.537 484.539Z" fill="#F0C6BE"/>
</g>
<g id="right arm">
<path id="Vector 52" d="M1011.12 558.082L990.719 564.199C976.879 568.352 968.516 585.092 972.017 601.583L1028.97 872.806C1032.48 889.317 1046.48 899.307 1060.24 895.226L1080.64 889.109C1094.48 884.956 1102.85 868.216 1099.35 851.725L1042.47 580.513C1038.97 564.001 1024.96 554.011 1011.12 558.082Z" fill="#7C51A1"/>
<path id="Vector 53" d="M897.303 871.653V880.189C897.303 897.209 908.825 910.969 923.091 910.969H1074.85C1089.11 910.969 1100.64 897.209 1100.64 880.189V871.622C1100.64 854.602 1089.11 840.842 1074.85 840.842H923.091C908.825 840.873 897.303 854.633 897.303 871.653Z" fill="#7C51A1"/>
</g>
<g id="left arm">
<path id="Vector 54" d="M702.295 849.036H669.587C656.423 849.036 645.774 861.601 645.774 877.167C645.774 892.734 656.423 905.299 669.587 905.299H702.295C715.469 905.299 726.108 892.723 726.108 877.167C726.108 861.611 715.469 849.036 702.295 849.036Z" fill="#7C51A1"/>
<path id="Vector 55" d="M678.928 887.707L692.539 898.217C704.747 907.698 721.059 903.679 728.997 889.255L774.183 807.84C782.12 793.416 778.713 774.142 766.587 764.765L752.987 754.256C740.769 744.91 724.456 748.794 716.518 763.218L671.343 844.736C663.405 858.953 666.803 878.226 678.928 887.707Z" fill="#7C51A1"/>
<path id="Vector 56" d="M726.638 819.897L751.938 824.85C766.328 827.633 779.845 816.189 782.204 799.19L810.547 597.512C812.906 580.502 803.222 564.531 788.915 561.644L763.626 556.701C749.236 553.918 735.709 565.351 733.361 582.361L705.006 784.039C702.658 801.038 712.342 817.01 726.638 819.897Z" fill="#7C51A1"/>
<path id="Vector 57" d="M792.999 571.343H758.307C755.688 571.343 753.507 573.918 753.507 577.013C753.507 580.108 755.688 582.683 758.307 582.683H792.999C795.617 582.683 797.799 580.108 797.799 577.013C797.799 573.918 795.721 571.343 792.999 571.343Z" fill="#72439A"/>
<path id="Vector 58" d="M701.173 813.728L680.788 846.959C680.015 848.197 679.697 849.665 679.886 851.111C680.076 852.558 680.761 853.895 681.827 854.892C682.318 855.332 682.904 855.654 683.539 855.832C684.174 856.011 684.842 856.041 685.491 855.922C686.14 855.803 686.753 855.537 687.283 855.144C687.813 854.751 688.246 854.243 688.549 853.657L708.955 820.426C709.725 819.187 710.042 817.72 709.853 816.274C709.664 814.828 708.979 813.491 707.916 812.492C707.42 812.058 706.832 811.742 706.196 811.567C705.561 811.392 704.894 811.363 704.245 811.482C703.597 811.6 702.984 811.864 702.452 812.253C701.919 812.642 701.482 813.147 701.173 813.728V813.728Z" fill="#72439A"/>
</g>
<g id="laptop">
<path id="Vector 60" d="M1045.32 699.042H769.455C761.741 699.046 754.104 700.569 746.979 703.524C739.855 706.48 733.383 710.81 727.933 716.266C722.483 721.723 718.163 728.199 715.218 735.325C712.274 742.451 710.763 750.087 710.773 757.797V852.057C710.77 867.623 716.948 882.554 727.951 893.57C738.954 904.587 753.881 910.788 769.455 910.813H1045.32C1053.03 910.809 1060.67 909.286 1067.79 906.33C1074.92 903.375 1081.39 899.045 1086.84 893.588C1092.29 888.132 1096.61 881.656 1099.55 874.529C1102.5 867.403 1104.01 859.767 1104 852.057V757.797C1104.01 750.087 1102.5 742.451 1099.55 735.325C1096.61 728.199 1092.29 721.723 1086.84 716.266C1081.39 710.81 1074.92 706.48 1067.79 703.524C1060.67 700.569 1053.03 699.046 1045.32 699.042V699.042Z" fill="#49494B"/>
<path id="Vector 61" d="M1038.04 679.768H776.728C768.06 679.775 759.478 681.488 751.472 684.81C743.466 688.131 736.194 692.997 730.069 699.128C723.945 705.259 719.088 712.535 715.777 720.542C712.467 728.549 710.766 737.129 710.773 745.793V825.421C710.766 834.084 712.467 842.664 715.778 850.67C719.089 858.676 723.945 865.952 730.07 872.083C736.194 878.213 743.467 883.077 751.473 886.398C759.479 889.718 768.06 891.43 776.728 891.436H1038.04C1046.71 891.43 1055.29 889.718 1063.3 886.398C1071.31 883.077 1078.58 878.213 1084.7 872.083C1090.83 865.952 1095.68 858.676 1099 850.67C1102.31 842.664 1104.01 834.084 1104 825.421V745.751C1104 728.261 1097.06 711.486 1084.69 699.113C1072.32 686.74 1055.54 679.782 1038.04 679.768V679.768Z" fill="#595A5C"/>
<path id="Vector 62" d="M907.184 813.957C913.305 813.957 919.29 812.142 924.38 808.743C929.47 805.344 933.437 800.512 935.779 794.86C938.122 789.207 938.735 782.987 937.541 776.986C936.346 770.985 933.399 765.473 929.07 761.146C924.741 756.82 919.226 753.874 913.222 752.68C907.218 751.486 900.995 752.099 895.339 754.441C889.684 756.782 884.85 760.747 881.449 765.834C878.048 770.922 876.232 776.903 876.232 783.021C876.238 791.224 879.501 799.089 885.304 804.89C891.107 810.69 898.977 813.951 907.184 813.957V813.957Z" fill="#72439A"/>
<path id="Vector 63" d="M907.392 809.18C912.529 809.18 917.551 807.657 921.822 804.805C926.094 801.952 929.423 797.897 931.389 793.153C933.355 788.41 933.87 783.19 932.867 778.154C931.865 773.118 929.391 768.492 925.759 764.861C922.126 761.23 917.498 758.758 912.459 757.756C907.42 756.754 902.198 757.268 897.452 759.233C892.705 761.198 888.649 764.526 885.794 768.795C882.94 773.065 881.417 778.084 881.417 783.219C881.417 790.104 884.154 796.707 889.025 801.576C893.896 806.445 900.503 809.18 907.392 809.18Z" fill="#7C51A1"/>
<path id="Vector 64" d="M922.447 783.125C922.432 786.124 921.528 789.051 919.849 791.536C918.19 794.021 915.843 795.969 913.096 797.144C910.341 798.295 907.302 798.585 904.379 797.975C901.449 797.367 898.763 795.91 896.657 793.787C894.551 791.663 893.117 788.966 892.534 786.033C891.929 783.105 892.219 780.064 893.368 777.304C894.517 774.544 896.471 772.194 898.976 770.56C901.475 768.921 904.403 768.057 907.392 768.078C909.382 768.086 911.352 768.47 913.2 769.21C915.947 770.385 918.294 772.333 919.953 774.817C921.586 777.28 922.454 780.171 922.447 783.125V783.125Z" fill="white"/>
</g>
<g id="Group" opacity="0.5">
<path id="Vector_18" opacity="0.5" d="M843.12 512.411C852.811 512.411 860.668 504.558 860.668 494.871C860.668 485.185 852.811 477.332 843.12 477.332C833.428 477.332 825.571 485.185 825.571 494.871C825.571 504.558 833.428 512.411 843.12 512.411Z" fill="#EA9D9B"/>
<path id="Vector_19" opacity="0.5" d="M934.738 512.411C944.43 512.411 952.286 504.558 952.286 494.871C952.286 485.185 944.43 477.332 934.738 477.332C925.046 477.332 917.189 485.185 917.189 494.871C917.189 504.558 925.046 512.411 934.738 512.411Z" fill="#EA9D9B"/>
</g>
<g id="eyebrows">
<g id="left eyebrow">
<path id="Vector 22" d="M857.665 432.159H834.008C832.537 432.135 831.128 431.569 830.049 430.571C828.905 429.451 828.099 428.034 827.722 426.479C827.555 427.158 827.475 427.856 827.483 428.556C827.46 430.549 828.141 432.487 829.405 434.029C829.956 434.726 830.654 435.294 831.449 435.691C832.245 436.087 833.119 436.303 834.008 436.324H857.665C858.554 436.303 859.428 436.087 860.224 435.691C861.019 435.294 861.718 434.726 862.268 434.029C863.532 432.487 864.213 430.549 864.19 428.556C864.172 427.858 864.092 427.163 863.951 426.479C863.656 428.065 862.836 429.505 861.624 430.571C860.552 431.579 859.138 432.147 857.665 432.159V432.159Z" fill="#DDA79C"/>
<path id="Vector 23" d="M857.666 419.116H833.956C830.34 419.116 827.42 422.574 827.42 426.874C827.42 431.173 830.34 434.641 833.956 434.641H857.666C861.281 434.641 864.19 431.173 864.19 426.874C864.19 422.523 861.281 419.116 857.666 419.116Z" fill="#072132"/>
<path id="Vector 25" d="M852.772 421.629H838.849C838.392 421.669 837.97 421.888 837.674 422.238C837.378 422.589 837.233 423.042 837.27 423.499C837.233 423.956 837.378 424.409 837.674 424.759C837.97 425.109 838.392 425.328 838.849 425.368H852.772C853.227 425.326 853.647 425.106 853.941 424.756C854.235 424.406 854.378 423.954 854.341 423.499V423.499C854.378 423.043 854.235 422.592 853.941 422.242C853.647 421.892 853.227 421.672 852.772 421.629Z" fill="#143748"/>
</g>
<g id="right eyebrow">
<path id="Vector 26" d="M946.011 431.287H922.436C920.967 431.274 919.557 430.706 918.488 429.698C917.334 428.562 916.527 427.122 916.161 425.544C915.983 426.223 915.886 426.92 915.87 427.621C915.847 429.618 916.527 431.559 917.792 433.104C918.339 433.8 919.034 434.366 919.826 434.761C920.618 435.156 921.489 435.371 922.374 435.389H946.011C946.898 435.371 947.769 435.156 948.563 434.761C949.358 434.366 950.054 433.8 950.603 433.104C951.86 431.555 952.537 429.616 952.515 427.621C952.495 426.924 952.418 426.229 952.287 425.544C951.95 427.115 951.137 428.544 949.959 429.636C949.443 430.158 948.828 430.572 948.15 430.856C947.472 431.139 946.745 431.286 946.011 431.287Z" fill="#DDA79C"/>
<path id="Vector 27" d="M946.011 418.192H922.374C918.779 418.192 915.87 421.65 915.87 425.949C915.87 430.249 918.779 433.717 922.374 433.717H946.011C949.616 433.717 952.515 430.249 952.515 425.949C952.515 421.65 949.616 418.192 946.011 418.192Z" fill="#072132"/>
<path id="Vector 28" d="M946.011 429.345H922.436C920.967 429.332 919.557 428.764 918.488 427.756C917.31 426.639 916.498 425.19 916.161 423.602C916.003 424.283 915.927 424.981 915.932 425.679C915.909 427.674 916.585 429.614 917.844 431.162C918.393 431.859 919.09 432.424 919.884 432.819C920.678 433.214 921.549 433.429 922.436 433.447H946.011C946.898 433.429 947.769 433.214 948.564 432.819C949.358 432.424 950.054 431.859 950.603 431.162C951.862 429.614 952.538 427.674 952.515 425.679C952.495 424.982 952.418 424.288 952.287 423.602C951.97 425.198 951.155 426.653 949.959 427.756C948.892 428.766 947.481 429.334 946.011 429.345Z" fill="#0B161E"/>
<path id="Vector 29" d="M941.138 420.747H927.257C926.801 420.792 926.381 421.014 926.088 421.365C925.794 421.717 925.651 422.17 925.688 422.626C925.651 423.082 925.794 423.533 926.088 423.883C926.382 424.233 926.802 424.453 927.257 424.496H941.138C941.593 424.453 942.013 424.233 942.307 423.883C942.601 423.533 942.745 423.082 942.707 422.626V422.626C942.745 422.17 942.601 421.717 942.308 421.365C942.014 421.014 941.594 420.792 941.138 420.747V420.747Z" fill="#143748"/>
</g>
</g>
<g id="eyes">
<path id="left eye" d="M852.148 448.193C852.148 446.147 851.335 444.184 849.887 442.737C848.44 441.29 846.476 440.477 844.429 440.477C842.381 440.477 840.418 441.29 838.97 442.737C837.522 444.184 836.709 446.147 836.709 448.193V458.983C836.709 461.029 837.522 462.991 838.97 464.438C840.418 465.885 842.381 466.698 844.429 466.698C846.476 466.698 848.44 465.885 849.887 464.438C851.335 462.991 852.148 461.029 852.148 458.983V448.193Z" fill="#231F20"/>
<path id="right eye" d="M940.535 448.193C940.535 446.147 939.722 444.184 938.274 442.737C936.827 441.29 934.863 440.477 932.816 440.477C930.768 440.477 928.805 441.29 927.357 442.737C925.909 444.184 925.096 446.147 925.096 448.193V458.983C925.096 461.029 925.909 462.991 927.357 464.438C928.805 465.885 930.768 466.698 932.816 466.698C934.863 466.698 936.827 465.885 938.274 464.438C939.722 462.991 940.535 461.029 940.535 458.983V448.193Z" fill="#231F20"/>
<path id="Vector_20" d="M944.723 444.276L939.459 448.006C937.987 449.049 936.16 449.466 934.381 449.163C932.602 448.86 931.016 447.863 929.972 446.392L928.68 444.571L933.943 440.84C935.415 439.797 937.242 439.381 939.021 439.684C940.8 439.986 942.387 440.983 943.431 442.455L944.723 444.276Z" fill="#231F20"/>
<path id="Vector_21" d="M844.537 440.876L849.801 444.607L848.508 446.428C847.991 447.157 847.336 447.776 846.579 448.252C845.823 448.727 844.98 449.049 844.099 449.199C843.218 449.349 842.316 449.324 841.445 449.125C840.573 448.927 839.75 448.559 839.021 448.042L833.757 444.312L835.049 442.491C836.093 441.019 837.68 440.022 839.459 439.72C841.238 439.417 843.065 439.833 844.537 440.876Z" fill="#231F20"/>
</g>
<g id="lips">
<path id="Vector_22" d="M897.729 507.478C896.174 507.477 894.634 507.782 893.197 508.376C891.76 508.969 890.454 509.84 889.354 510.939C888.254 512.037 887.382 513.342 886.786 514.777C886.191 516.213 885.885 517.752 885.885 519.306H909.563C909.563 517.753 909.257 516.215 908.662 514.78C908.068 513.345 907.196 512.041 906.097 510.943C904.998 509.844 903.694 508.973 902.258 508.379C900.822 507.784 899.283 507.478 897.729 507.478V507.478Z" fill="#BC3451"/>
<path id="Vector_23" d="M889.957 538.943C895.164 538.941 900.156 536.872 903.836 533.191C907.516 529.511 909.584 524.52 909.584 519.317H870.331C870.331 524.52 872.398 529.511 876.079 533.191C879.759 536.872 884.751 538.941 889.957 538.943V538.943Z" fill="#BC3451"/>
<path id="Vector_24" d="M882.186 507.52C879.046 507.523 876.036 508.771 873.817 510.991C871.598 513.211 870.352 516.22 870.352 519.358H894.03C894.03 516.218 892.782 513.207 890.561 510.987C888.34 508.767 885.327 507.52 882.186 507.52V507.52Z" fill="#BC3451"/>
</g>
<path id="mouth" d="M899.256 515.391H880.658C879.495 515.391 878.58 516.783 878.58 518.507C878.58 520.241 879.515 521.622 880.658 521.622H899.256C900.42 521.622 901.334 520.23 901.334 518.507C901.355 516.783 900.42 515.391 899.256 515.391Z" fill="#A12A4A"/>
<g id="front-hair">
<path id="Vector_25" d="M884.264 414.734H819.68C812.57 414.726 805.755 411.897 800.731 406.87C795.706 401.842 792.884 395.027 792.884 387.921V359.987C792.884 338.466 801.438 317.827 816.663 302.609C831.889 287.391 852.539 278.842 874.071 278.842H923.984C925.638 278.842 927.223 279.499 928.392 280.667C929.562 281.836 930.218 283.42 930.218 285.073V368.876C930.218 381.047 925.381 392.719 916.771 401.325C908.16 409.931 896.482 414.765 884.305 414.765L884.264 414.734Z" fill="#DDA79C"/>
<path id="Vector_26" d="M884.264 407.371H792.677C785.574 407.363 778.765 404.54 773.742 399.522C768.719 394.503 765.892 387.699 765.881 380.6V356.186C765.881 334.665 774.435 314.026 789.66 298.808C804.886 283.591 825.536 275.042 847.068 275.042H923.984C925.638 275.042 927.223 275.698 928.392 276.866C929.562 278.035 930.218 279.62 930.218 281.272V361.472C930.22 367.503 929.032 373.474 926.722 379.046C924.413 384.617 921.028 389.679 916.76 393.942C912.492 398.205 907.425 401.585 901.849 403.889C896.273 406.194 890.297 407.377 884.264 407.371V407.371Z" fill="#072132"/>
<path id="Vector_27" d="M878.736 369.437H804.76C801.57 369.437 798.983 372.022 798.983 375.211V376.498C798.983 379.687 801.57 382.272 804.76 382.272H878.736C881.927 382.272 884.513 379.687 884.513 376.498V375.211C884.513 372.022 881.927 369.437 878.736 369.437Z" fill="#143748"/>
<path id="Vector_28" d="M841.374 312.727H804.989C801.672 312.727 798.983 315.414 798.983 318.729V320.069C798.983 323.384 801.672 326.071 804.989 326.071H841.374C844.691 326.071 847.379 323.384 847.379 320.069V318.729C847.379 315.414 844.691 312.727 841.374 312.727Z" fill="#143748"/>
</g>
<g id="collar_2">
<path id="Vector_29" d="M824.771 644.429L804.074 552.807L827.649 548.186L848.346 639.808L824.771 644.429Z" fill="#72439A"/>
<path id="Vector_30" d="M909.012 678.148L825.571 643.63L835.39 621.708L918.831 656.226L909.012 678.148Z" fill="#72439A"/>
<path id="Vector_31" d="M883.859 617.627L840.013 608.831L833.426 641.605L917.428 658.459L883.859 617.627Z" fill="#72439A"/>
<path id="Vector_32" d="M958.261 644.429L979.041 552.402L955.466 547.781L934.686 639.808L958.261 644.429Z" fill="#72439A"/>
<path id="Vector_33" d="M874.019 678.148L957.461 643.63L947.642 621.708L864.201 656.226L874.019 678.148Z" fill="#72439A"/>
<path id="Vector_34" d="M899.173 617.627L943.019 608.831L949.595 641.605L865.603 658.459L899.173 617.627Z" fill="#72439A"/>
</g>
<g id="left hand">
<path id="Vector 59" d="M669.005 869.96L638.989 839.845C638.136 838.98 637.12 838.292 635.999 837.823C634.878 837.354 633.674 837.112 632.459 837.112C631.243 837.112 630.04 837.354 628.919 837.823C627.798 838.292 626.782 838.98 625.929 839.845V839.845C625.065 840.699 624.38 841.715 623.912 842.836C623.444 843.956 623.203 845.158 623.203 846.372C623.203 847.586 623.444 848.788 623.912 849.908C624.38 851.029 625.065 852.045 625.929 852.899L655.935 883.014C656.79 883.877 657.808 884.563 658.929 885.03C660.051 885.498 661.255 885.739 662.47 885.739C663.686 885.739 664.889 885.498 666.011 885.03C667.133 884.563 668.15 883.877 669.005 883.014V883.014C669.868 882.159 670.552 881.143 671.019 880.022C671.486 878.902 671.727 877.701 671.727 876.487C671.727 875.273 671.486 874.072 671.019 872.952C670.552 871.831 669.868 870.815 669.005 869.96V869.96Z" fill="#ECB9A6"/>
<path id="finger 4" d="M590.79 854.508L576.244 869.047C575.52 869.741 574.943 870.574 574.545 871.495C574.147 872.416 573.937 873.407 573.927 874.41C573.917 875.413 574.107 876.408 574.487 877.336C574.867 878.265 575.428 879.109 576.138 879.818C576.848 880.527 577.693 881.087 578.622 881.465C579.552 881.844 580.547 882.034 581.551 882.023C582.555 882.012 583.546 881.801 584.467 881.402C585.388 881.004 586.22 880.425 586.915 879.701L601.461 865.246C602.169 864.541 602.731 863.704 603.115 862.782C603.498 861.86 603.696 860.871 603.696 859.872C603.696 858.873 603.498 857.884 603.115 856.962C602.731 856.04 602.169 855.202 601.461 854.498C600.763 853.792 599.932 853.231 599.015 852.849C598.099 852.467 597.116 852.271 596.123 852.272C595.13 852.273 594.147 852.471 593.232 852.855C592.316 853.239 591.486 853.801 590.79 854.508V854.508Z" fill="#E0A1A2"/>
<path id="mouse" d="M673.224 904.665C675.21 904.665 677.167 904.184 678.928 903.264C680.699 902.333 682.204 900.968 683.302 899.297C684.44 897.651 685.154 895.75 685.38 893.762C685.601 891.768 685.318 889.751 684.559 887.894C681.638 880.513 677.094 873.883 671.263 868.494C665.432 863.105 658.464 859.094 650.874 856.759C643.284 854.424 635.265 853.824 627.412 855.004C619.558 856.184 612.071 859.112 605.502 863.574C596.718 869.547 589.923 878.01 585.99 887.874C585.254 889.736 584.996 891.753 585.242 893.741C585.473 895.728 586.186 897.628 587.32 899.276C588.47 900.906 589.968 902.26 591.704 903.243C593.443 904.228 595.41 904.74 597.408 904.728H673.255V904.645L673.224 904.665Z" fill="#363736"/>
<path id="finger 3" d="M608.723 845.92L585.657 869.067C584.794 869.921 584.108 870.937 583.64 872.058C583.173 873.178 582.932 874.38 582.932 875.594C582.932 876.808 583.173 878.01 583.64 879.13C584.108 880.251 584.794 881.267 585.657 882.121V882.121C586.513 882.984 587.53 883.67 588.652 884.137C589.774 884.605 590.977 884.846 592.193 884.846C593.408 884.846 594.612 884.605 595.733 884.137C596.855 883.67 597.873 882.984 598.728 882.121L621.794 858.984C622.657 858.129 623.343 857.112 623.811 855.991C624.279 854.87 624.52 853.667 624.52 852.452C624.52 851.237 624.279 850.035 623.811 848.913C623.343 847.792 622.657 846.775 621.794 845.92V845.92C620.939 845.057 619.921 844.371 618.799 843.904C617.677 843.436 616.474 843.195 615.258 843.195C614.043 843.195 612.839 843.436 611.718 843.904C610.596 844.371 609.578 845.057 608.723 845.92V845.92Z" fill="#E6A7A3"/>
<path id="finger 2" d="M625.721 839.887L595.705 870.002C594.841 870.857 594.155 871.874 593.687 872.995C593.219 874.116 592.978 875.319 592.978 876.534C592.978 877.749 593.219 878.951 593.687 880.073C594.155 881.194 594.841 882.211 595.705 883.066V883.066C596.559 883.929 597.576 884.614 598.697 885.082C599.817 885.549 601.02 885.79 602.235 885.79C603.449 885.79 604.652 885.549 605.773 885.082C606.894 884.614 607.911 883.929 608.765 883.066L638.781 852.951C639.645 852.097 640.33 851.08 640.798 849.96C641.266 848.84 641.507 847.638 641.507 846.424C641.507 845.21 641.266 844.008 640.798 842.888C640.33 841.767 639.645 840.751 638.781 839.897V839.897C637.036 838.193 634.693 837.238 632.253 837.236C629.813 837.234 627.469 838.185 625.721 839.887V839.887Z" fill="#EBB8B0"/>
<path id="click finger" d="M652.319 836.751L616.495 801.059C614.642 799.235 612.158 798.194 609.558 798.151C606.958 798.109 604.442 799.068 602.531 800.831C601.6 801.677 600.853 802.705 600.334 803.85C599.815 804.996 599.536 806.235 599.514 807.493C599.492 808.75 599.726 809.999 600.204 811.162C600.682 812.325 601.392 813.379 602.292 814.258L638.116 849.949C639.969 851.773 642.452 852.815 645.052 852.857C647.652 852.9 650.169 851.94 652.08 850.178C653.004 849.327 653.745 848.298 654.26 847.153C654.774 846.008 655.051 844.771 655.073 843.515C655.096 842.26 654.863 841.014 654.39 839.851C653.916 838.688 653.212 837.634 652.319 836.751V836.751Z" fill="#EFBDB4"/>
<path id="finger 1" d="M686.305 869.992L652.735 836.356C648.194 831.808 641.244 831.403 637.275 835.37C633.306 839.337 633.721 846.273 638.314 850.822L671.883 884.447C676.424 888.995 683.375 889.411 687.344 885.485C691.313 881.56 690.855 874.54 686.305 869.992Z" fill="#EFBDB4"/>
<path id="finger-1" d="M700.456 884.135L666.886 850.5C662.335 845.951 655.395 845.536 651.426 849.461C647.457 853.387 647.872 860.375 652.465 864.913L685.983 898.59C690.533 903.139 697.474 903.554 701.443 899.629C705.412 895.704 705.006 888.673 700.456 884.135Z" fill="#EFBDB4"/>
<path id="thumb" d="M692.892 884.758H651.062C649.689 884.715 648.32 884.947 647.039 885.442C645.757 885.938 644.588 886.685 643.601 887.641C642.614 888.596 641.829 889.74 641.293 891.005C640.757 892.27 640.481 893.629 640.481 895.003C640.481 896.376 640.757 897.736 641.293 899C641.829 900.265 642.614 901.409 643.601 902.365C644.588 903.32 645.757 904.068 647.039 904.563C648.32 905.058 649.689 905.291 651.062 905.247H692.892C694.265 905.291 695.634 905.058 696.915 904.563C698.197 904.068 699.366 903.32 700.353 902.365C701.34 901.409 702.125 900.265 702.661 899C703.197 897.736 703.473 896.376 703.473 895.003C703.473 893.629 703.197 892.27 702.661 891.005C702.125 889.74 701.34 888.596 700.353 887.641C699.366 886.685 698.197 885.938 696.915 885.442C695.634 884.947 694.265 884.715 692.892 884.758V884.758Z" fill="#EFBDB4"/>
</g>
</g>
<g id="hot-cup">
<g id="cup">
<path id="Vector_35" d="M1264.84 834.744C1260.99 834.744 1257.23 835.886 1254.03 838.024C1250.83 840.162 1248.34 843.201 1246.86 846.757C1245.39 850.312 1245.01 854.225 1245.76 857.999C1246.51 861.774 1248.36 865.241 1251.08 867.963C1253.8 870.684 1257.27 872.537 1261.05 873.288C1264.82 874.039 1268.73 873.653 1272.29 872.181C1275.84 870.708 1278.88 868.214 1281.02 865.014C1283.16 861.814 1284.3 858.052 1284.3 854.203C1284.3 849.042 1282.25 844.093 1278.6 840.444C1274.95 836.795 1270 834.744 1264.84 834.744ZM1264.84 866.178C1262.47 866.178 1260.16 865.475 1258.19 864.16C1256.22 862.844 1254.68 860.974 1253.78 858.786C1252.87 856.598 1252.63 854.19 1253.1 851.867C1253.56 849.544 1254.7 847.41 1256.37 845.736C1258.05 844.061 1260.18 842.921 1262.51 842.459C1264.83 841.997 1267.24 842.234 1269.42 843.14C1271.61 844.046 1273.48 845.581 1274.8 847.55C1276.11 849.52 1276.82 851.835 1276.82 854.203C1276.82 857.379 1275.55 860.425 1273.31 862.67C1271.06 864.916 1268.02 866.178 1264.84 866.178V866.178Z" fill="#B58CD9"/>
<path id="Vector_36" opacity="0.1" d="M1264.44 835C1260.59 835 1256.83 836.141 1253.63 838.279C1250.43 840.418 1247.94 843.457 1246.47 847.012C1244.99 850.568 1244.61 854.48 1245.36 858.255C1246.11 862.03 1247.96 865.497 1250.68 868.218C1253.41 870.939 1256.87 872.793 1260.65 873.544C1264.42 874.294 1268.33 873.909 1271.89 872.436C1275.45 870.963 1278.48 868.469 1280.62 865.269C1282.76 862.069 1283.9 858.307 1283.9 854.459C1283.9 849.298 1281.85 844.349 1278.2 840.699C1274.55 837.05 1269.6 835 1264.44 835ZM1264.44 866.433C1262.07 866.433 1259.76 865.731 1257.79 864.415C1255.82 863.099 1254.29 861.229 1253.38 859.041C1252.47 856.853 1252.24 854.445 1252.7 852.123C1253.16 849.8 1254.3 847.666 1255.98 845.991C1257.65 844.317 1259.78 843.176 1262.11 842.714C1264.43 842.252 1266.84 842.489 1269.03 843.396C1271.21 844.302 1273.08 845.837 1274.4 847.806C1275.72 849.775 1276.42 852.09 1276.42 854.459C1276.42 857.635 1275.16 860.68 1272.91 862.926C1270.66 865.172 1267.62 866.433 1264.44 866.433V866.433Z" fill="#DC5A66"/>
<path id="Vector_37" d="M1190 819.776H1264.84V893.848C1264.84 896.434 1263.81 898.914 1261.99 900.743C1260.16 902.571 1257.68 903.598 1255.09 903.598H1199.75C1197.16 903.598 1194.68 902.571 1192.86 900.743C1191.03 898.914 1190 896.434 1190 893.848V819.776Z" fill="#B58CD9"/>
<path id="Vector_38" opacity="0.1" d="M1251.37 819.776V889.004C1251.37 892.875 1249.83 896.587 1247.1 899.324C1244.36 902.061 1240.65 903.598 1236.78 903.598H1244.26C1248.13 903.598 1251.84 902.061 1254.58 899.324C1257.32 896.587 1258.85 892.875 1258.85 889.004V819.776H1251.37Z" fill="black"/>
</g>
<path id="cup smoke" d="M1204.6 743.66C1203.33 743.959 1201.89 744.433 1201.27 745.989C1200.28 748.46 1202.07 751.246 1203.71 752.944C1206.73 756.081 1209.92 759.162 1211.97 763.54C1214.03 767.918 1214.67 774.028 1212.43 778.223C1209.49 783.702 1202.5 784.881 1201.82 791.624C1201.38 795.953 1204.1 799.646 1206.85 801.819C1213.65 807.18 1222.41 808.61 1227.33 817C1229.37 811.233 1233.92 807.899 1238.46 806.476C1243 805.052 1247.72 805.158 1252.32 804.193C1253.81 803.881 1255.48 803.256 1256.15 801.399C1257.43 797.802 1253.77 793.489 1255.03 789.878C1256 787.13 1258.83 787.343 1260.89 786.243C1264.26 784.451 1265.64 778.486 1264.69 773.695C1263.73 768.903 1261.04 765.158 1258.2 762.088C1250.55 753.814 1241.36 748.948 1232.06 745.448C1227.74 743.82 1222.66 741.268 1218.17 741.021C1213.84 740.783 1208.89 742.648 1204.6 743.66Z" fill="#EEEEEE"/>
</g>
<defs>
<clipPath id="clip0">
<rect width="530" height="636" fill="white" transform="translate(574 275)"/>
</clipPath>
</defs>
</svg>
