<svg width="1632" height="1169" viewBox="0 0 1632 1169" fill="none" xmlns="http://www.w3.org/2000/svg">
<g id="window-bg">
<path id="bg" d="M1632 0H0V1169H1632V0Z" fill="#D0CDE1"/>
<path id="window-glass" d="M1310.21 64.1337H246.064V952.843H1310.21V64.1337Z" fill="#EAE6FC"/>
<path id="window-bars" d="M1345.65 480.702H843.089C834.95 480.702 827.143 477.468 821.388 471.712C815.633 465.955 812.399 458.147 812.399 450.006V62.9092C812.399 54.768 809.166 46.9604 803.411 41.2037C797.655 35.4471 789.849 32.213 781.71 32.213H774.564C766.425 32.213 758.619 35.4471 752.864 41.2037C747.108 46.9604 743.875 54.768 743.875 62.9092V450.006C743.875 458.147 740.642 465.955 734.886 471.712C729.131 477.468 721.325 480.702 713.186 480.702H210.626C206.596 480.702 202.605 481.496 198.882 483.039C195.158 484.582 191.775 486.843 188.925 489.693C186.076 492.543 183.815 495.927 182.273 499.652C180.73 503.376 179.937 507.367 179.937 511.398V518.546C179.937 526.687 183.17 534.494 188.925 540.251C194.681 546.008 202.487 549.242 210.626 549.242H713.185C721.325 549.242 729.131 552.476 734.886 558.232C740.641 563.989 743.875 571.797 743.875 579.938V947.38C743.875 955.521 747.108 963.329 752.864 969.086C758.619 974.842 766.425 978.077 774.564 978.077H781.71C789.849 978.077 797.655 974.842 803.41 969.086C809.166 963.329 812.399 955.521 812.399 947.38V579.938C812.399 571.797 815.633 563.989 821.388 558.233C827.143 552.476 834.949 549.242 843.089 549.242H1345.65C1353.79 549.242 1361.59 546.008 1367.35 540.251C1373.1 534.495 1376.34 526.687 1376.34 518.546V511.399C1376.34 503.258 1373.1 495.45 1367.35 489.693C1361.59 483.937 1353.79 480.702 1345.65 480.702Z" fill="#D0CDE1"/>
<path id="tree" d="M688.392 928.309L624.567 793.76C623.884 792.32 623.576 790.73 623.672 789.139C623.768 787.547 624.266 786.006 625.118 784.659C625.97 783.311 627.148 782.201 628.545 781.432C629.941 780.663 631.509 780.259 633.103 780.259C634.697 780.259 636.265 779.856 637.661 779.087C639.057 778.318 640.236 777.208 641.088 775.86C641.94 774.513 642.437 772.972 642.534 771.38C642.63 769.789 642.322 768.199 641.639 766.759L588.332 654.384C587.649 652.943 587.341 651.353 587.437 649.762C587.533 648.171 588.031 646.629 588.883 645.282C589.734 643.935 590.913 642.825 592.31 642.055C593.706 641.286 595.274 640.883 596.868 640.883H614.951C616.545 640.883 618.113 640.479 619.509 639.71C620.905 638.941 622.084 637.831 622.936 636.484C623.788 635.136 624.285 633.595 624.381 632.004C624.478 630.412 624.17 628.822 623.486 627.382L566.606 507.474C565.923 506.033 565.615 504.443 565.711 502.852C565.807 501.261 566.305 499.719 567.157 498.372C568.009 497.024 569.187 495.914 570.584 495.145C571.98 494.376 573.548 493.973 575.142 493.973H581.116C582.71 493.973 584.278 493.569 585.675 492.8C587.071 492.031 588.25 490.921 589.102 489.574C589.954 488.226 590.451 486.685 590.547 485.094C590.643 483.502 590.336 481.912 589.652 480.472L513.501 319.938C512.735 318.323 511.526 316.958 510.015 316.002C508.504 315.047 506.753 314.539 504.965 314.539C503.177 314.539 501.426 315.047 499.915 316.002C498.404 316.958 497.196 318.323 496.429 319.938L420.278 480.472C419.594 481.912 419.287 483.502 419.383 485.093C419.479 486.685 419.976 488.226 420.828 489.573C421.68 490.921 422.859 492.031 424.255 492.8C425.652 493.569 427.22 493.973 428.813 493.973H434.788C436.382 493.973 437.95 494.376 439.346 495.145C440.742 495.914 441.921 497.024 442.773 498.372C443.625 499.719 444.122 501.26 444.219 502.852C444.315 504.443 444.007 506.033 443.324 507.474L386.444 627.382C385.76 628.822 385.452 630.412 385.549 632.004C385.645 633.595 386.142 635.136 386.994 636.484C387.846 637.831 389.025 638.941 390.421 639.71C391.817 640.479 393.385 640.883 394.979 640.883H413.062C414.656 640.883 416.224 641.286 417.62 642.055C419.016 642.824 420.195 643.934 421.047 645.282C421.899 646.629 422.396 648.171 422.493 649.762C422.589 651.353 422.281 652.943 421.598 654.384L368.291 766.759C367.608 768.199 367.3 769.789 367.396 771.38C367.493 772.972 367.99 774.513 368.842 775.86C369.694 777.208 370.873 778.318 372.269 779.087C373.665 779.856 375.233 780.259 376.827 780.259C378.421 780.259 379.989 780.663 381.385 781.432C382.781 782.201 383.96 783.311 384.812 784.659C385.664 786.006 386.161 787.547 386.258 789.139C386.354 790.73 386.046 792.32 385.363 793.76L321.538 928.309C320.855 929.749 320.547 931.339 320.643 932.93C320.739 934.522 321.236 936.063 322.088 937.41C322.94 938.758 324.119 939.868 325.515 940.637C326.912 941.406 328.48 941.81 330.074 941.81H456.478C457.718 941.81 458.947 942.054 460.093 942.529C461.24 943.004 462.281 943.7 463.158 944.578C464.036 945.455 464.732 946.497 465.206 947.643C465.681 948.79 465.926 950.019 465.926 951.26V993.601C465.926 996.107 466.921 998.511 468.693 1000.28C470.465 1002.06 472.868 1003.05 475.373 1003.05H520.676C523.181 1003.05 525.584 1002.06 527.356 1000.28C529.128 998.511 530.124 996.107 530.124 993.601V951.26C530.124 950.019 530.368 948.79 530.843 947.643C531.318 946.497 532.013 945.455 532.891 944.578C533.768 943.7 534.81 943.004 535.956 942.529C537.102 942.054 538.331 941.81 539.571 941.81H679.856C681.45 941.81 683.018 941.406 684.414 940.637C685.811 939.868 686.99 938.758 687.842 937.411C688.693 936.063 689.191 934.522 689.287 932.93C689.383 931.339 689.075 929.749 688.392 928.309Z" fill="#D0CDE1"/>
<g id="snow">
<path id="Vector" d="M412.567 436.671C413.155 436.65 413.712 436.402 414.121 435.979C414.529 435.556 414.758 434.991 414.758 434.403C414.758 433.814 414.529 433.249 414.121 432.826C413.712 432.403 413.155 432.155 412.567 432.135C411.98 432.155 411.423 432.403 411.014 432.826C410.606 433.249 410.377 433.814 410.377 434.403C410.377 434.991 410.606 435.556 411.014 435.979C411.423 436.402 411.98 436.65 412.567 436.671Z" fill="#D0CDE1"/>
<path id="Vector_2" d="M963.338 144.489C972.544 144.489 980.007 137.024 980.007 127.817C980.007 118.609 972.544 111.145 963.338 111.145C954.133 111.145 946.67 118.609 946.67 127.817C946.67 137.024 954.133 144.489 963.338 144.489Z" fill="#D0CDE1"/>
<path id="Vector_3" d="M980.007 259.338C986.144 259.338 991.119 254.362 991.119 248.224C991.119 242.086 986.144 237.109 980.007 237.109C973.87 237.109 968.894 242.086 968.894 248.224C968.894 254.362 973.87 259.338 980.007 259.338Z" fill="#D0CDE1"/>
<path id="Vector_4" d="M1178.17 407.532C1184.31 407.532 1189.28 402.556 1189.28 396.417C1189.28 390.279 1184.31 385.303 1178.17 385.303C1172.04 385.303 1167.06 390.279 1167.06 396.417C1167.06 402.556 1172.04 407.532 1178.17 407.532Z" fill="#D0CDE1"/>
<path id="Vector_5" d="M857.774 394.565C863.911 394.565 868.886 389.589 868.886 383.45C868.886 377.312 863.911 372.336 857.774 372.336C851.637 372.336 846.662 377.312 846.662 383.45C846.662 389.589 851.637 394.565 857.774 394.565Z" fill="#D0CDE1"/>
<path id="Vector_6" d="M391.066 277.863C397.203 277.863 402.178 272.887 402.178 266.748C402.178 260.61 397.203 255.634 391.066 255.634C384.929 255.634 379.954 260.61 379.954 266.748C379.954 272.887 384.929 277.863 391.066 277.863Z" fill="#D0CDE1"/>
<path id="Vector_7" d="M355.878 694.657C362.015 694.657 366.99 689.68 366.99 683.542C366.99 677.404 362.015 672.427 355.878 672.427C349.741 672.427 344.766 677.404 344.766 683.542C344.766 689.68 349.741 694.657 355.878 694.657Z" fill="#D0CDE1"/>
<path id="Vector_8" d="M618.864 335.288C628.069 335.288 635.532 327.823 635.532 318.616C635.532 309.408 628.069 301.944 618.864 301.944C609.658 301.944 602.196 309.408 602.196 318.616C602.196 327.823 609.658 335.288 618.864 335.288Z" fill="#D0CDE1"/>
</g>
</g>
<g id="Desk">
<path id="lower" d="M1309.4 1093.37H95.8746C82.1154 1093.37 70.9614 1102.39 70.9614 1113.52V1119.27C70.9614 1130.4 82.1154 1139.42 95.8746 1139.42H1309.4C1323.16 1139.42 1334.32 1130.4 1334.32 1119.27V1113.52C1334.32 1102.39 1323.16 1093.37 1309.4 1093.37Z" fill="#686867"/>
<path id="upper" d="M1318.41 1067.54H79.5865C65.4554 1067.54 54 1076.8 54 1088.23V1100.63C54 1112.06 65.4554 1121.32 79.5865 1121.32H1318.41C1332.54 1121.32 1344 1112.06 1344 1100.63V1088.23C1344 1076.8 1332.54 1067.54 1318.41 1067.54Z" fill="#8C8B89"/>
</g>
<g id="chest">
<path id="chest_2" d="M1138.83 1069.12H800.977V773.668C800.977 747.024 776.594 718.936 857.771 725.429H1109.28C1125.61 725.429 1138.83 736.674 1138.83 750.531V1069.12Z" fill="#BE1E2D"/>
<path id="Vector_9" d="M933.157 832.803H893.339C890.292 832.803 887.821 835.276 887.821 838.326C887.821 841.376 890.292 843.849 893.339 843.849H933.157C936.205 843.849 938.675 841.376 938.675 838.326C938.675 835.276 936.205 832.803 933.157 832.803Z" fill="#DF1D3E"/>
</g>
<g id="left-ear">
<path id="Vector_10" d="M841.523 545.912C817.225 545.912 797.529 565.627 797.529 589.947C797.529 614.266 817.225 633.981 841.523 633.981H884.522C908.819 633.981 928.516 614.266 928.516 589.947C928.516 565.627 908.819 545.912 884.522 545.912H841.523Z" fill="#DB9C94"/>
<path id="Vector_11" d="M799.915 575.418C798.867 579.252 798.34 583.21 798.349 587.185C798.346 592.969 799.482 598.696 801.691 604.04C803.901 609.384 807.141 614.24 811.227 618.329C815.313 622.419 820.164 625.662 825.503 627.874C830.842 630.086 836.565 631.223 842.343 631.219H885.342C893.92 631.2 902.305 628.669 909.464 623.939C916.623 619.209 922.243 612.487 925.633 604.6C923.082 613.868 917.572 622.047 909.942 627.886C902.313 633.726 892.983 636.906 883.379 636.941H840.28C832.984 636.941 825.803 635.125 819.383 631.657C812.962 628.188 807.505 623.176 803.501 617.071C799.498 610.967 797.074 603.961 796.448 596.686C795.822 589.41 797.013 582.093 799.915 575.393V575.418Z" fill="#D68C87"/>
<path id="Vector_12" d="M814.53 594.126C814.106 594.305 813.651 594.398 813.19 594.4C812.73 594.402 812.274 594.312 811.849 594.136C811.424 593.96 811.037 593.702 810.712 593.376C810.388 593.049 810.131 592.662 809.956 592.235C808.983 589.887 808.481 587.369 808.48 584.826C808.479 582.283 808.979 579.764 809.95 577.415C810.922 575.065 812.347 572.93 814.144 571.132C815.94 569.333 818.073 567.907 820.421 566.934C820.845 566.755 821.3 566.662 821.76 566.661C822.22 566.659 822.676 566.748 823.101 566.924C823.527 567.1 823.913 567.359 824.238 567.685C824.563 568.011 824.82 568.399 824.994 568.825C825.349 569.687 825.35 570.654 824.996 571.516C824.642 572.378 823.963 573.065 823.105 573.428C820.104 574.703 817.724 577.108 816.478 580.123C815.231 583.139 815.219 586.524 816.444 589.549C816.618 589.975 816.708 590.432 816.706 590.892C816.704 591.353 816.612 591.809 816.434 592.234C816.257 592.659 815.997 593.045 815.67 593.37C815.343 593.694 814.956 593.952 814.53 594.126Z" fill="#E1ADA6"/>
</g>
<g id="right-ear">
<path id="Vector_13" d="M1034.43 545.912C1009.9 545.912 990.014 566.08 990.014 590.958C990.014 615.836 1009.9 636.003 1034.43 636.003H1077.83C1102.36 636.003 1122.24 615.836 1122.24 590.958C1122.24 566.08 1102.36 545.912 1077.83 545.912H1034.43Z" fill="#DB9C94"/>
<path id="Vector_14" d="M1118.55 574.009C1119.62 577.895 1120.17 581.91 1120.19 585.944C1120.19 591.861 1119.04 597.72 1116.81 603.186C1114.58 608.653 1111.31 613.62 1107.19 617.804C1103.06 621.987 1098.16 625.305 1092.77 627.568C1087.38 629.83 1081.61 630.993 1075.77 630.99H1032.37C1023.71 630.988 1015.24 628.419 1008.01 623.599C1000.77 618.779 995.085 611.918 991.645 603.861C994.226 613.363 999.807 621.744 1007.53 627.72C1015.26 633.696 1024.71 636.937 1034.43 636.945H1077.81C1085.17 636.945 1092.42 635.087 1098.9 631.539C1105.38 627.991 1110.89 622.864 1114.93 616.619C1118.98 610.374 1121.42 603.207 1122.05 595.765C1122.69 588.322 1121.48 580.837 1118.55 573.983V574.009Z" fill="#D68C87"/>
<path id="Vector_15" d="M1108.59 593.248C1109.03 593.395 1109.5 593.453 1109.96 593.418C1110.43 593.382 1110.88 593.254 1111.29 593.042C1111.71 592.829 1112.08 592.535 1112.38 592.178C1112.68 591.82 1112.91 591.406 1113.06 590.958C1113.85 588.481 1114.16 585.87 1113.96 583.274C1113.76 580.678 1113.06 578.147 1111.89 575.826C1110.73 573.505 1109.12 571.44 1107.17 569.748C1105.22 568.056 1102.96 566.771 1100.51 565.967C1099.62 565.67 1098.65 565.744 1097.81 566.174C1096.98 566.603 1096.34 567.353 1096.05 568.257C1095.76 569.161 1095.83 570.147 1096.25 570.996C1096.68 571.846 1097.41 572.49 1098.31 572.787C1101.43 573.852 1104.01 576.119 1105.5 579.1C1106.99 582.081 1107.26 585.535 1106.26 588.718C1106.12 589.171 1106.06 589.648 1106.1 590.122C1106.14 590.596 1106.28 591.057 1106.49 591.479C1106.71 591.9 1107.01 592.273 1107.37 592.577C1107.73 592.881 1108.15 593.109 1108.59 593.248Z" fill="#E1ADA6"/>
</g>
<path id="side-hair" d="M1095.98 511.428C1095.98 499.948 1091.43 488.937 1083.32 480.819C1075.21 472.701 1064.21 468.14 1052.74 468.14H867.639C856.169 468.14 845.169 472.701 837.058 480.819C828.947 488.937 824.391 499.948 824.391 511.428C824.378 518.545 826.129 525.555 829.486 531.828V598.352C829.486 602.162 830.236 605.934 831.692 609.453C833.149 612.973 835.283 616.17 837.975 618.864C840.666 621.558 843.861 623.694 847.377 625.152C850.893 626.61 854.662 627.36 858.467 627.36H1061.34C1069.02 627.36 1076.39 624.304 1081.83 618.864C1087.26 613.424 1090.32 606.046 1090.32 598.352V532.799C1094.03 526.29 1095.98 518.924 1095.98 511.428Z" fill="#72361B"/>
<path id="face" d="M1081.24 559.443C1081.24 492.365 1026.92 437.988 959.902 437.988C892.886 437.988 838.558 492.365 838.558 559.443V633.082C838.558 700.16 892.886 754.537 959.902 754.537C1026.92 754.537 1081.24 700.16 1081.24 633.082V559.443Z" fill="#F0BEB4"/>
<g id="collar">
<path id="Vector_16" d="M1016.42 745.904C1016.42 712.365 989.259 685.177 955.751 685.177C922.243 685.177 895.079 712.365 895.079 745.904C895.079 779.443 922.243 806.632 955.751 806.632C989.259 806.632 1016.42 779.443 1016.42 745.904Z" fill="#DB9C94"/>
<path id="Vector_17" d="M1047.64 747.173C1047.64 707.144 1011.3 674.703 966.463 674.703H959.454C914.715 674.703 878.277 707.045 878.277 747.173C878.282 752.199 878.865 757.208 880.017 762.1V814.966C880.017 822.18 889.959 825.788 895.75 820.688L912.378 806.084C926.476 814.949 942.806 819.609 959.454 819.518H966.513C982.982 819.601 999.142 815.04 1013.14 806.358L1029.62 820.688C1035.49 825.663 1045.5 822.18 1045.5 814.966V763.841C1046.95 758.403 1047.68 752.8 1047.69 747.173H1047.64Z" fill="#7C1826"/>
<path id="Vector_18" d="M1047.64 740.307C1047.64 700.303 1011.3 667.862 966.463 667.862H959.454C914.715 667.862 878.277 700.203 878.277 740.307C878.272 745.374 878.856 750.425 880.017 755.358V808.224C880.017 815.438 889.959 819.046 895.75 813.946L912.378 799.342C926.476 808.207 942.806 812.868 959.454 812.776H966.513C982.982 812.859 999.142 808.298 1013.14 799.616L1029.62 813.946C1035.49 818.921 1045.5 815.438 1045.5 808.224V757C1046.95 751.554 1047.69 745.942 1047.69 740.307H1047.64Z" fill="#971B1F"/>
<path id="Vector_19" d="M1022.74 742.073C1022.74 708.534 995.572 681.346 962.064 681.346C928.556 681.346 901.392 708.534 901.392 742.073C901.392 775.612 928.556 802.8 962.064 802.8C995.572 802.8 1022.74 775.612 1022.74 742.073Z" fill="#DB9C94"/>
<path id="Vector_20" d="M962.586 766.13C1001.82 766.13 1033.62 737.594 1033.62 702.392C1033.62 667.191 1001.82 638.655 962.586 638.655C923.354 638.655 891.55 667.191 891.55 702.392C891.55 737.594 923.354 766.13 962.586 766.13Z" fill="#D68C87"/>
<path id="Vector_21" d="M976.281 804.542H948.294V904.054H976.281V804.542Z" fill="#971B1F"/>
</g>
<g id="left-eyebrow">
<path id="Vector_22" d="M923.812 541.282H883.173C880.723 541.275 878.343 540.463 876.399 538.971C874.455 537.479 873.054 535.389 872.411 533.022C872.142 533.987 872 534.982 871.989 535.983C871.989 538.952 873.167 541.8 875.265 543.899C877.362 545.999 880.207 547.178 883.173 547.178H923.812C926.778 547.178 929.623 545.999 931.721 543.899C933.818 541.8 934.997 538.952 934.997 535.983C934.985 534.982 934.843 533.987 934.574 533.022C933.928 535.387 932.526 537.474 930.582 538.966C928.639 540.458 926.261 541.271 923.812 541.282Z" fill="#DDA69C"/>
<path id="Vector_23" d="M923.837 522.399H883.173C876.996 522.399 871.989 527.412 871.989 533.595V533.619C871.989 539.802 876.996 544.815 883.173 544.815H923.837C930.014 544.815 935.021 539.802 935.021 533.619V533.595C935.021 527.412 930.014 522.399 923.837 522.399Z" fill="#72361B"/>
<path id="Vector_24" d="M923.812 538.645H883.174C880.723 538.638 878.343 537.826 876.399 536.334C874.455 534.842 873.054 532.752 872.411 530.385C872.144 531.35 872.002 532.345 871.989 533.346C871.985 534.817 872.272 536.274 872.833 537.634C873.394 538.994 874.218 540.229 875.257 541.269C876.297 542.31 877.531 543.134 878.889 543.695C880.248 544.257 881.704 544.544 883.174 544.541H923.812C925.282 544.544 926.737 544.257 928.096 543.695C929.454 543.134 930.689 542.31 931.728 541.269C932.767 540.229 933.591 538.994 934.152 537.634C934.713 536.274 935 534.817 934.997 533.346C934.984 532.345 934.842 531.35 934.574 530.385C933.928 532.75 932.526 534.837 930.582 536.329C928.639 537.82 926.261 538.634 923.812 538.645Z" fill="#5F220E"/>
<path id="Vector_25" d="M915.436 526.081H891.575C890.106 526.081 888.915 527.273 888.915 528.743V528.768C888.915 530.238 890.106 531.43 891.575 531.43H915.436C916.904 531.43 918.095 530.238 918.095 528.768V528.743C918.095 527.273 916.904 526.081 915.436 526.081Z" fill="#885238"/>
</g>
<g id="right-eyebrow">
<path id="Vector_26" d="M1043.32 541.381H1002.68C1000.23 541.379 997.844 540.568 995.899 539.076C993.954 537.583 992.554 535.491 991.915 533.122C991.597 534.104 991.413 535.125 991.368 536.157C991.375 539.128 992.559 541.976 994.66 544.075C996.762 546.174 999.609 547.352 1002.58 547.352H1043.32C1046.28 547.352 1049.13 546.173 1051.22 544.073C1053.32 541.974 1054.5 539.126 1054.5 536.157C1054.49 535.154 1054.34 534.157 1054.05 533.197C1053.41 535.549 1052 537.624 1050.06 539.103C1048.12 540.581 1045.75 541.382 1043.32 541.381Z" fill="#DDA69C"/>
<path id="Vector_27" d="M1043.34 522.499H1002.68C996.5 522.499 991.492 527.511 991.492 533.694V533.719C991.492 539.902 996.5 544.914 1002.68 544.914H1043.34C1049.52 544.914 1054.53 539.902 1054.53 533.719V533.694C1054.53 527.511 1049.52 522.499 1043.34 522.499Z" fill="#72361B"/>
<path id="Vector_28" d="M1043.32 538.645H1002.68C1000.23 538.642 997.844 537.832 995.899 536.339C993.954 534.846 992.554 532.754 991.915 530.385C991.638 531.348 991.487 532.344 991.468 533.346C991.474 536.317 992.658 539.165 994.76 541.264C996.861 543.362 999.709 544.541 1002.68 544.541H1043.32C1046.28 544.541 1049.13 543.362 1051.22 541.262C1053.32 539.163 1054.5 536.315 1054.5 533.346C1054.49 532.343 1054.34 531.346 1054.05 530.385C1053.42 532.752 1052.02 534.844 1050.08 536.337C1048.14 537.83 1045.76 538.641 1043.32 538.645Z" fill="#5F220E"/>
<path id="Vector_29" d="M1034.91 526.181H1011.05C1009.58 526.181 1008.39 527.373 1008.39 528.843V528.868C1008.39 530.338 1009.58 531.53 1011.05 531.53H1034.91C1036.38 531.53 1037.57 530.338 1037.57 528.868V528.843C1037.57 527.373 1036.38 526.181 1034.91 526.181Z" fill="#885238"/>
</g>
<g id="nose">
<path id="Vector_30" d="M962.064 606.96C957.489 606.962 953.075 608.649 949.664 611.701C946.254 614.752 944.085 618.954 943.572 623.504C943.54 623.767 943.564 624.034 943.644 624.287C943.723 624.54 943.855 624.773 944.032 624.971C944.208 625.168 944.425 625.326 944.667 625.434C944.909 625.541 945.171 625.596 945.436 625.594H978.717C978.98 625.592 979.239 625.535 979.478 625.426C979.717 625.317 979.931 625.159 980.104 624.961C980.278 624.764 980.408 624.532 980.486 624.281C980.564 624.03 980.588 623.765 980.556 623.504C980.043 618.954 977.874 614.752 974.463 611.701C971.053 608.649 966.639 606.962 962.064 606.96Z" fill="#ECB8B0"/>
<path id="Vector_31" d="M943.547 623.852C943.533 624.106 943.571 624.359 943.659 624.597C943.747 624.835 943.882 625.053 944.056 625.237C944.231 625.42 944.441 625.567 944.674 625.667C944.907 625.767 945.158 625.818 945.411 625.818H978.593C978.846 625.818 979.097 625.767 979.33 625.667C979.563 625.567 979.773 625.42 979.947 625.237C980.122 625.053 980.257 624.835 980.345 624.597C980.432 624.359 980.47 624.106 980.457 623.852H943.547Z" fill="#DDA69C"/>
<path id="Vector_32" d="M972.603 617.832H951.55C950.452 617.832 949.562 618.723 949.562 619.822C949.562 620.921 950.452 621.812 951.55 621.812H972.603C973.701 621.812 974.591 620.921 974.591 619.822C974.591 618.723 973.701 617.832 972.603 617.832Z" fill="#EFC5BD"/>
</g>
<g id="Beard">
<path id="Vector_33" d="M844.3 629.127C842.788 629.12 841.335 629.713 840.259 630.776C839.183 631.839 838.571 633.285 838.558 634.799C838.558 667.011 851.343 697.903 874.099 720.68C896.855 743.457 927.719 756.253 959.902 756.253C992.084 756.253 1022.95 743.457 1045.7 720.68C1068.46 697.903 1081.24 667.011 1081.24 634.799C1081.23 633.285 1080.62 631.839 1079.54 630.776C1078.47 629.713 1077.02 629.12 1075.5 629.127H844.3Z" fill="#72361B"/>
<path id="Vector_34" d="M1080.85 633.182C1078.78 663.907 1065.13 692.7 1042.66 713.733C1020.18 734.766 990.569 746.47 959.802 746.476C929.052 746.445 899.461 734.73 877.01 713.699C854.559 692.668 840.923 663.89 838.857 633.182C838.667 633.743 838.566 634.331 838.558 634.923C838.558 667.135 851.343 698.027 874.099 720.805C896.855 743.582 927.719 756.378 959.902 756.378C992.084 756.378 1022.95 743.582 1045.7 720.805C1068.46 698.027 1081.24 667.135 1081.24 634.923C1081.2 634.325 1081.07 633.737 1080.85 633.182Z" fill="#5F220E"/>
<path id="Vector_35" d="M927.242 711.771H903.381C901.912 711.771 900.721 712.963 900.721 714.433V714.458C900.721 715.928 901.912 717.12 903.381 717.12H927.242C928.711 717.12 929.901 715.928 929.901 714.458V714.433C929.901 712.963 928.711 711.771 927.242 711.771Z" fill="#885238"/>
<path id="Vector_36" d="M880.017 638.207H856.156C854.687 638.207 853.496 639.399 853.496 640.869V640.894C853.496 642.364 854.687 643.556 856.156 643.556H880.017C881.486 643.556 882.676 642.364 882.676 640.894V640.869C882.676 639.399 881.486 638.207 880.017 638.207Z" fill="#885238"/>
</g>
<g id="mouth">
<path id="Vector_37" d="M924.259 642.685C920.808 642.691 917.417 643.595 914.421 645.31C911.425 647.025 908.926 649.49 907.17 652.465C905.415 655.439 904.463 658.82 904.409 662.274C904.355 665.728 905.2 669.137 906.861 672.166C912.685 682.412 921.116 690.931 931.297 696.858C941.478 702.784 953.045 705.906 964.823 705.906C976.601 705.906 988.168 702.784 998.349 696.858C1008.53 690.931 1016.96 682.412 1022.79 672.166C1024.45 669.137 1025.29 665.728 1025.24 662.274C1025.18 658.82 1024.23 655.439 1022.48 652.465C1020.72 649.49 1018.22 647.025 1015.23 645.31C1012.23 643.595 1008.84 642.691 1005.39 642.685H924.259Z" fill="#790410"/>
<path id="Vector_38" d="M1022.71 666.667C1016.89 676.914 1008.46 685.433 998.274 691.36C988.093 697.286 976.526 700.408 964.748 700.408C952.971 700.408 941.403 697.286 931.222 691.36C921.041 685.433 912.61 676.914 906.786 666.667C905.575 664.54 904.782 662.201 904.45 659.776C903.786 664.068 904.61 668.458 906.786 672.215C912.61 682.461 921.041 690.981 931.222 696.908C941.403 702.834 952.971 705.956 964.748 705.956C976.526 705.956 988.093 702.834 998.274 696.908C1008.46 690.981 1016.89 682.461 1022.71 672.215C1024.89 668.458 1025.71 664.068 1025.05 659.776C1024.73 662.204 1023.93 664.545 1022.71 666.667Z" fill="#5F0613"/>
<path id="Vector_39" d="M996.563 693.61C996.563 687.012 993.944 680.685 989.283 676.019C984.622 671.353 978.3 668.732 971.708 668.732H905.195C905.602 669.894 906.109 671.018 906.711 672.091C915.308 687.233 929.481 698.409 946.202 703.229C962.922 708.05 980.863 706.134 996.19 697.889C996.437 696.476 996.561 695.045 996.563 693.61Z" fill="#C55159"/>
<path id="Teeth" d="M906.065 653.557V654.03C906.065 656.94 909.247 659.304 913.149 659.304H1017.34C1018.73 659.406 1020.12 659.091 1021.34 658.4C1022.55 657.709 1023.53 656.673 1024.15 655.423C1022.67 651.663 1020.1 648.436 1016.76 646.164C1013.42 643.891 1009.47 642.679 1005.44 642.685H923.911C920.225 642.679 916.609 643.69 913.46 645.608C910.311 647.526 907.753 650.277 906.065 653.557Z" fill="white"/>
<path id="Vector_40" d="M996.165 693.461C980.838 701.588 962.993 703.562 946.263 698.982C929.533 694.401 915.176 683.611 906.115 668.807H905.195C905.602 669.969 906.109 671.092 906.711 672.166C915.308 687.307 929.481 698.483 946.202 703.304C962.922 708.125 980.863 706.208 996.19 697.964C996.449 696.527 996.582 695.07 996.588 693.61C996.588 692.839 996.588 692.093 996.588 691.347C996.339 692.043 996.339 692.889 996.165 693.461Z" fill="#B34C56"/>
</g>
<g id="eyes">
<path id="left-eye" d="M915.311 569.867C915.311 564.467 910.938 560.09 905.543 560.09C900.148 560.09 895.775 564.467 895.775 569.867V583.525C895.775 588.925 900.148 593.302 905.543 593.302C910.938 593.302 915.311 588.925 915.311 583.525V569.867Z" fill="#231F20"/>
<path id="right-eye" d="M1027.51 569.867C1027.51 564.467 1023.13 560.09 1017.74 560.09C1012.34 560.09 1007.97 564.467 1007.97 569.867V583.525C1007.97 588.925 1012.34 593.302 1017.74 593.302C1023.13 593.302 1027.51 588.925 1027.51 583.525V569.867Z" fill="#231F20"/>
</g>
<g id="glasses">
<path id="Vector_41" d="M987.665 550.661H868.956C867.269 550.661 865.65 551.332 864.457 552.526C863.264 553.721 862.593 555.341 862.593 557.03V587.879C862.593 608.378 882.627 625.196 907.333 625.196C932.039 625.196 952.072 608.503 952.072 587.879V563.722H973.97V587.879C973.97 608.378 994.003 625.196 1018.71 625.196C1043.42 625.196 1063.45 608.503 1063.45 587.879V557.03C1063.45 555.341 1062.78 553.721 1061.58 552.526C1060.39 551.332 1058.77 550.661 1057.09 550.661H987.665ZM936.239 587.978C936.239 601.288 923.24 612.11 907.258 612.11C891.276 612.11 878.277 601.288 878.277 587.978V563.822H936.239V587.978ZM1047.64 587.978C1047.64 601.288 1034.64 612.11 1018.66 612.11C1002.68 612.11 989.678 601.288 989.678 587.978V563.822H1047.64V587.978Z" fill="#971B1F"/>
<path id="Vector_42" d="M933.505 553.174H909.371C907.861 553.174 906.637 554.399 906.637 555.91C906.637 557.422 907.861 558.647 909.371 558.647H933.505C935.015 558.647 936.239 557.422 936.239 555.91C936.239 554.399 935.015 553.174 933.505 553.174Z" fill="#B24048"/>
<path id="Vector_43" d="M1049.6 554.617H1025.47C1023.96 554.617 1022.74 555.842 1022.74 557.353C1022.74 558.865 1023.96 560.09 1025.47 560.09H1049.6C1051.11 560.09 1052.34 558.865 1052.34 557.353C1052.34 555.842 1051.11 554.617 1049.6 554.617Z" fill="#B24048"/>
<path id="Vector_44" d="M869.727 566.956C869.226 566.956 868.745 566.757 868.391 566.402C868.037 566.048 867.838 565.567 867.838 565.065C867.838 562.298 868.934 559.645 870.887 557.686C872.839 555.727 875.488 554.623 878.252 554.617C878.753 554.617 879.234 554.816 879.588 555.17C879.942 555.525 880.141 556.006 880.141 556.507C880.141 557.011 879.943 557.495 879.589 557.853C879.236 558.212 878.755 558.416 878.252 558.423C876.492 558.423 874.804 559.123 873.559 560.368C872.315 561.614 871.616 563.304 871.616 565.065C871.616 565.567 871.417 566.048 871.063 566.402C870.708 566.757 870.228 566.956 869.727 566.956Z" fill="#B24048"/>
<path id="Vector_45" d="M982.346 566.26C981.845 566.26 981.364 566.06 981.01 565.706C980.656 565.351 980.457 564.87 980.457 564.369C980.463 561.606 981.563 558.959 983.514 557.005C985.466 555.052 988.111 553.952 990.871 553.945C991.372 553.945 991.853 554.144 992.207 554.499C992.561 554.853 992.76 555.334 992.76 555.836C992.76 556.337 992.561 556.818 992.207 557.173C991.853 557.527 991.372 557.726 990.871 557.726C989.113 557.733 987.429 558.435 986.186 559.679C984.943 560.923 984.241 562.609 984.235 564.369C984.235 564.87 984.036 565.351 983.682 565.706C983.327 566.06 982.847 566.26 982.346 566.26Z" fill="#B24048"/>
<path id="Vector_46" d="M932.138 607.98C932.195 608.48 932.445 608.938 932.836 609.254C933.226 609.571 933.726 609.721 934.226 609.672C936.975 609.371 939.494 607.993 941.231 605.84C942.968 603.686 943.783 600.931 943.497 598.178C943.424 597.697 943.169 597.263 942.784 596.965C942.399 596.668 941.914 596.531 941.43 596.582C940.947 596.633 940.502 596.869 940.188 597.241C939.873 597.612 939.715 598.09 939.744 598.576C939.925 600.331 939.404 602.085 938.295 603.456C937.187 604.827 935.58 605.702 933.828 605.89C933.329 605.947 932.872 606.198 932.555 606.589C932.239 606.98 932.089 607.479 932.138 607.98Z" fill="#B24048"/>
<path id="Vector_47" d="M1041.95 607.98C1042 608.478 1042.24 608.935 1042.63 609.253C1043.02 609.57 1043.51 609.72 1044.01 609.672C1046.77 609.377 1049.29 608.002 1051.03 605.847C1052.77 603.693 1053.59 600.935 1053.31 598.178C1053.25 597.677 1053.01 597.217 1052.61 596.899C1052.22 596.582 1051.72 596.434 1051.22 596.486C1050.72 596.539 1050.26 596.789 1049.94 597.181C1049.63 597.573 1049.48 598.075 1049.53 598.576C1049.7 600.328 1049.16 602.073 1048.04 603.431C1046.92 604.788 1045.31 605.646 1043.56 605.816C1043.31 605.849 1043.08 605.932 1042.86 606.059C1042.64 606.187 1042.45 606.356 1042.3 606.558C1042.15 606.76 1042.04 606.989 1041.98 607.233C1041.92 607.478 1041.91 607.731 1041.95 607.98Z" fill="#B24048"/>
<g id="left-glass-shade" opacity="0.3">
<path id="Vector_48" opacity="0.3" d="M901.467 563.822L878.277 587.058V587.978C878.331 591.1 879.048 594.174 880.381 596.996C881.714 599.819 883.631 602.325 886.007 604.348L926.471 563.822H901.467Z" fill="white"/>
<path id="Vector_49" opacity="0.3" d="M914.714 550.76L914.615 550.661L914.516 550.76H914.714Z" fill="white"/>
</g>
<g id="right-glass-shade" opacity="0.3">
<path id="Vector_50" opacity="0.3" d="M1012.87 563.822L989.678 587.058V587.978C989.737 591.099 990.456 594.171 991.788 596.993C993.121 599.815 995.036 602.322 997.408 604.348L1037.87 563.822H1012.87Z" fill="white"/>
<path id="Vector_51" opacity="0.3" d="M1026.14 550.76L1026.04 550.661L1025.92 550.76H1026.14Z" fill="white"/>
</g>
</g>
<g id="right-arm">
<path id="Vector_52" d="M1105.35 727.328L1081.44 733.336C1065.26 737.4 1055.44 753.821 1059.5 770.012L1126.22 1036.07C1130.28 1052.26 1146.68 1062.09 1162.86 1058.02L1186.78 1052.02C1202.95 1047.95 1212.77 1031.53 1208.71 1015.34L1142 749.287C1137.94 733.096 1121.53 723.264 1105.35 727.328Z" fill="#BE1E2D"/>
<path id="Vector_53" d="M972.926 1030.51V1038.89C972.926 1055.59 986.446 1069.12 1003.12 1069.12H1180.84C1197.52 1069.12 1211.04 1055.59 1211.04 1038.89V1030.51C1211.04 1013.82 1197.52 1000.28 1180.84 1000.28H1003.12C986.446 1000.28 972.926 1013.82 972.926 1030.51Z" fill="#BE1E2D"/>
</g>
<g id="left-arm">
<path id="Vector_54" d="M725.144 1013.14H687.613C672.54 1013.14 660.322 1025.37 660.322 1040.46C660.322 1055.55 672.54 1067.78 687.613 1067.78H725.144C740.216 1067.78 752.435 1055.55 752.435 1040.46C752.435 1025.37 740.216 1013.14 725.144 1013.14Z" fill="#ECB9A6"/>
<path id="Vector_55" d="M726.842 1047.99L742.433 1058.21C756.383 1067.36 775.102 1063.46 784.245 1049.5L836.004 970.454C845.146 956.491 841.249 937.755 827.299 928.604L811.708 918.376C797.758 909.226 779.039 913.126 769.896 927.089L718.137 1006.14C708.995 1020.1 712.892 1038.84 726.842 1047.99Z" fill="#BE1E2D"/>
<path id="Vector_56" d="M781.525 982.283L810.507 987.101C826.96 989.836 842.514 978.704 845.246 962.235L877.727 766.489C880.46 750.021 869.337 734.454 852.884 731.718L823.902 726.9C807.449 724.165 791.896 735.298 789.163 751.766L756.682 947.513C753.95 963.981 765.072 979.548 781.525 982.283Z" fill="#BE1E2D"/>
<path id="Vector_57" d="M857.622 737.023H817.804C814.757 737.023 812.286 739.495 812.286 742.546C812.286 745.596 814.757 748.069 817.804 748.069H857.622C860.67 748.069 863.14 745.596 863.14 742.546C863.14 739.495 860.67 737.023 857.622 737.023Z" fill="#DF1D3E"/>
<path id="Vector_58" d="M752.281 972.216L728.837 1004.43C727.043 1006.9 727.586 1010.35 730.049 1012.15C732.512 1013.94 735.963 1013.4 737.758 1010.93L761.201 978.72C762.996 976.254 762.453 972.8 759.99 971.004C757.527 969.208 754.076 969.751 752.281 972.216Z" fill="#DF1D3E"/>
</g>
<g id="left-hand">
<path id="Vector_59" d="M703.722 1026.71L667.394 990.346C663.036 985.983 655.97 985.983 651.612 990.346L651.594 990.363C647.236 994.725 647.236 1001.8 651.594 1006.16L687.922 1042.52C692.28 1046.88 699.346 1046.88 703.705 1042.52L703.722 1042.5C708.081 1038.14 708.081 1031.07 703.722 1026.71Z" fill="#ECB9A6"/>
<path id="finger-4" d="M609.078 1008.01L591.468 1025.64C587.896 1029.21 587.896 1035.01 591.468 1038.58C595.04 1042.16 600.831 1042.16 604.403 1038.58L622.014 1020.96C625.586 1017.38 625.586 1011.58 622.014 1008.01C618.442 1004.43 612.65 1004.43 609.078 1008.01Z" fill="#E0A0A1"/>
<path id="mouse" d="M708.789 1068.67C711.207 1068.68 713.589 1068.09 715.726 1066.95C717.863 1065.82 719.689 1064.18 721.044 1062.18C722.399 1060.17 723.241 1057.86 723.497 1055.46C723.752 1053.05 723.413 1050.62 722.509 1048.37C717.774 1036.44 709.568 1026.2 698.955 1018.99C688.341 1011.78 675.809 1007.93 662.981 1007.93C650.153 1007.93 637.621 1011.78 627.007 1018.99C616.394 1026.2 608.188 1036.44 603.453 1048.37C602.586 1050.62 602.276 1053.05 602.549 1055.44C602.822 1057.83 603.67 1060.13 605.02 1062.12C606.371 1064.12 608.184 1065.75 610.305 1066.89C612.425 1068.04 614.79 1068.65 617.198 1068.67H708.789Z" fill="#353635"/>
<path id="finger-3" d="M630.776 997.588L602.849 1025.54C598.49 1029.9 598.49 1036.98 602.849 1041.34L602.866 1041.36C607.224 1045.72 614.291 1045.72 618.649 1041.36L646.576 1013.4C650.934 1009.04 650.934 1001.97 646.576 997.606L646.558 997.588C642.2 993.226 635.134 993.226 630.776 997.588Z" fill="#E5A6A3"/>
<path id="finger-2" d="M651.296 990.335L614.968 1026.7C610.61 1031.06 610.61 1038.13 614.968 1042.49L614.985 1042.51C619.344 1046.87 626.41 1046.87 630.768 1042.51L667.096 1006.15C671.454 1001.79 671.454 994.715 667.096 990.353L667.079 990.335C662.72 985.973 655.654 985.973 651.296 990.335Z" fill="#ECB8B0"/>
<path id="click-finger" d="M700.287 1000.11L655.381 953.565C650.623 948.633 642.775 948.491 637.852 953.249C632.929 958.007 632.796 965.862 637.554 970.794L682.46 1017.34C687.218 1022.27 695.066 1022.42 699.988 1017.66C704.911 1012.9 705.045 1005.05 700.287 1000.11Z" fill="#F0BEB4"/>
<path id="finger-1" d="M743.039 1042.1L702.41 1001.44C696.908 995.93 688.525 995.392 683.687 1000.24C678.848 1005.08 679.386 1013.47 684.888 1018.98L725.516 1059.64C731.018 1065.15 739.401 1065.69 744.24 1060.84C749.078 1056 748.541 1047.61 743.039 1042.1Z" fill="#F0BEB4"/>
<path id="thumb" d="M732.625 1044.62H682.045C675.195 1044.62 669.642 1050.17 669.642 1057.02C669.642 1063.87 675.195 1069.42 682.045 1069.42H732.625C739.475 1069.42 745.028 1063.87 745.028 1057.02C745.028 1050.17 739.475 1044.62 732.625 1044.62Z" fill="#F0BEB4"/>
</g>
<g id="laptop">
<path id="Vector_60" d="M1114.08 866.389H848.451C817.235 866.389 791.93 891.717 791.93 922.961V1013.72C791.93 1044.96 817.235 1070.29 848.451 1070.29H1114.08C1145.29 1070.29 1170.6 1044.96 1170.6 1013.72V922.961C1170.6 891.717 1145.29 866.389 1114.08 866.389Z" fill="#48484A"/>
<path id="Vector_61" d="M1107.07 847.83H855.46C820.373 847.83 791.93 876.299 791.93 911.418V988.142C791.93 1023.26 820.373 1051.73 855.46 1051.73H1107.07C1142.16 1051.73 1170.6 1023.26 1170.6 988.142V911.418C1170.6 876.299 1142.16 847.83 1107.07 847.83Z" fill="#58595B"/>
<path id="Vector_62" d="M981.128 977.096C997.573 977.096 1010.9 963.752 1010.9 947.292C1010.9 930.832 997.573 917.488 981.128 917.488C964.683 917.488 951.351 930.832 951.351 947.292C951.351 963.752 964.683 977.096 981.128 977.096Z" fill="#77171E"/>
<path id="Vector_63" d="M981.277 972.469C995.087 972.469 1006.28 961.264 1006.28 947.441C1006.28 933.619 995.087 922.414 981.277 922.414C967.468 922.414 956.273 933.619 956.273 947.441C956.273 961.264 967.468 972.469 981.277 972.469Z" fill="#971B1F"/>
<path id="Vector_64" d="M995.792 947.441C995.792 950.321 994.939 953.136 993.34 955.53C991.741 957.923 989.469 959.789 986.811 960.89C984.152 961.99 981.228 962.277 978.406 961.714C975.585 961.15 972.994 959.761 970.962 957.724C968.929 955.686 967.546 953.09 966.988 950.265C966.43 947.441 966.721 944.514 967.826 941.855C968.93 939.196 970.798 936.925 973.192 935.328C975.586 933.732 978.4 932.883 981.277 932.888C983.215 932.895 985.132 933.284 986.919 934.032C989.551 935.147 991.796 937.014 993.375 939.398C994.953 941.783 995.794 944.581 995.792 947.441Z" fill="white"/>
</g>
<g id="Hair">
<path id="Vector_65" d="M955.974 424.387C949.99 424.461 944.099 425.778 938.726 428.242C933.352 430.706 928.632 434.256 924.905 438.636C921.109 434.261 916.332 430.717 910.913 428.255C905.493 425.794 899.562 424.473 893.538 424.387C869.18 424.387 849.42 445.888 849.42 472.386C849.42 498.885 869.18 520.409 893.538 520.409C900.378 520.271 907.079 518.575 913.06 515.469C919.042 512.362 924.123 507.938 927.863 502.581C931.525 506.094 935.895 508.894 940.719 510.821C945.544 512.748 950.728 513.763 955.974 513.808H1025.97C1049.45 513.808 1068.52 493.794 1068.52 469.109V424.387H955.974Z" fill="#DDA69C"/>
<path id="Vector_66" d="M955.154 417.413C948.598 417.414 942.113 418.68 936.104 421.131C930.095 423.583 924.692 427.168 920.233 431.662C915.704 427.176 910.246 423.598 904.19 421.149C898.135 418.699 891.61 417.428 885.013 417.413C857.672 417.413 835.427 438.914 835.427 465.413C835.427 491.912 857.622 513.436 885.013 513.436C892.467 513.411 899.816 511.791 906.498 508.701C913.18 505.611 919.017 501.132 923.563 495.608C932.266 502.845 943.508 506.841 955.154 506.835H1033.8C1046.47 506.835 1058.63 502.125 1067.59 493.743C1076.56 485.36 1081.59 473.991 1081.59 462.136V417.413H955.154Z" fill="#5F220E"/>
<path id="Vector_67" d="M955.154 407.093C948.607 407.077 942.127 408.324 936.118 410.756C930.11 413.187 924.702 416.752 920.233 421.226C915.703 416.742 910.244 413.168 904.188 410.723C898.133 408.277 891.609 407.01 885.013 407C857.672 407 835.427 428.478 835.427 455C835.427 481.521 857.622 502.999 885.013 502.999C892.467 502.976 899.817 501.357 906.499 498.267C913.181 495.176 919.018 490.697 923.563 485.171C932.272 492.399 943.51 496.393 955.154 496.398H1033.8C1046.47 496.398 1058.63 491.688 1067.59 483.306C1076.56 474.923 1081.59 463.554 1081.59 451.699V407.093H955.154Z" fill="#72361B"/>
<path id="Vector_68" d="M1020.35 417.785H962.884C956.707 417.785 951.699 422.468 951.699 428.245V428.269C951.699 434.045 956.707 438.729 962.884 438.729H1020.35C1026.53 438.729 1031.53 434.045 1031.53 428.269V428.245C1031.53 422.468 1026.53 417.785 1020.35 417.785Z" fill="#885238"/>
<path id="Vector_69" d="M859.636 461.578C858.185 461.578 856.795 461.039 855.769 460.08C854.744 459.121 854.167 457.82 854.167 456.464C854.154 448.988 857.314 441.813 862.953 436.513C868.591 431.214 876.248 428.223 884.242 428.199C885.692 428.199 887.083 428.738 888.109 429.697C889.134 430.656 889.71 431.956 889.71 433.313C889.71 434.669 889.134 435.97 888.109 436.929C887.083 437.888 885.692 438.426 884.242 438.426C879.151 438.433 874.27 440.328 870.673 443.697C867.075 447.066 865.054 451.633 865.054 456.394C865.067 457.753 864.505 459.061 863.489 460.032C862.474 461.004 861.088 461.559 859.636 461.578Z" fill="#885238"/>
</g>
<g id="cat">
<path id="body-cat" d="M383.452 1068.44H107V1068.44C107 1044.44 116.535 1021.41 133.508 1004.43C150.481 987.457 173.502 977.919 197.505 977.919C247.877 962.215 313.584 967.254 383.452 977.919V1068.44Z" fill="#DC5A66"/>
<path id="back-arm-cat" d="M343.959 1048.69H473.958C475.038 1048.69 476.108 1048.91 477.106 1049.32C478.105 1049.73 479.012 1050.34 479.776 1051.1C480.54 1051.87 481.146 1052.78 481.559 1053.77C481.973 1054.77 482.185 1055.84 482.185 1056.92C482.185 1059.11 481.319 1061.2 479.776 1062.74C478.233 1064.29 476.14 1065.15 473.958 1065.15H343.959V1048.69Z" fill="#3F3D56"/>
<path id="rightear-cat" d="M366.474 900.442L401.319 858.194C402.122 856.519 403.416 855.127 405.029 854.206C406.642 853.284 408.497 852.875 410.348 853.033C412.199 853.192 413.958 853.911 415.39 855.094C416.823 856.277 417.861 857.868 418.368 859.656L432.109 908.181L366.474 900.442Z" fill="#3F3D56"/>
<path id="leftear-cat" d="M324.213 921.958L337.377 868.797C337.377 866.939 337.943 865.125 338.999 863.596C340.055 862.067 341.551 860.896 343.289 860.239C345.027 859.582 346.923 859.47 348.726 859.917C350.529 860.364 352.153 861.35 353.382 862.744L386.744 900.561L324.213 921.958Z" fill="#DC5A66"/>
<g id="tail">
<path id="tail-cat" d="M107 1068.44H133.329V1124.41C133.329 1127.86 132.648 1131.29 131.325 1134.48C130.002 1137.68 128.062 1140.58 125.617 1143.03C123.172 1145.47 120.27 1147.41 117.076 1148.74C113.881 1150.06 110.458 1150.74 107 1150.74V1068.44L107 1068.44Z" fill="#DC5A66"/>
<path id="Vector_70" d="M121 1091.88L121 1123.51C121 1125.93 122.576 1127.89 124.52 1127.89C126.463 1127.89 128.039 1125.93 128.039 1123.51L128.039 1091.89C128.039 1089.47 126.463 1087.5 124.52 1087.5C122.576 1087.5 121 1089.46 121 1091.88Z" fill="#E97883"/>
</g>
<path id="front-arm-cat" d="M339.023 1051.99H469.021C470.102 1051.99 471.172 1052.2 472.17 1052.61C473.168 1053.03 474.075 1053.63 474.839 1054.4C475.603 1055.16 476.209 1056.07 476.623 1057.07C477.036 1058.06 477.249 1059.13 477.249 1060.21C477.249 1061.3 477.036 1062.37 476.623 1063.36C476.209 1064.36 475.603 1065.27 474.839 1066.03C474.075 1066.8 473.168 1067.4 472.17 1067.82C471.172 1068.23 470.102 1068.44 469.021 1068.44H339.023V1051.99Z" fill="#DC5A66"/>
<path id="face-cat" d="M383.452 1068.44C432.528 1068.44 472.312 1028.65 472.312 979.565C472.312 930.479 432.528 890.686 383.452 890.686C334.377 890.686 294.593 930.479 294.593 979.565C294.593 1028.65 334.377 1068.44 383.452 1068.44Z" fill="#DC5A66"/>
<path id="Vector_71" d="M340.468 957.379C339.018 957.379 337.627 956.84 336.602 955.881C335.576 954.922 335 953.621 335 952.265C334.987 944.789 338.146 937.614 343.785 932.314C349.424 927.015 357.081 924.025 365.075 924C366.525 924 367.916 924.539 368.941 925.498C369.967 926.457 370.543 927.758 370.543 929.114C370.543 930.47 369.967 931.771 368.941 932.73C367.916 933.689 366.525 934.228 365.075 934.228C359.984 934.234 355.103 936.129 351.505 939.498C347.907 942.867 345.887 947.434 345.887 952.195C345.9 953.554 345.337 954.862 344.322 955.833C343.306 956.805 341.921 957.361 340.468 957.379Z" fill="#E97883"/>
<path id="nose-cat" d="M469.021 1009.19C474.474 1009.19 478.894 998.875 478.894 986.149C478.894 973.423 474.474 963.106 469.021 963.106C463.568 963.106 459.148 973.423 459.148 986.149C459.148 998.875 463.568 1009.19 469.021 1009.19Z" fill="#3F3D56"/>
<path id="left-eye-cat" d="M445.161 968.044C446.524 968.044 447.629 965.464 447.629 962.283C447.629 959.101 446.524 956.522 445.161 956.522C443.797 956.522 442.692 959.101 442.692 962.283C442.692 965.464 443.797 968.044 445.161 968.044Z" fill="#3F3D56"/>
<path id="right-eye-cat" d="M463.262 956.522C464.625 956.522 465.73 953.943 465.73 950.762C465.73 947.58 464.625 945.001 463.262 945.001C461.898 945.001 460.793 947.58 460.793 950.762C460.793 953.943 461.898 956.522 463.262 956.522Z" fill="#3F3D56"/>
<path id="hair2" d="M375.997 889.697C375.997 889.697 371.058 881.104 371.058 875.861L375.997 889.697Z" fill="#3F3D56"/>
<path id="hair" d="M378.17 884.139C378.17 884.139 380.861 874.599 384.609 870.935L378.17 884.139Z" fill="#3F3D56"/>
</g>
</svg>
