<svg width="1472" height="1004" viewBox="0 0 1472 1004" fill="none" xmlns="http://www.w3.org/2000/svg">
<g id="helpdesk">
<path id="Backgroud" opacity="0.1" d="M1448.49 867.655C1442.81 883.767 1435.81 899.226 1427.6 913.826C1423.75 920.787 1419.52 927.467 1414.94 933.824C1414.9 933.889 1414.86 933.948 1414.8 934H0L0.190957 933.824C1.46401 932.683 8.93681 925.734 20.5598 913.826C28.8982 905.297 39.3627 894.207 51.113 880.865C147.215 772.24 331.82 515.125 178.074 279.588C35.1489 60.6271 189.035 20.893 290.548 16.2555C329.55 14.4996 368.459 21.8092 404.944 37.7464C451.844 58.2278 537.558 89.623 649.23 104.018C652.896 104.487 656.588 104.955 660.331 105.379C719.454 112.297 778.975 113.54 838.278 109.095C840.022 108.978 841.779 108.832 843.548 108.685C902.213 103.951 960.432 93.6017 1017.6 77.7437C1021.3 76.705 1024.96 75.7248 1028.6 74.7446C1219.09 24.0969 1394.69 196.712 1350.78 391.783C1334.55 463.936 1338.68 540.844 1392.79 603.064C1481.4 704.622 1470.67 804.645 1448.49 867.655Z" fill="#6C63FF"/>
<g id="plant">
<path id="Vector" d="M220.979 811.101C210.395 851.439 173.31 876.648 173.31 876.648C173.31 876.648 153.384 836.455 163.967 796.116C174.55 755.777 211.636 730.568 211.636 730.568C211.636 730.568 231.562 770.762 220.979 811.101Z" fill="#2975A0"/>
<path id="Vector_2" d="M204.926 802.567C175.284 831.879 171.967 876.625 171.967 876.625C171.967 876.625 216.711 873.848 246.354 844.536C275.996 815.224 279.313 770.478 279.313 770.478C279.313 770.478 234.569 773.255 204.926 802.567Z" fill="#45B0ED"/>
<path id="Vector_3" d="M242.099 864.837H126.148C113.43 864.837 103.12 875.156 103.12 887.886V910.788C103.12 923.518 113.43 933.837 126.148 933.837H242.099C254.817 933.837 265.127 923.518 265.127 910.788V887.886C265.127 875.156 254.817 864.837 242.099 864.837Z" fill="#45B0ED"/>
</g>
<g id="body">
<path id="hair" d="M781.323 28.8458C781.323 28.8458 588.16 -24.8792 531.028 235.687C473.895 496.253 517.425 627.879 517.425 627.879L948.64 578.183C948.64 578.183 1071.07 108.09 781.323 28.8458Z" fill="#72351C"/>
<path id="chest" d="M741.471 791.252C815.562 791.252 936.66 769.149 994.214 731.175C987.98 697.075 973.637 641.895 960.044 592.513C942.733 529.623 833.477 486.023 768.301 486.023H705.495C640.117 486.023 530.703 529.875 513.61 593.035C500.584 641.166 486.679 694.025 479.761 725.059C539.061 766.764 663.49 791.252 741.471 791.252Z" fill="#45B1ED"/>
<path id="colar" d="M737.187 479C707.231 479 658.27 485.734 635 497.305C637.521 507.695 643.32 524.507 648.815 539.553C655.814 558.715 699.988 572 726.34 572L751.733 572C778.166 572 822.404 558.639 829.314 539.395C834.581 524.729 840.203 508.624 843 499.168C819.024 486.461 768.716 479 737.187 479Z" fill="#2975A0"/>
<path id="neck-shadow" opacity="0.1" d="M680.8 396.309H793.656V486.673C793.656 501.652 787.711 516.017 777.129 526.609C766.546 537.201 752.194 543.151 737.228 543.151H737.228C722.262 543.151 707.91 537.201 697.328 526.609C686.745 516.017 680.8 501.652 680.8 486.673V396.309H680.8Z" fill="black"/>
<path id="neck" d="M696.988 392.125H777.468C781.761 392.125 785.879 393.832 788.915 396.871C791.95 399.909 793.656 404.03 793.656 408.327V482.49C793.656 497.468 787.711 511.834 777.129 522.425C766.546 533.017 752.194 538.967 737.228 538.967H737.228C722.263 538.967 707.91 533.017 697.328 522.425C686.745 511.834 680.8 497.468 680.8 482.49V408.327C680.8 404.03 682.506 399.909 685.542 396.871C688.577 393.832 692.695 392.125 696.988 392.125Z" fill="#FDA57D"/>
<path id="chin" opacity="0.1" d="M681.009 438.96C717.381 452.562 757.418 452.672 793.865 439.272V425.396H681.009V438.96Z" fill="black"/>
<path id="face" d="M737.646 446.523C826.983 446.523 899.406 374.037 899.406 284.62C899.406 195.204 826.983 122.717 737.646 122.717C648.308 122.717 575.886 195.204 575.886 284.62C575.886 374.037 648.308 446.523 737.646 446.523Z" fill="#FDA57D"/>
<path id="hair-bang" d="M818.795 90.9305C818.795 90.9305 750.706 222.755 583.888 277.474L556.652 160.574L818.795 90.9305Z" fill="#72351C"/>
<path id="left-ear" d="M575.822 312.705C584.132 312.705 590.869 300.062 590.869 284.466C590.869 268.87 584.132 256.227 575.822 256.227C567.511 256.227 560.775 268.87 560.775 284.466C560.775 300.062 567.511 312.705 575.822 312.705Z" fill="#FDA57D"/>
<path id="right-ear" d="M899.384 312.705C907.695 312.705 914.432 300.062 914.432 284.466C914.432 268.87 907.695 256.227 899.384 256.227C891.074 256.227 884.337 268.87 884.337 284.466C884.337 300.062 891.074 312.705 899.384 312.705Z" fill="#FDA57D"/>
</g>
<g id="desk">
<path id="bottom-layer" d="M1409.63 983.569H62.3729V1004H1409.63V983.569Z" fill="#D5D0D0"/>
<path id="middle-layer" opacity="0.1" d="M1409.63 983.569H62.3729V990.379H1409.63V983.569Z" fill="#0A0A0A"/>
<path id="top-layer" d="M1472 933.627H0V983.569H1472V933.627Z" fill="#CFCCCC"/>
</g>
<g id="cup">
<path id="handle" d="M1352.92 829.201C1347.09 829.201 1341.39 830.932 1336.54 834.175C1331.69 837.418 1327.92 842.027 1325.68 847.419C1323.45 852.812 1322.87 858.746 1324.01 864.47C1325.14 870.195 1327.95 875.453 1332.08 879.581C1336.2 883.708 1341.45 886.519 1347.17 887.657C1352.89 888.796 1358.82 888.212 1364.21 885.978C1369.6 883.744 1374.2 879.962 1377.44 875.109C1380.68 870.255 1382.41 864.55 1382.41 858.713C1382.41 850.886 1379.3 843.38 1373.77 837.845C1368.24 832.311 1360.74 829.201 1352.92 829.201ZM1352.92 876.874C1349.34 876.874 1345.83 875.809 1342.84 873.813C1339.86 871.818 1337.53 868.981 1336.16 865.663C1334.79 862.344 1334.43 858.693 1335.13 855.17C1335.83 851.647 1337.56 848.411 1340.09 845.871C1342.63 843.331 1345.86 841.602 1349.38 840.901C1352.9 840.2 1356.55 840.56 1359.87 841.934C1363.18 843.309 1366.02 845.637 1368.01 848.623C1370.01 851.61 1371.07 855.121 1371.07 858.713C1371.07 863.529 1369.16 868.149 1365.75 871.554C1362.35 874.96 1357.74 876.874 1352.92 876.874Z" fill="#45B0ED"/>
<path id="cup_2" d="M1239.52 806.5H1352.92V918.84C1352.92 922.761 1351.37 926.522 1348.6 929.296C1345.83 932.069 1342.07 933.627 1338.15 933.627H1254.29C1250.37 933.627 1246.62 932.069 1243.85 929.296C1241.08 926.522 1239.52 922.761 1239.52 918.84V806.5Z" fill="#45B0ED"/>
<path id="shadow" opacity="0.1" d="M1332.51 806.5V911.493C1332.51 917.363 1330.18 922.993 1326.03 927.144C1321.89 931.295 1316.26 933.627 1310.4 933.627H1321.74C1327.6 933.627 1333.23 931.295 1337.37 927.144C1341.52 922.993 1343.85 917.363 1343.85 911.493V806.5H1332.51Z" fill="black"/>
<path id="smoke" d="M1261.9 721.878C1259.99 722.206 1257.83 722.722 1256.89 724.423C1255.4 727.122 1258.1 730.165 1260.56 732.02C1265.1 735.446 1269.89 738.812 1272.98 743.595C1276.07 748.377 1277.04 755.051 1273.66 759.634C1269.26 765.619 1258.74 766.906 1257.72 774.272C1257.06 779.001 1261.15 783.036 1265.29 785.408C1275.5 791.265 1288.67 792.828 1296.07 801.992C1299.13 795.692 1305.98 792.051 1312.8 790.496C1319.63 788.941 1326.72 789.057 1333.64 788.002C1335.87 787.661 1338.39 786.979 1339.38 784.95C1341.32 781.021 1335.81 776.309 1337.71 772.365C1339.16 769.363 1343.41 769.596 1346.52 768.394C1351.57 766.437 1353.66 759.921 1352.22 754.687C1350.79 749.453 1346.73 745.362 1342.47 742.009C1330.98 732.97 1317.16 727.655 1303.18 723.832C1296.68 722.054 1289.05 719.265 1282.3 718.996C1275.78 718.735 1268.35 720.774 1261.9 721.878Z" fill="#EEEEEE"/>
</g>
<g id="eyebrows">
<ellipse id="left-eyebrow" rx="8.34027" ry="21.0501" transform="matrix(0.389045 0.921219 -0.920972 0.38963 681.707 247.967)" fill="#72351C"/>
<ellipse id="right-eyebrow" rx="8.34054" ry="21.0494" transform="matrix(-0.339314 0.940673 -0.940481 -0.339845 792.323 247.967)" fill="#72351C"/>
</g>
<g id="eyes">
<ellipse id="left-eye" cx="682.632" cy="285.124" rx="8.33398" ry="13.6496" fill="black"/>
<ellipse id="right-eye" cx="790.216" cy="285.124" rx="8.33401" ry="13.6496" fill="black"/>
</g>
<g id="pc">
<path id="pc_2" d="M996.995 579.489H475.005C452.547 579.489 434.342 597.711 434.342 620.188V892.928C434.342 915.405 452.547 933.627 475.005 933.627H996.995C1019.45 933.627 1037.66 915.405 1037.66 892.928V620.188C1037.66 597.711 1019.45 579.489 996.995 579.489Z" fill="#393942"/>
<path id="inner-circle" d="M737.515 775.472C748.789 775.472 757.928 766.325 757.928 755.041C757.928 743.758 748.789 734.61 737.515 734.61C726.242 734.61 717.102 743.758 717.102 755.041C717.102 766.325 726.242 775.472 737.515 775.472Z" fill="white"/>
<path id="outer-ring" d="M737.119 724.943C731.287 724.943 725.587 726.673 720.738 729.916C715.889 733.159 712.11 737.768 709.878 743.16C707.647 748.553 707.063 754.487 708.2 760.211C709.338 765.936 712.146 771.194 716.27 775.322C720.393 779.449 725.647 782.26 731.367 783.398C737.086 784.537 743.015 783.953 748.403 781.719C753.79 779.485 758.395 775.703 761.635 770.85C764.875 765.996 766.604 760.291 766.604 754.454C766.604 746.627 763.498 739.121 757.968 733.586C752.439 728.052 744.939 724.943 737.119 724.943ZM737.119 772.615C733.53 772.615 730.022 771.55 727.038 769.554C724.055 767.559 721.729 764.722 720.355 761.404C718.982 758.085 718.623 754.434 719.323 750.911C720.023 747.388 721.751 744.152 724.289 741.612C726.826 739.072 730.059 737.343 733.579 736.642C737.099 735.941 740.747 736.301 744.063 737.675C747.378 739.05 750.212 741.378 752.206 744.364C754.2 747.351 755.264 750.862 755.264 754.454C755.264 759.271 753.352 763.89 749.949 767.296C746.547 770.701 741.931 772.615 737.119 772.615Z" fill="#45B0ED"/>
</g>
<path id="mouth" d="M775 384C775 389.835 771.26 395.431 764.602 399.556C757.945 403.682 748.915 406 739.5 406C730.085 406 721.055 403.682 714.398 399.556C707.74 395.431 704 389.835 704 384L739.5 384H775Z" fill="#E88768"/>
</g>
</svg>
