<svg width="1403" height="1005" viewBox="0 0 1403 1005" fill="none" xmlns="http://www.w3.org/2000/svg">
<rect width="1403" height="1005" fill="#E5E5E5"/>
<g id="window-bg">
<path id="bg" d="M1403 0H0V1004.97H1403V0Z" fill="#D0CDE1"/>
<path id="window-glass" d="M1126.36 55.1345H211.537V819.142H1126.36V55.1345Z" fill="#EAE6FC"/>
<path id="window-bars" d="M1156.83 413.251H724.788C717.791 413.251 711.08 410.471 706.132 405.522C701.184 400.573 698.405 393.861 698.405 386.862V54.0819C698.405 47.0831 695.625 40.371 690.677 35.4221C685.729 30.4732 679.019 27.693 672.022 27.6929H665.879C658.881 27.693 652.171 30.4732 647.223 35.4221C642.275 40.371 639.496 47.0831 639.496 54.0819V386.862C639.496 393.861 636.716 400.573 631.768 405.522C626.82 410.471 620.11 413.251 613.112 413.251H181.071C177.607 413.251 174.176 413.933 170.975 415.26C167.774 416.586 164.866 418.53 162.416 420.98C159.966 423.43 158.022 426.34 156.697 429.541C155.371 432.743 154.688 436.174 154.688 439.64V445.784C154.688 452.783 157.468 459.495 162.416 464.444C167.363 469.393 174.074 472.173 181.071 472.173H613.112C620.109 472.173 626.82 474.953 631.768 479.902C636.716 484.851 639.495 491.563 639.495 498.562V814.445C639.495 821.444 642.275 828.156 647.223 833.105C652.171 838.054 658.881 840.834 665.878 840.834H672.021C679.019 840.834 685.729 838.054 690.677 833.105C695.625 828.156 698.405 821.444 698.405 814.445V498.562C698.405 491.563 701.184 484.851 706.132 479.902C711.08 474.953 717.79 472.173 724.788 472.173H1156.83C1163.83 472.173 1170.54 469.393 1175.48 464.444C1180.43 459.495 1183.21 452.783 1183.21 445.784V439.64C1183.21 432.641 1180.43 425.929 1175.48 420.98C1170.54 416.031 1163.83 413.251 1156.83 413.251Z" fill="#D0CDE1"/>
<path id="tree" d="M591.798 798.05L536.929 682.381C536.341 681.143 536.077 679.776 536.159 678.408C536.242 677.04 536.67 675.715 537.402 674.556C538.134 673.398 539.148 672.444 540.348 671.783C541.548 671.121 542.896 670.775 544.267 670.775C545.637 670.775 546.985 670.428 548.185 669.767C549.386 669.105 550.399 668.151 551.132 666.993C551.864 665.834 552.291 664.509 552.374 663.141C552.457 661.773 552.192 660.406 551.605 659.168L505.778 562.561C505.191 561.323 504.926 559.956 505.009 558.588C505.092 557.22 505.519 555.895 506.251 554.737C506.984 553.579 507.997 552.624 509.198 551.963C510.398 551.302 511.746 550.955 513.116 550.955H528.662C530.032 550.955 531.38 550.608 532.58 549.947C533.78 549.286 534.794 548.332 535.526 547.173C536.259 546.015 536.686 544.69 536.769 543.322C536.852 541.954 536.587 540.587 536 539.349L487.101 436.266C486.513 435.027 486.249 433.661 486.331 432.292C486.414 430.924 486.842 429.599 487.574 428.441C488.306 427.283 489.32 426.328 490.52 425.667C491.72 425.006 493.068 424.659 494.439 424.659H499.575C500.945 424.659 502.293 424.312 503.494 423.651C504.694 422.99 505.707 422.036 506.44 420.877C507.172 419.719 507.6 418.394 507.682 417.026C507.765 415.658 507.5 414.291 506.913 413.053L441.447 275.045C440.788 273.656 439.749 272.483 438.45 271.661C437.151 270.84 435.646 270.404 434.109 270.404C432.572 270.404 431.067 270.84 429.768 271.661C428.469 272.483 427.43 273.656 426.771 275.045L361.305 413.053C360.718 414.291 360.453 415.658 360.536 417.026C360.618 418.394 361.046 419.719 361.778 420.877C362.511 422.036 363.524 422.99 364.724 423.651C365.925 424.312 367.273 424.659 368.643 424.659H373.779C375.15 424.659 376.498 425.006 377.698 425.667C378.898 426.328 379.912 427.283 380.644 428.441C381.376 429.599 381.804 430.924 381.887 432.292C381.969 433.66 381.705 435.027 381.117 436.266L332.218 539.349C331.631 540.587 331.366 541.954 331.449 543.322C331.532 544.69 331.959 546.015 332.692 547.173C333.424 548.331 334.438 549.286 335.638 549.947C336.838 550.608 338.186 550.955 339.556 550.955H355.102C356.472 550.955 357.82 551.302 359.02 551.963C360.221 552.624 361.234 553.578 361.967 554.737C362.699 555.895 363.126 557.22 363.209 558.588C363.292 559.956 363.027 561.323 362.44 562.561L316.613 659.168C316.026 660.406 315.761 661.773 315.844 663.141C315.927 664.509 316.354 665.834 317.086 666.993C317.819 668.151 318.832 669.105 320.033 669.766C321.233 670.428 322.581 670.775 323.951 670.775C325.322 670.775 326.67 671.121 327.87 671.783C329.07 672.444 330.084 673.398 330.816 674.556C331.548 675.715 331.976 677.04 332.059 678.408C332.141 679.776 331.877 681.143 331.289 682.381L276.42 798.05C275.833 799.288 275.568 800.655 275.651 802.023C275.734 803.391 276.161 804.716 276.893 805.874C277.626 807.033 278.639 807.987 279.84 808.648C281.04 809.309 282.388 809.656 283.758 809.656H392.425C393.492 809.656 394.548 809.866 395.534 810.275C396.519 810.683 397.414 811.281 398.169 812.036C398.923 812.79 399.521 813.686 399.929 814.671C400.337 815.657 400.548 816.713 400.548 817.78V854.18C400.548 856.335 401.403 858.401 402.926 859.925C404.45 861.448 406.516 862.304 408.67 862.304H447.615C449.769 862.304 451.835 861.448 453.358 859.925C454.882 858.401 455.737 856.335 455.737 854.18V817.78C455.737 816.713 455.947 815.657 456.356 814.671C456.764 813.686 457.362 812.79 458.116 812.036C458.87 811.281 459.766 810.683 460.751 810.275C461.737 809.866 462.793 809.656 463.86 809.656H584.46C585.83 809.656 587.178 809.309 588.378 808.648C589.579 807.987 590.592 807.033 591.325 805.874C592.057 804.716 592.484 803.391 592.567 802.023C592.65 800.655 592.385 799.288 591.798 798.05Z" fill="#D0CDE1"/>
<g id="snow">
<path id="Vector" d="M354.676 375.397C355.182 375.38 355.661 375.167 356.012 374.803C356.363 374.439 356.559 373.953 356.559 373.448C356.559 372.942 356.363 372.456 356.012 372.092C355.661 371.729 355.182 371.516 354.676 371.498C354.171 371.516 353.692 371.729 353.341 372.092C352.99 372.456 352.794 372.942 352.794 373.448C352.794 373.953 352.99 374.439 353.341 374.803C353.692 375.167 354.171 375.38 354.676 375.397Z" fill="#D0CDE1"/>
<path id="Vector_2" d="M828.164 124.214C836.078 124.214 842.493 117.797 842.493 109.882C842.493 101.966 836.078 95.5493 828.164 95.5493C820.25 95.5493 813.835 101.966 813.835 109.882C813.835 117.797 820.25 124.214 828.164 124.214Z" fill="#D0CDE1"/>
<path id="Vector_3" d="M842.493 222.948C847.769 222.948 852.046 218.67 852.046 213.393C852.046 208.116 847.769 203.839 842.493 203.839C837.218 203.839 832.941 208.116 832.941 213.393C832.941 218.67 837.218 222.948 842.493 222.948Z" fill="#D0CDE1"/>
<path id="Vector_4" d="M1012.85 350.348C1018.13 350.348 1022.41 346.07 1022.41 340.793C1022.41 335.516 1018.13 331.238 1012.85 331.238C1007.58 331.238 1003.3 335.516 1003.3 340.793C1003.3 346.07 1007.58 350.348 1012.85 350.348Z" fill="#D0CDE1"/>
<path id="Vector_5" d="M737.412 339.2C742.688 339.2 746.965 334.922 746.965 329.645C746.965 324.368 742.688 320.09 737.412 320.09C732.136 320.09 727.859 324.368 727.859 329.645C727.859 334.922 732.136 339.2 737.412 339.2Z" fill="#D0CDE1"/>
<path id="Vector_6" d="M336.192 238.873C341.468 238.873 345.745 234.595 345.745 229.318C345.745 224.041 341.468 219.763 336.192 219.763C330.916 219.763 326.639 224.041 326.639 229.318C326.639 234.595 330.916 238.873 336.192 238.873Z" fill="#D0CDE1"/>
<path id="Vector_7" d="M305.942 597.183C311.218 597.183 315.494 592.905 315.494 587.628C315.494 582.351 311.218 578.073 305.942 578.073C300.666 578.073 296.389 582.351 296.389 587.628C296.389 592.905 300.666 597.183 305.942 597.183Z" fill="#D0CDE1"/>
<path id="Vector_8" d="M532.026 288.24C539.94 288.24 546.355 281.824 546.355 273.908C546.355 265.993 539.94 259.576 532.026 259.576C524.112 259.576 517.697 265.993 517.697 273.908C517.697 281.824 524.112 288.24 532.026 288.24Z" fill="#D0CDE1"/>
</g>
</g>
<g id="Desk">
<path id="lower" d="M1314.56 925.927H106.68C92.9846 925.927 81.8825 933.843 81.8825 943.609V948.661C81.8825 958.426 92.9846 966.342 106.68 966.342H1314.56C1328.26 966.342 1339.36 958.426 1339.36 948.661V943.609C1339.36 933.843 1328.26 925.927 1314.56 925.927Z" fill="#686867"/>
<path id="upper" d="M1323.53 903.261H90.4675C76.4022 903.261 65 911.392 65 921.421V932.299C65 942.328 76.4022 950.458 90.4675 950.458H1323.53C1337.6 950.458 1349 942.328 1349 932.299V921.421C1349 911.392 1337.6 903.261 1323.53 903.261Z" fill="#8C8B89"/>
</g>
<g id="cat">
<path id="body-cat" d="M354.101 904.056H111.509V904.056C111.509 882.988 119.876 862.783 134.77 847.886C149.664 832.988 169.865 824.619 190.929 824.619C235.131 810.838 292.79 815.26 354.101 824.619V904.056Z" fill="#DC5A66"/>
<path id="back-arm-cat" d="M319.445 886.725H433.521C434.469 886.725 435.408 886.911 436.284 887.274C437.16 887.637 437.956 888.169 438.626 888.84C439.297 889.51 439.829 890.307 440.191 891.183C440.554 892.059 440.741 892.998 440.741 893.946C440.741 895.862 439.98 897.698 438.626 899.053C437.272 900.407 435.436 901.168 433.521 901.168H319.445V886.725Z" fill="#3F3D56"/>
<path id="rightear-cat" d="M339.202 756.631L369.779 719.558C370.484 718.088 371.619 716.867 373.035 716.058C374.45 715.249 376.078 714.89 377.702 715.029C379.326 715.169 380.87 715.799 382.127 716.837C383.384 717.875 384.295 719.272 384.74 720.84L396.798 763.423L339.202 756.631Z" fill="#3F3D56"/>
<path id="leftear-cat" d="M302.117 775.512L313.669 728.862C313.669 727.231 314.165 725.64 315.092 724.298C316.019 722.957 317.332 721.929 318.857 721.353C320.381 720.776 322.046 720.677 323.628 721.07C325.21 721.462 326.635 722.328 327.714 723.55L356.989 756.736L302.117 775.512Z" fill="#DC5A66"/>
<g id="tail">
<path id="tail-cat" d="M111.509 904.056H134.613V953.163C134.613 956.198 134.015 959.203 132.854 962.007C131.693 964.81 129.991 967.358 127.846 969.504C125.7 971.65 123.153 973.352 120.35 974.513C117.547 975.675 114.543 976.272 111.509 976.272V904.056L111.509 904.056Z" fill="#DC5A66"/>
<path id="Vector_9" d="M125.549 916.414L125.549 951.376C125.549 954.052 126.539 956.222 127.76 956.223C128.981 956.224 129.971 954.056 129.971 951.38L129.971 916.418C129.971 913.742 128.981 911.572 127.76 911.571C126.539 911.57 125.549 913.738 125.549 916.414Z" fill="#E97883"/>
</g>
<path id="front-arm-cat" d="M315.113 889.613H429.189C430.137 889.613 431.076 889.8 431.952 890.163C432.828 890.526 433.624 891.058 434.295 891.728C434.965 892.399 435.497 893.195 435.86 894.071C436.222 894.947 436.409 895.887 436.409 896.835C436.409 897.783 436.222 898.722 435.86 899.598C435.497 900.475 434.965 901.271 434.295 901.941C433.624 902.612 432.828 903.144 431.952 903.507C431.076 903.87 430.137 904.056 429.189 904.056H315.113V889.613Z" fill="#DC5A66"/>
<path id="face-cat" d="M354.101 904.056C397.166 904.056 432.077 869.138 432.077 826.063C432.077 782.989 397.166 748.07 354.101 748.07C311.036 748.07 276.125 782.989 276.125 826.063C276.125 869.138 311.036 904.056 354.101 904.056Z" fill="#DC5A66"/>
<path id="Vector_10" d="M316.381 806.595C315.109 806.595 313.888 806.122 312.988 805.28C312.089 804.439 311.583 803.297 311.583 802.107C311.571 795.547 314.344 789.25 319.292 784.6C324.24 779.95 330.959 777.325 337.974 777.304C339.247 777.304 340.467 777.777 341.367 778.618C342.267 779.46 342.773 780.601 342.773 781.791C342.773 782.981 342.267 784.123 341.367 784.964C340.467 785.806 339.247 786.279 337.974 786.279C333.506 786.284 329.224 787.948 326.067 790.904C322.909 793.86 321.136 797.868 321.136 802.046C321.148 803.238 320.654 804.386 319.763 805.238C318.872 806.091 317.656 806.578 316.381 806.595Z" fill="#E97883"/>
<path id="nose-cat" d="M429.189 852.061C433.974 852.061 437.853 843.008 437.853 831.841C437.853 820.673 433.974 811.62 429.189 811.62C424.404 811.62 420.525 820.673 420.525 831.841C420.525 843.008 424.404 852.061 429.189 852.061Z" fill="#3F3D56"/>
<path id="left-eye-cat" d="M408.251 815.953C409.447 815.953 410.417 813.69 410.417 810.898C410.417 808.106 409.447 805.843 408.251 805.843C407.055 805.843 406.085 808.106 406.085 810.898C406.085 813.69 407.055 815.953 408.251 815.953Z" fill="#3F3D56"/>
<path id="right-eye-cat" d="M424.135 805.843C425.331 805.843 426.301 803.58 426.301 800.788C426.301 797.996 425.331 795.733 424.135 795.733C422.939 795.733 421.969 797.996 421.969 800.788C421.969 803.58 422.939 805.843 424.135 805.843Z" fill="#3F3D56"/>
<path id="hair2" d="M347.559 747.202C347.559 747.202 343.225 739.661 343.225 735.061L347.559 747.202Z" fill="#3F3D56"/>
<path id="hair" d="M349.465 742.325C349.465 742.325 351.827 733.954 355.116 730.738L349.465 742.325Z" fill="#3F3D56"/>
</g>
<g id="male avatar 3" clip-path="url(#clip0)">
<path id="Body" d="M783.777 579.484H1017.57C1030.31 579.484 1042.54 584.542 1051.55 593.546C1060.56 602.549 1065.62 614.761 1065.62 627.494V861.064C1065.62 873.797 1060.56 886.009 1051.55 895.012C1042.54 904.016 1030.31 909.074 1017.57 909.074H791.128C783.852 909.074 776.647 907.642 769.924 904.86C763.202 902.079 757.093 898.001 751.948 892.861C741.557 882.48 735.719 868.4 735.719 853.719V627.494C735.719 614.761 740.782 602.549 749.795 593.546C758.807 584.542 771.031 579.484 783.777 579.484Z" fill="#A61F31"/>
<g id="right arm">
<path id="Vector 52" d="M1027.24 589.741L1004.96 595.349C1001.36 596.253 997.975 597.856 995 600.068C992.024 602.28 989.514 605.056 987.613 608.238C985.713 611.42 984.459 614.945 983.923 618.612C983.388 622.278 983.582 626.014 984.493 629.606L1046.81 877.99C1048.64 885.224 1053.26 891.442 1059.66 895.288C1066.06 899.135 1073.72 900.298 1080.97 898.525L1103.31 892.918C1106.91 892.014 1110.29 890.41 1113.27 888.199C1116.24 885.987 1118.75 883.211 1120.65 880.029C1122.55 876.847 1123.81 873.322 1124.34 869.655C1124.88 865.989 1124.68 862.252 1123.77 858.661L1061.53 610.277C1059.69 603.023 1055.05 596.792 1048.62 592.944C1042.2 589.097 1034.51 587.945 1027.24 589.741Z" fill="#A61F31"/>
<path id="Vector 53" d="M903.54 872.757V880.601C903.538 884.303 904.265 887.968 905.682 891.389C907.099 894.809 909.177 897.917 911.797 900.535C914.417 903.152 917.528 905.228 920.951 906.643C924.375 908.059 928.045 908.786 931.75 908.783H1097.78C1101.49 908.787 1105.16 908.061 1108.58 906.646C1112.01 905.232 1115.12 903.156 1117.74 900.538C1120.36 897.921 1122.44 894.812 1123.86 891.391C1125.27 887.97 1126 884.303 1126 880.601V872.757C1126 869.054 1125.27 865.387 1123.86 861.965C1122.44 858.543 1120.36 855.434 1117.74 852.816C1115.12 850.197 1112.01 848.121 1108.58 846.705C1105.16 845.289 1101.49 844.562 1097.78 844.565H931.75C928.044 844.562 924.373 845.289 920.949 846.705C917.524 848.121 914.413 850.198 911.793 852.816C909.173 855.435 907.095 858.544 905.679 861.966C904.263 865.387 903.536 869.054 903.54 872.757Z" fill="#A61F31"/>
<path id="Vector_11" d="M1019.76 687.312H967.28C963.64 687.312 960.689 690.26 960.689 693.897V700.929C960.689 704.566 963.64 707.515 967.28 707.515H1019.76C1023.4 707.515 1026.35 704.566 1026.35 700.929V693.897C1026.35 690.26 1023.4 687.312 1019.76 687.312Z" fill="#7D1927"/>
</g>
<g id="collar">
<path id="Vector 16" d="M952.15 598.646C952.148 587.442 948.82 576.489 942.587 567.173C936.354 557.858 927.497 550.598 917.134 546.311C906.771 542.025 895.369 540.904 884.369 543.092C873.368 545.279 863.264 550.675 855.334 558.599C847.404 566.523 842.004 576.618 839.817 587.608C837.629 598.597 838.753 609.988 843.046 620.34C847.338 630.692 854.607 639.54 863.933 645.765C873.259 651.989 884.223 655.312 895.439 655.312C910.479 655.306 924.902 649.334 935.537 638.708C946.171 628.082 952.147 613.672 952.15 598.646Z" fill="#DB9D95"/>
<path id="Vector 17" d="M980.807 599C980.807 562.132 946.995 532.171 905.175 532.171H898.656C857.003 532.171 823.024 561.944 823.024 599C823.042 603.625 823.573 608.234 824.607 612.743V661.523C824.607 668.16 833.833 671.478 839.186 666.724L854.65 653.263C867.802 661.46 883.019 665.747 898.521 665.621H905.133C920.457 665.708 935.497 661.491 948.536 653.45L963.906 666.63C969.404 671.239 978.714 668.014 978.714 661.429V614.324C980.149 609.351 980.85 604.196 980.797 599.021L980.807 599Z" fill="#7D1927"/>
<path id="Vector 18" d="M982.525 593.424C982.525 556.087 948.047 525.804 905.394 525.804H898.74C856.274 525.804 821.608 555.973 821.608 593.424C821.621 598.168 822.162 602.896 823.222 607.52V656.893C823.222 663.614 832.594 666.974 838.134 662.22L853.9 648.592C867.349 656.886 882.872 661.214 898.677 661.075H905.425C921.042 661.166 936.374 656.896 949.692 648.748L965.385 662.126C970.987 666.787 980.495 663.52 980.495 656.8V609.008C981.941 603.934 982.643 598.678 982.577 593.403L982.525 593.424Z" fill="#981E21"/>
<path id="Vector 19" d="M968.978 595.099C968.978 563.838 938.852 538.444 901.739 538.444C864.626 538.444 834.5 563.838 834.5 595.099C834.5 626.36 864.626 651.764 901.739 651.764C938.852 651.764 968.978 626.371 968.978 595.099Z" fill="#CB9187"/>
<path id="Vector 19_2" d="M968.978 588.118C968.978 556.857 938.852 531.463 901.739 531.463C864.626 531.463 834.5 556.857 834.5 588.118C834.5 619.38 864.626 644.774 901.739 644.774C938.852 644.774 968.978 619.39 968.978 588.118Z" fill="#DDA79C"/>
<path id="Vector 21" d="M914.683 653.346H888.524V746.224H914.683V653.346Z" fill="#981E21"/>
</g>
<g id="left arm">
<path id="Vector 54" d="M682.924 856.518H647.883C641.116 856.518 634.627 859.203 629.843 863.983C625.058 868.763 622.37 875.246 622.37 882.005C622.37 888.765 625.058 895.248 629.843 900.028C634.627 904.808 641.116 907.493 647.883 907.493H682.924C689.69 907.493 696.179 904.808 700.964 900.028C705.748 895.248 708.436 888.765 708.436 882.005C708.436 875.246 705.748 868.763 700.964 863.983C696.179 859.203 689.69 856.518 682.924 856.518Z" fill="#A61F31"/>
<path id="Vector 55" d="M690.473 894.874L704.792 904.559C707.825 906.626 711.247 908.056 714.851 908.76C718.454 909.465 722.163 909.429 725.753 908.657C729.342 907.884 732.737 906.39 735.73 904.266C738.723 902.141 741.253 899.431 743.165 896.299L790.712 821.324C799.043 808.04 795.492 790.292 782.725 781.647L768.407 771.972C765.373 769.905 761.951 768.475 758.348 767.771C754.744 767.067 751.035 767.102 747.446 767.875C743.856 768.647 740.462 770.141 737.468 772.266C734.475 774.39 731.945 777.1 730.033 780.232L682.486 855.301C678.471 861.658 677.061 869.316 678.548 876.685C680.035 884.054 684.306 890.568 690.473 894.874Z" fill="#84192C"/>
<path id="Vector 55_2" d="M684.35 891.566L699.262 901.48C702.425 903.605 705.982 905.074 709.723 905.799C713.465 906.525 717.314 906.492 721.042 905.703C724.771 904.914 728.303 903.385 731.428 901.207C734.554 899.029 737.21 896.245 739.239 893.022L788.775 816.216C792.959 809.694 794.43 801.798 792.874 794.208C791.318 786.619 786.858 779.936 780.444 775.582L765.522 765.668C762.357 763.554 758.8 762.095 755.062 761.376C751.324 760.657 747.479 760.692 743.754 761.481C740.03 762.269 736.501 763.794 733.376 765.965C730.25 768.137 727.591 770.911 725.556 774.125L676.02 851.025C671.846 857.534 670.381 865.414 671.937 872.987C673.493 880.559 677.947 887.226 684.35 891.566Z" fill="#A61F31"/>
<path id="Vector 56" d="M734.501 827.764L760.315 832.247C775.009 834.765 788.806 824.403 791.201 809.007L820.14 626.339C822.535 610.932 812.653 596.472 798.064 593.851L772.249 589.377C757.556 586.849 743.758 597.211 741.363 612.618L712.435 795.285C710.029 810.682 719.912 825.153 734.501 827.764Z" fill="#A61F31"/>
<path id="Vector 57" d="M806.717 598.802H769.531C768.208 598.862 766.959 599.429 766.044 600.385C765.129 601.341 764.618 602.613 764.618 603.936C764.618 605.259 765.129 606.531 766.044 607.488C766.959 608.444 768.208 609.011 769.531 609.07H806.717C808.076 609.054 809.375 608.507 810.337 607.547C811.298 606.587 811.845 605.289 811.861 603.931C811.863 603.256 811.731 602.588 811.472 601.964C811.214 601.341 810.835 600.775 810.357 600.298C809.879 599.821 809.311 599.444 808.687 599.187C808.062 598.93 807.393 598.8 806.717 598.802Z" fill="#AE344C"/>
<path id="Vector 58" d="M708.332 818.339L686.464 848.393C686.066 848.939 685.779 849.559 685.62 850.216C685.461 850.873 685.433 851.556 685.538 852.224C685.643 852.892 685.878 853.532 686.231 854.109C686.584 854.686 687.047 855.188 687.594 855.587C688.141 855.985 688.761 856.272 689.419 856.43C690.077 856.589 690.76 856.617 691.428 856.512C692.779 856.301 693.99 855.562 694.795 854.458L716.663 824.403C717.069 823.861 717.362 823.242 717.526 822.584C717.689 821.926 717.72 821.242 717.615 820.573C717.51 819.903 717.272 819.261 716.916 818.684C716.559 818.108 716.091 817.608 715.538 817.215C714.429 816.422 713.053 816.096 711.705 816.306C710.358 816.516 709.147 817.246 708.332 818.339Z" fill="#AE344C"/>
</g>
<g id="left hand">
<path id="Vector 59" d="M670.219 873.714L640.135 843.545C639.279 842.68 638.26 841.994 637.137 841.526C636.013 841.057 634.808 840.816 633.591 840.816C632.373 840.816 631.168 841.057 630.044 841.526C628.921 841.994 627.902 842.68 627.046 843.545C626.178 844.399 625.488 845.417 625.018 846.539C624.547 847.662 624.305 848.866 624.305 850.083C624.305 851.3 624.547 852.505 625.018 853.628C625.488 854.75 626.178 855.768 627.046 856.622L657.119 886.791C657.976 887.656 658.997 888.342 660.121 888.811C661.245 889.28 662.451 889.521 663.669 889.521C664.888 889.521 666.094 889.28 667.218 888.811C668.342 888.342 669.362 887.656 670.219 886.791C671.084 885.935 671.77 884.916 672.238 883.794C672.706 882.672 672.947 881.468 672.947 880.252C672.947 879.037 672.706 877.833 672.238 876.711C671.77 875.588 671.084 874.57 670.219 873.714Z" fill="#ECB9A6"/>
<path id="finger 4" d="M591.818 858.234L577.239 872.799C575.822 874.214 575.026 876.134 575.026 878.135C575.026 880.137 575.822 882.057 577.239 883.472C578.656 884.888 580.577 885.683 582.581 885.683C584.585 885.683 586.506 884.888 587.923 883.472L602.502 868.991C603.212 868.285 603.775 867.447 604.159 866.523C604.544 865.599 604.742 864.608 604.742 863.607C604.742 862.607 604.544 861.616 604.159 860.692C603.775 859.769 603.212 858.93 602.502 858.224C601.802 857.519 600.969 856.96 600.052 856.579C599.135 856.198 598.151 856.002 597.157 856.003C596.164 856.004 595.18 856.202 594.264 856.585C593.347 856.968 592.516 857.528 591.818 858.234Z" fill="#E0A1A2"/>
<path id="mouse" d="M674.437 908.492C676.432 908.486 678.396 908.001 680.164 907.077C681.941 906.148 683.45 904.78 684.548 903.103C685.689 901.454 686.404 899.549 686.631 897.558C686.852 895.561 686.569 893.54 685.808 891.68C682.871 884.293 678.311 877.659 672.463 872.269C666.616 866.879 659.631 862.871 652.024 860.54C644.418 858.209 636.384 857.615 628.517 858.803C620.65 859.99 613.151 862.928 606.573 867.399C597.767 873.376 590.956 881.851 587.017 891.732C586.274 893.597 586.016 895.619 586.267 897.61C586.498 899.6 587.213 901.504 588.35 903.155C589.499 904.791 591.001 906.149 592.744 907.129C594.486 908.119 596.457 908.636 598.461 908.627H674.478V908.544L674.437 908.492Z" fill="#363736"/>
<path id="finger 3" d="M609.801 849.631L586.684 872.809C585.818 873.664 585.131 874.682 584.662 875.805C584.193 876.927 583.952 878.131 583.952 879.347C583.952 880.563 584.193 881.768 584.662 882.89C585.131 884.012 585.818 885.03 586.684 885.886C587.54 886.75 588.559 887.437 589.682 887.905C590.806 888.374 592.011 888.615 593.229 888.615C594.446 888.615 595.651 888.374 596.775 887.905C597.898 887.437 598.917 886.75 599.773 885.886L622.901 862.708C623.767 861.852 624.454 860.834 624.923 859.712C625.392 858.59 625.633 857.385 625.633 856.169C625.633 854.953 625.392 853.749 624.923 852.627C624.454 851.504 623.767 850.486 622.901 849.631C622.044 848.766 621.024 848.079 619.9 847.611C618.776 847.142 617.57 846.901 616.351 846.901C615.133 846.901 613.927 847.142 612.803 847.611C611.678 848.079 610.658 848.766 609.801 849.631Z" fill="#E6A7A3"/>
<path id="finger 2" d="M626.796 843.587L596.753 873.714C595.888 874.57 595.2 875.589 594.731 876.712C594.262 877.836 594.021 879.041 594.021 880.258C594.021 881.475 594.262 882.68 594.731 883.803C595.2 884.926 595.888 885.945 596.753 886.801C597.609 887.666 598.629 888.352 599.752 888.821C600.876 889.289 602.081 889.53 603.298 889.53C604.516 889.53 605.721 889.289 606.844 888.821C607.968 888.352 608.987 887.666 609.843 886.801L639.927 856.632C640.793 855.777 641.48 854.759 641.949 853.636C642.418 852.514 642.659 851.31 642.659 850.094C642.659 848.878 642.418 847.674 641.949 846.551C641.48 845.429 640.793 844.411 639.927 843.556C638.171 841.841 635.811 840.884 633.355 840.89C630.899 840.896 628.544 841.864 626.796 843.587Z" fill="#EBB8B0"/>
<path id="click finger" d="M653.496 840.445L617.58 804.69C615.723 802.862 613.234 801.819 610.628 801.777C608.022 801.734 605.5 802.695 603.585 804.461C602.652 805.309 601.903 806.338 601.383 807.486C600.863 808.634 600.583 809.875 600.561 811.135C600.539 812.394 600.774 813.645 601.253 814.81C601.731 815.976 602.443 817.031 603.345 817.912L639.25 853.678C641.108 855.503 643.597 856.544 646.202 856.587C648.807 856.629 651.329 855.67 653.246 853.907C654.166 853.05 654.904 852.018 655.417 850.871C655.929 849.723 656.205 848.485 656.229 847.229C656.252 845.973 656.022 844.725 655.552 843.559C655.083 842.394 654.383 841.335 653.496 840.445Z" fill="#EFBDB4"/>
<path id="finger 1" d="M687.558 873.745L653.912 840.05C649.362 835.504 642.395 835.087 638.417 839.009C634.439 842.931 634.856 849.933 639.458 854.489L673.052 888.206C677.613 892.752 684.579 893.168 688.557 889.246C692.535 885.324 692.119 878.302 687.558 873.745Z" fill="#EFBDB4"/>
<path id="finger-1" d="M701.741 887.914L668.095 854.219C663.534 849.662 656.578 849.256 652.6 853.178C648.622 857.1 649.039 864.112 653.641 868.668L687.287 902.354C691.848 906.91 698.804 907.326 702.782 903.394C706.76 899.462 706.302 892.471 701.741 887.914Z" fill="#EFBDB4"/>
<path id="thumb" d="M694.16 888.538H652.236C650.859 888.495 649.488 888.728 648.203 889.224C646.918 889.72 645.747 890.469 644.757 891.426C643.768 892.383 642.982 893.529 642.444 894.796C641.907 896.063 641.631 897.425 641.631 898.801C641.631 900.177 641.907 901.539 642.444 902.806C642.982 904.073 643.768 905.219 644.757 906.176C645.747 907.133 646.918 907.882 648.203 908.378C649.488 908.874 650.859 909.107 652.236 909.064H694.16C695.536 909.107 696.907 908.874 698.192 908.378C699.477 907.882 700.648 907.133 701.638 906.176C702.627 905.219 703.414 904.073 703.951 902.806C704.488 901.539 704.765 900.177 704.765 898.801C704.765 897.425 704.488 896.063 703.951 894.796C703.414 893.529 702.627 892.383 701.638 891.426C700.648 890.469 699.477 889.72 698.192 889.224C696.907 888.728 695.536 888.495 694.16 888.538Z" fill="#EFBDB4"/>
</g>
<g id="laptop">
<path id="Vector 60" d="M1041.1 719.582H792.94C786 719.585 779.128 720.954 772.718 723.612C766.308 726.269 760.484 730.162 755.581 735.07C750.678 739.977 746.791 745.801 744.142 752.21C741.494 758.618 740.135 765.486 740.145 772.419V857.173C740.131 871.178 745.685 884.616 755.585 894.532C765.485 904.447 778.921 910.03 792.94 910.052H1041.1C1048.04 910.048 1054.91 908.678 1061.32 906.021C1067.73 903.363 1073.55 899.47 1078.45 894.565C1083.35 889.659 1087.24 883.836 1089.89 877.429C1092.53 871.022 1093.89 864.157 1093.89 857.225V772.419C1093.89 765.487 1092.54 758.62 1089.89 752.212C1087.24 745.804 1083.35 739.98 1078.45 735.073C1073.55 730.166 1067.73 726.273 1061.32 723.614C1054.91 720.956 1048.04 719.586 1041.1 719.582Z" fill="#49494B"/>
<path id="Vector 61" d="M1034.56 702.219H799.48C791.679 702.219 783.955 703.756 776.749 706.74C769.542 709.725 762.996 714.099 757.483 719.613C751.971 725.127 747.6 731.672 744.621 738.875C741.643 746.078 740.114 753.797 740.124 761.59V833.184C740.116 840.976 741.645 848.694 744.624 855.895C747.604 863.097 751.974 869.641 757.487 875.154C762.999 880.667 769.546 885.04 776.751 888.024C783.956 891.008 791.68 892.544 799.48 892.544H1034.56C1042.36 892.544 1050.08 891.008 1057.29 888.024C1064.5 885.04 1071.04 880.667 1076.55 875.154C1082.07 869.641 1086.44 863.097 1089.42 855.895C1092.4 848.694 1093.92 840.976 1093.92 833.184V761.59C1093.93 753.797 1092.4 746.078 1089.42 738.875C1086.44 731.672 1082.07 725.127 1076.56 719.613C1071.04 714.099 1064.5 709.725 1057.29 706.74C1050.09 703.756 1042.36 702.219 1034.56 702.219Z" fill="#595A5C"/>
<path id="Vector 62" d="M916.828 822.916C922.335 822.918 927.72 821.288 932.3 818.233C936.881 815.177 940.452 810.834 942.561 805.751C944.67 800.668 945.223 795.074 944.15 789.677C943.076 784.281 940.425 779.323 936.531 775.432C932.637 771.54 927.676 768.89 922.274 767.816C916.873 766.741 911.273 767.292 906.185 769.397C901.096 771.502 896.746 775.067 893.686 779.642C890.626 784.217 888.993 789.596 888.993 795.098C888.996 802.473 891.929 809.546 897.148 814.762C902.367 819.977 909.445 822.91 916.828 822.916Z" fill="#77181E"/>
<path id="Vector 63" d="M917.015 818.619C921.635 818.619 926.151 817.251 929.992 814.687C933.833 812.123 936.826 808.479 938.594 804.215C940.362 799.951 940.825 795.259 939.923 790.733C939.022 786.207 936.798 782.049 933.531 778.786C930.264 775.522 926.103 773.3 921.572 772.4C917.041 771.499 912.345 771.961 908.077 773.727C903.809 775.494 900.161 778.484 897.594 782.322C895.028 786.159 893.658 790.67 893.658 795.285C893.661 801.473 896.123 807.407 900.502 811.782C904.882 816.157 910.821 818.617 917.015 818.619Z" fill="#981E21"/>
<path id="Vector 64" d="M930.563 795.192C930.552 797.888 929.74 800.52 928.23 802.755C926.738 804.985 924.628 806.734 922.159 807.79C919.678 808.826 916.94 809.087 914.308 808.539C911.673 807.992 909.258 806.682 907.363 804.773C905.469 802.864 904.179 800.44 903.655 797.803C903.101 795.173 903.362 792.437 904.405 789.959C905.438 787.478 907.194 785.365 909.445 783.894C911.692 782.419 914.326 781.641 917.015 781.657C918.801 781.672 920.568 782.025 922.222 782.698C924.691 783.753 926.8 785.502 928.293 787.733C929.766 789.942 930.555 792.537 930.563 795.192Z" fill="white"/>
</g>
<g id="Back-Hair">
<path id="Vector_12" d="M956.961 428.775H840.394C819.402 428.775 802.385 445.775 802.385 466.746V492.545C802.385 513.516 819.402 530.517 840.394 530.517H956.961C977.952 530.517 994.969 513.516 994.969 492.545V466.746C994.969 445.775 977.952 428.775 956.961 428.775Z" fill="#73381B"/>
<path id="Vector_13" d="M959.98 385.248H836.791C815.799 385.248 798.782 402.248 798.782 423.219V445.035C798.782 466.006 815.799 483.006 836.791 483.006H959.98C980.972 483.006 997.989 466.006 997.989 445.035V423.219C997.989 402.248 980.972 385.248 959.98 385.248Z" fill="#73381B"/>
</g>
<g id="right-ear">
<path id="outer" d="M992.939 493.575C1002.07 493.575 1009.46 486.184 1009.46 477.066C1009.46 467.948 1002.07 460.556 992.939 460.556C983.812 460.556 976.413 467.948 976.413 477.066C976.413 486.184 983.812 493.575 992.939 493.575Z" fill="#EFBDB4"/>
<path id="inner" d="M992.637 485.96C997.554 485.96 1001.54 481.978 1001.54 477.066C1001.54 472.153 997.554 468.171 992.637 468.171C987.719 468.171 983.733 472.153 983.733 477.066C983.733 481.978 987.719 485.96 992.637 485.96Z" fill="#DDA79C"/>
</g>
<g id="left-ear">
<path id="outer_2" d="M806.04 491.755C815.167 491.755 822.566 484.363 822.566 475.245C822.566 466.127 815.167 458.735 806.04 458.735C796.913 458.735 789.514 466.127 789.514 475.245C789.514 484.363 796.913 491.755 806.04 491.755Z" fill="#EFBDB4"/>
<path id="inner_2" d="M805.749 484.14C810.666 484.14 814.652 480.157 814.652 475.245C814.652 470.333 810.666 466.35 805.749 466.35C800.832 466.35 796.845 470.333 796.845 475.245C796.845 480.157 800.832 484.14 805.749 484.14Z" fill="#DDA79C"/>
</g>
<path id="Face" d="M817.828 561.809L846.163 592.841C849.75 596.866 854.141 600.096 859.054 602.323C863.966 604.55 869.291 605.725 874.685 605.772H922.586C927.981 605.727 933.306 604.553 938.219 602.326C943.131 600.099 947.522 596.868 951.108 592.841L979.453 561.809C987.127 553.229 991.336 542.106 991.262 530.6V440C991.334 428.494 987.125 417.372 979.453 408.79L965.614 393.643C928.616 353.144 868.635 353.144 831.636 393.643L817.828 408.78C810.149 417.358 805.936 428.481 806.009 439.989V530.579C805.929 542.094 810.142 553.227 817.828 561.809Z" fill="#EFBDB4"/>
<g id="nose">
<path id="Vector 30" d="M901.114 491.016C898.643 491.009 896.257 491.914 894.413 493.558C892.57 495.201 891.4 497.468 891.128 499.921C891.12 500.065 891.137 500.21 891.18 500.348C891.218 500.49 891.294 500.619 891.398 500.722C891.49 500.83 891.599 500.922 891.721 500.993C891.857 501.062 892.006 501.101 892.158 501.107H910.132C910.283 501.094 910.431 501.055 910.569 500.993C910.701 500.936 910.813 500.842 910.892 500.722C910.993 500.616 911.068 500.488 911.111 500.348C911.153 500.21 911.171 500.065 911.163 499.921C910.899 497.463 909.725 495.193 907.872 493.555C906.004 491.914 903.601 491.011 901.114 491.016Z" fill="#EBB8B0"/>
<path id="Vector 31" d="M891.076 500.171C891.063 500.301 891.081 500.433 891.128 500.556C891.18 500.66 891.232 500.826 891.346 500.878C891.441 500.966 891.55 501.036 891.669 501.086C891.784 501.153 891.912 501.192 892.044 501.201H909.976C910.109 501.199 910.239 501.16 910.351 501.086C910.469 501.036 910.579 500.966 910.673 500.878C910.765 500.785 910.839 500.675 910.892 500.556C910.933 500.432 910.951 500.301 910.944 500.171H891.076Z" fill="#DDA79C"/>
<path id="Vector 32" d="M906.789 496.842H895.397C895.111 496.842 894.837 496.955 894.635 497.157C894.433 497.359 894.319 497.633 894.319 497.919C894.319 498.204 894.433 498.478 894.635 498.68C894.837 498.882 895.111 498.995 895.397 498.995H906.789C907.075 498.995 907.349 498.882 907.551 498.68C907.753 498.478 907.867 498.204 907.867 497.919C907.867 497.633 907.753 497.359 907.551 497.157C907.349 496.955 907.075 496.842 906.789 496.842Z" fill="#F0C6BE"/>
</g>
<g id="Eyebrows">
<g id="left eyebrow">
<path id="Vector 22" d="M871.551 447.958H842.674C840.93 447.944 839.237 447.372 837.843 446.325C836.499 445.254 835.508 443.804 835 442.163C834.799 442.856 834.704 443.575 834.719 444.296C834.732 446.401 835.574 448.415 837.063 449.905C838.552 451.394 840.568 452.238 842.674 452.254H871.551C873.659 452.241 875.677 451.398 877.168 449.908C878.659 448.419 879.503 446.402 879.517 444.296C879.495 443.577 879.401 442.863 879.236 442.163C878.814 443.844 877.806 445.32 876.393 446.325C875.001 447.384 873.3 447.958 871.551 447.958Z" fill="#DDA79C"/>
<path id="Vector 23" d="M871.551 434.527H842.612C841.565 434.526 840.529 434.731 839.562 435.13C838.595 435.53 837.716 436.116 836.976 436.855C836.236 437.595 835.649 438.473 835.249 439.439C834.849 440.405 834.644 441.44 834.646 442.486C834.644 443.531 834.849 444.567 835.249 445.533C835.649 446.499 836.236 447.377 836.976 448.116C837.716 448.856 838.595 449.442 839.562 449.841C840.529 450.241 841.565 450.446 842.612 450.444H871.551C872.597 450.446 873.634 450.241 874.601 449.841C875.568 449.442 876.447 448.856 877.187 448.116C877.927 447.377 878.513 446.499 878.913 445.533C879.313 444.567 879.518 443.531 879.517 442.486C879.518 441.44 879.313 440.405 878.913 439.439C878.513 438.473 877.927 437.595 877.187 436.855C876.447 436.116 875.568 435.53 874.601 435.13C873.634 434.731 872.597 434.526 871.551 434.527Z" fill="#73381B"/>
<path id="Vector 24" d="M871.551 446.075H842.674C840.926 446.074 839.228 445.496 837.843 444.431C836.495 443.363 835.504 441.912 835 440.27C834.803 440.946 834.709 441.647 834.719 442.351C834.727 443.395 834.917 444.43 835.281 445.409C835.68 446.364 836.26 447.233 836.989 447.968C837.718 448.704 838.59 449.284 839.55 449.674C840.521 450.072 841.563 450.264 842.612 450.236H871.478C872.523 450.228 873.559 450.038 874.539 449.674C875.495 449.275 876.365 448.696 877.101 447.968C877.837 447.239 878.418 446.369 878.809 445.409C879.21 444.44 879.405 443.399 879.381 442.351C879.353 441.649 879.255 440.952 879.09 440.27C878.624 441.92 877.64 443.377 876.282 444.425C874.925 445.474 873.266 446.06 871.551 446.096V446.075Z" fill="#5F2411"/>
<path id="Vector 25" d="M865.584 437.159H848.579C848.071 437.159 847.583 437.361 847.224 437.72C846.865 438.079 846.663 438.566 846.663 439.074C846.661 439.326 846.71 439.576 846.806 439.809C846.901 440.043 847.042 440.255 847.22 440.434C847.398 440.613 847.61 440.755 847.843 440.851C848.076 440.948 848.326 440.998 848.579 440.998H865.584C865.836 440.998 866.086 440.948 866.319 440.851C866.553 440.755 866.764 440.613 866.942 440.434C867.12 440.255 867.261 440.043 867.357 439.809C867.453 439.576 867.501 439.326 867.5 439.074C867.5 438.566 867.298 438.079 866.939 437.72C866.579 437.361 866.092 437.159 865.584 437.159Z" fill="#895339"/>
</g>
<g id="left-eyebrow">
<path id="Vector 22_2" d="M959.741 447.698H930.865C929.12 447.688 927.425 447.115 926.033 446.064C924.686 444.994 923.692 443.545 923.18 441.903C922.984 442.597 922.889 443.315 922.899 444.036C922.912 446.142 923.756 448.159 925.247 449.648C926.738 451.138 928.756 451.981 930.865 451.994H959.741C961.848 451.975 963.863 451.131 965.353 449.642C966.843 448.154 967.688 446.141 967.707 444.036C967.699 443.322 967.619 442.611 967.468 441.914C967.051 443.597 966.042 445.074 964.625 446.075C963.222 447.142 961.504 447.712 959.741 447.698Z" fill="#DDA79C"/>
<path id="Vector 23_2" d="M959.741 434.267H930.792C929.745 434.266 928.709 434.471 927.742 434.87C926.775 435.27 925.896 435.856 925.156 436.595C924.416 437.335 923.829 438.212 923.429 439.179C923.029 440.145 922.824 441.18 922.826 442.226C922.824 443.271 923.029 444.307 923.429 445.273C923.829 446.239 924.416 447.117 925.156 447.856C925.896 448.596 926.775 449.182 927.742 449.581C928.709 449.981 929.745 450.185 930.792 450.184H959.741C960.787 450.185 961.824 449.981 962.791 449.581C963.758 449.182 964.637 448.596 965.377 447.856C966.117 447.117 966.704 446.239 967.104 445.273C967.503 444.307 967.708 443.271 967.707 442.226C967.708 441.18 967.503 440.145 967.104 439.179C966.704 438.212 966.117 437.335 965.377 436.595C964.637 435.856 963.758 435.27 962.791 434.87C961.824 434.471 960.787 434.266 959.741 434.267Z" fill="#73381B"/>
<path id="Vector 24_2" d="M959.741 445.773H930.865C929.117 445.78 927.418 445.205 926.033 444.14C924.684 443.072 923.689 441.621 923.18 439.979C922.985 440.673 922.89 441.391 922.899 442.111C922.911 443.156 923.104 444.191 923.471 445.17C923.867 446.127 924.447 446.996 925.179 447.729C925.907 448.462 926.774 449.042 927.73 449.435C928.701 449.832 929.743 450.023 930.792 449.997H959.668C960.713 449.988 961.749 449.798 962.73 449.435C963.681 449.034 964.547 448.455 965.281 447.729C966.02 446.994 966.603 446.118 966.995 445.153C967.387 444.187 967.58 443.153 967.561 442.111C967.534 441.393 967.44 440.679 967.28 439.979C966.819 441.631 965.836 443.091 964.477 444.14C963.119 445.19 961.458 445.773 959.741 445.804V445.773Z" fill="#5F2411"/>
<path id="Vector 25_2" d="M953.764 436.899H936.769C936.517 436.898 936.266 436.947 936.033 437.042C935.799 437.138 935.587 437.278 935.408 437.456C935.229 437.634 935.086 437.846 934.99 438.079C934.893 438.312 934.843 438.561 934.843 438.814C934.841 439.067 934.89 439.318 934.987 439.552C935.083 439.786 935.225 439.999 935.404 440.178C935.583 440.357 935.796 440.498 936.03 440.594C936.265 440.691 936.516 440.739 936.769 440.738H953.764C954.017 440.74 954.267 440.691 954.501 440.594C954.735 440.498 954.947 440.356 955.125 440.177C955.304 439.998 955.445 439.785 955.54 439.551C955.635 439.317 955.683 439.066 955.68 438.814C955.681 438.562 955.633 438.312 955.537 438.079C955.441 437.847 955.3 437.635 955.122 437.457C954.943 437.279 954.732 437.138 954.499 437.042C954.266 436.947 954.016 436.898 953.764 436.899Z" fill="#895339"/>
</g>
</g>
<g id="Beard">
<path id="Dark-Front-Beard" d="M810.737 519.999C810.133 519.998 809.536 520.116 808.978 520.346C808.42 520.576 807.913 520.914 807.486 521.34C807.06 521.766 806.722 522.272 806.491 522.83C806.261 523.387 806.143 523.984 806.144 524.587V531.682C806.073 543.187 810.281 554.31 817.953 562.891L846.298 593.913C849.879 597.939 854.264 601.172 859.171 603.402C864.078 605.633 869.398 606.813 874.789 606.865H922.69C928.085 606.818 933.41 605.644 938.322 603.416C943.234 601.189 947.625 597.959 951.212 593.934L979.557 562.912C987.229 554.33 991.438 543.208 991.366 531.703V524.608C991.366 523.391 990.882 522.224 990.021 521.364C989.16 520.503 987.992 520.02 986.774 520.02L810.737 519.999Z" fill="#5F2411"/>
<path id="Front-Beard" d="M810.497 515.214C809.893 515.214 809.295 515.333 808.737 515.564C808.18 515.795 807.673 516.134 807.246 516.561C806.82 516.988 806.482 517.495 806.252 518.053C806.021 518.611 805.904 519.209 805.905 519.812V526.907C805.833 538.412 810.042 549.535 817.714 558.116L846.059 589.138C849.641 593.173 854.029 596.414 858.942 598.65C863.855 600.886 869.182 602.069 874.581 602.121H922.482C927.877 602.073 933.202 600.896 938.115 598.667C943.027 596.438 947.418 593.206 951.004 589.18L979.349 558.158C987.021 549.576 991.23 538.454 991.158 526.948V519.854C991.158 518.636 990.674 517.468 989.814 516.606C988.953 515.744 987.785 515.258 986.566 515.255L810.497 515.214Z" fill="#73381B"/>
</g>
<g id="mouth">
<path id="Vector 37" d="M876.643 533.138C873.596 533.138 870.671 534.33 868.494 536.46C866.317 538.589 865.063 541.487 865.001 544.53C864.947 546.545 865.451 548.536 866.458 550.283C869.857 556.245 874.775 561.202 880.713 564.651C886.651 568.099 893.397 569.916 900.265 569.916C907.134 569.916 913.879 568.099 919.817 564.651C925.755 561.202 930.673 556.245 934.072 550.283C935.051 548.527 935.549 546.546 935.518 544.537C935.487 542.528 934.927 540.563 933.895 538.839C932.843 537.124 931.384 535.695 929.646 534.678C927.889 533.687 925.906 533.167 923.888 533.169L876.643 533.138Z" fill="#921A1E"/>
<path id="Vector_14" d="M934.072 548.077C931.519 552.527 928.112 556.43 924.046 559.562C919.98 562.693 915.335 564.992 910.378 566.326C905.42 567.659 900.248 568.002 895.157 567.334C890.067 566.666 885.159 565.001 880.714 562.433C874.76 559.012 869.836 554.053 866.458 548.077C865.694 546.655 865.22 545.096 865.063 543.489C865.063 543.781 865.001 544.061 865.001 544.353C864.95 546.368 865.454 548.358 866.458 550.106C869.859 556.065 874.778 561.02 880.716 564.466C886.654 567.913 893.398 569.728 900.265 569.728C907.132 569.728 913.877 567.913 919.815 564.466C925.752 561.02 930.671 556.065 934.072 550.106C935.046 548.342 935.545 546.356 935.52 544.342C935.528 544.054 935.511 543.765 935.468 543.479C935.331 545.093 934.856 546.659 934.072 548.077Z" fill="#75101F"/>
<path id="Vector_15" d="M919.561 544.075C919.607 540.801 911.076 538.027 900.506 537.879C889.937 537.732 881.331 540.267 881.286 543.541C881.24 546.816 889.771 549.59 900.341 549.738C910.91 549.885 919.516 547.35 919.561 544.075Z" fill="#3F1215"/>
<path id="Teeth" d="M865.927 539.942V540.285C866.01 541.307 866.495 542.255 867.275 542.92C868.056 543.585 869.07 543.913 870.093 543.833H931.021C931.85 543.912 932.679 543.687 933.354 543.198C934.023 542.719 934.561 542.078 934.916 541.336C934.946 541.293 934.963 541.242 934.963 541.19C934.963 541.138 934.946 541.087 934.916 541.045C934.093 538.655 932.622 536.541 930.667 534.938C928.792 533.42 926.447 532.6 924.034 532.618H876.351C874.16 532.639 872.027 533.329 870.238 534.595C868.351 535.963 866.863 537.808 865.927 539.942Z" fill="white"/>
<path id="Vector_16" d="M908.82 546.454H892.929C888.742 546.456 884.692 547.939 881.497 550.642C878.301 553.345 876.168 557.091 875.476 561.216C877.04 562.478 878.694 563.625 880.423 564.649C886.397 568.111 893.181 569.934 900.088 569.934C906.995 569.934 913.779 568.111 919.754 564.649C921.976 563.359 924.069 561.858 926.002 560.165C925.133 556.265 922.955 552.779 919.829 550.285C916.704 547.791 912.82 546.439 908.82 546.454Z" fill="#C5515A"/>
<path id="Vector_17" d="M919.816 562.381C913.802 565.731 907.031 567.49 900.146 567.49C893.26 567.49 886.489 565.731 880.475 562.381C878.882 561.469 877.348 560.458 875.882 559.354C875.718 559.908 875.582 560.471 875.476 561.039C877.042 562.264 878.696 563.373 880.423 564.358C886.435 567.708 893.204 569.466 900.088 569.466C906.972 569.466 913.742 567.708 919.754 564.358C921.96 563.09 924.05 561.631 926.002 559.999C925.876 559.446 925.72 558.901 925.533 558.366C923.791 559.922 921.872 561.27 919.816 562.381Z" fill="#AA4952"/>
</g>
<g id="Shadow">
<path id="shadow-right" d="M945.6 508.036C926.856 508.036 911.673 491.859 911.673 471.968V453.523H979.526V471.968C979.526 491.848 964.344 508.036 945.6 508.036Z" fill="#DDA79C"/>
<path id="shadow-left" d="M860.085 508.036C841.341 508.036 826.159 491.984 826.159 472.259V453.95H894.012V472.259C894.012 491.984 878.788 508.036 860.085 508.036Z" fill="#DDA79C"/>
</g>
<g id="eyes">
<path id="left eye" d="M865.729 471.469C865.729 469.695 865.024 467.993 863.768 466.739C862.513 465.484 860.81 464.78 859.034 464.78C857.258 464.78 855.555 465.484 854.299 466.739C853.043 467.993 852.338 469.695 852.338 471.469V480.832C852.338 482.606 853.043 484.307 854.299 485.562C855.555 486.816 857.258 487.521 859.034 487.521C860.81 487.521 862.513 486.816 863.768 485.562C865.024 484.307 865.729 482.606 865.729 480.832V471.469Z" fill="#231F20"/>
<path id="right eye" d="M951.952 472.083C951.952 470.309 951.246 468.607 949.991 467.353C948.735 466.098 947.032 465.393 945.256 465.393C943.48 465.393 941.777 466.098 940.521 467.353C939.266 468.607 938.56 470.309 938.56 472.083V481.445C938.56 483.219 939.266 484.921 940.521 486.175C941.777 487.43 943.48 488.135 945.256 488.135C947.032 488.135 948.735 487.43 949.991 486.175C951.246 484.921 951.952 483.219 951.952 481.445V472.083Z" fill="#231F20"/>
</g>
<g id="Glasses">
<g id="bridge">
<path id="shadow" d="M909.288 463.094H891.627V469.596H909.288V463.094Z" fill="#DDA79C"/>
<path id="dark" d="M908.549 462.127H890.888V468.629H908.549V462.127Z" fill="black"/>
<path id="front" d="M908.549 461.024H890.888V467.526H908.549V461.024Z" fill="#0F1D2C"/>
</g>
<g id="glasses-shade">
<g id="left glass shade" opacity="0.6">
<path id="Vector 48" opacity="0.3" d="M852.151 459.994L830.512 480.665V481.445C830.601 484.226 831.268 486.957 832.469 489.466C833.752 491.984 835.522 494.222 837.676 496.051L875.456 459.963L852.151 459.994Z" fill="white"/>
</g>
<g id="left-glass-shade" opacity="0.6">
<path id="Vector 48_2" opacity="0.3" d="M937.79 459.786L915.089 478.72V479.448C915.193 482.026 915.906 484.543 917.171 486.793C918.567 489.161 920.435 491.219 922.659 492.837L962.261 459.786H937.79Z" fill="white"/>
</g>
</g>
<g id="Glasses-Handle-Shadow">
<path id="Vector_18" d="M826.773 455.001H810.612C808.587 455.001 806.946 456.64 806.946 458.663V459.1C806.946 461.122 808.587 462.761 810.612 462.761H826.773C828.798 462.761 830.439 461.122 830.439 459.1V458.663C830.439 456.64 828.798 455.001 826.773 455.001Z" fill="#DDA79C"/>
<path id="Vector_19" d="M991.106 453.971H978.381C976.356 453.971 974.715 455.61 974.715 457.633V459.349C974.715 461.372 976.356 463.011 978.381 463.011H991.106C993.13 463.011 994.771 461.372 994.771 459.349V457.633C994.771 455.61 993.13 453.971 991.106 453.971Z" fill="#DDA79C"/>
</g>
<g id="dark-glasses-border">
<path id="dark-left-glass-border" d="M856.961 506.995C838.217 506.995 823.035 491.245 823.035 471.906V453.95H890.888V471.906C890.888 491.245 875.664 506.995 856.961 506.995ZM828.846 459.973V471.906C828.846 487.926 841.456 500.962 856.961 500.962C872.467 500.962 885.077 487.926 885.077 471.906V459.973H828.846Z" fill="black"/>
<path id="dark-right-glass-border" d="M942.476 506.475C933.481 506.464 924.858 502.89 918.498 496.536C912.138 490.182 908.56 481.568 908.549 472.582V455.24H976.402V472.582C976.391 481.568 972.813 490.182 966.453 496.536C960.093 502.89 951.47 506.464 942.476 506.475ZM914.36 461.055V472.582C914.36 480.031 917.322 487.176 922.595 492.443C927.867 497.711 935.019 500.67 942.476 500.67C949.932 500.67 957.084 497.711 962.357 492.443C967.629 487.176 970.592 480.031 970.592 472.582V461.055H914.36Z" fill="black"/>
</g>
<g id="glasses-frame-border">
<path id="right-glass-border" d="M944.558 504.696C924.773 505.924 908.507 489.934 908.507 470.116V453.565H976.277V470.865C976.267 479.471 972.986 487.751 967.098 494.032C961.209 500.312 953.153 504.124 944.558 504.696ZM914.36 459.38V470.231C914.36 485.523 926.345 498.496 941.653 498.933C945.412 499.04 949.155 498.393 952.659 497.029C956.163 495.666 959.358 493.614 962.054 490.995C964.751 488.376 966.894 485.243 968.357 481.782C969.819 478.321 970.572 474.602 970.571 470.845V459.401H914.422L914.36 459.38Z" fill="#0F1D2C"/>
<path id="left-glass-border" d="M859.086 505.123C839.3 506.35 823.035 490.361 823.035 470.543V453.992H890.805V471.292C890.795 479.897 887.514 488.178 881.625 494.458C875.737 500.739 867.68 504.55 859.086 505.123ZM828.887 459.807V470.657C828.887 485.95 840.873 498.923 856.18 499.359C859.94 499.467 863.682 498.819 867.186 497.456C870.691 496.092 873.886 494.04 876.582 491.421C879.278 488.802 881.421 485.669 882.884 482.208C884.347 478.747 885.1 475.028 885.098 471.271V459.828H828.97L828.856 459.807H828.887Z" fill="#0F1D2C"/>
</g>
<g id="Dark-glasses-handle">
<path id="dark-left-glasses-handle" d="M824.607 452.223H804.405C802.381 452.223 800.74 453.863 800.74 455.885V456.322C800.74 458.344 802.381 459.984 804.405 459.984H824.607C826.632 459.984 828.273 458.344 828.273 456.322V455.885C828.273 453.863 826.632 452.223 824.607 452.223Z" fill="#0A1523"/>
<path id="dark-right-glasses-handle" d="M994.324 452.005H976.954C974.93 452.005 973.289 453.644 973.289 455.667V456.884C973.289 458.906 974.93 460.546 976.954 460.546H994.324C996.348 460.546 997.989 458.906 997.989 456.884V455.667C997.989 453.644 996.348 452.005 994.324 452.005Z" fill="black"/>
</g>
<g id="Glasses-Handle">
<path id="right-glasses-handle" d="M994.324 450.798H975.83C973.805 450.798 972.164 452.437 972.164 454.46V455.677C972.164 457.699 973.805 459.339 975.83 459.339H994.324C996.348 459.339 997.989 457.699 997.989 455.677V454.46C997.989 452.437 996.348 450.798 994.324 450.798Z" fill="#0F1D2C"/>
<path id="left-glasses-handle" d="M825.222 450.975H803.739C801.715 450.975 800.073 452.614 800.073 454.637V455.074C800.073 457.096 801.715 458.735 803.739 458.735H825.222C827.246 458.735 828.887 457.096 828.887 455.074V454.637C828.887 452.614 827.246 450.975 825.222 450.975Z" fill="#0F1D2C"/>
</g>
</g>
<g id="Top-Hair">
<g id="Shadow_2">
<path id="shadow-2" d="M902.384 328H985.691C988.152 328 990.512 328.977 992.252 330.715C993.992 332.453 994.969 334.811 994.969 337.269V393.446C994.969 403.516 990.965 413.174 983.837 420.295C976.709 427.416 967.041 431.417 956.961 431.417H902.384C892.304 431.417 882.636 427.416 875.508 420.295C868.38 413.174 864.376 403.516 864.376 393.446V365.971C864.376 355.901 868.38 346.243 875.508 339.122C882.636 332.001 892.304 328 902.384 328V328Z" fill="#DDA79C"/>
<path id="shadow-1" d="M841.081 340.941H851.047C857.772 340.941 864.221 343.61 868.976 348.361C873.732 353.111 876.403 359.555 876.403 366.273V413.305C876.403 417.742 874.639 421.997 871.499 425.134C868.359 428.271 864.099 430.033 859.658 430.033H841.081C830.818 430.033 820.976 425.96 813.719 418.711C806.462 411.461 802.385 401.628 802.385 391.376V379.599C802.385 369.347 806.462 359.514 813.719 352.264C820.976 345.014 830.818 340.941 841.081 340.941Z" fill="#DDA79C"/>
</g>
<g id="Dark-hair">
<path id="dark-fronthair-1" d="M833.459 340.941H848.475C851.807 340.937 855.108 341.59 858.188 342.861C861.268 344.132 864.067 345.997 866.425 348.35C868.782 350.702 870.653 353.496 871.929 356.572C873.205 359.647 873.862 362.944 873.862 366.273V409.05C873.864 411.251 873.431 413.43 872.588 415.462C871.745 417.495 870.509 419.342 868.951 420.897C867.392 422.452 865.542 423.684 863.506 424.524C861.47 425.363 859.289 425.793 857.086 425.789H833.459C828.373 425.794 823.335 424.798 818.635 422.857C813.935 420.916 809.664 418.069 806.066 414.477C802.468 410.886 799.614 406.621 797.668 401.927C795.721 397.233 794.72 392.202 794.721 387.121V379.599C794.721 374.519 795.723 369.489 797.671 364.796C799.618 360.103 802.472 355.84 806.07 352.249C809.667 348.659 813.938 345.812 818.638 343.872C823.337 341.932 828.373 340.936 833.459 340.941Z" fill="#5F2411"/>
<path id="darkhair-2" d="M900.145 332.494H992.262C994.722 332.494 997.082 333.471 998.822 335.209C1000.56 336.947 1001.54 339.305 1001.54 341.763V387.807C1001.54 392.795 1000.56 397.733 998.65 402.341C996.74 406.95 993.941 411.137 990.411 414.664C986.882 418.191 982.691 420.989 978.079 422.898C973.467 424.806 968.524 425.789 963.531 425.789H900.145C890.065 425.789 880.397 421.788 873.269 414.667C866.141 407.546 862.137 397.888 862.137 387.818V370.465C862.137 360.395 866.141 350.737 873.269 343.616C880.397 336.495 890.065 332.494 900.145 332.494Z" fill="#5F2411"/>
</g>
<g id="Front-Hair">
<path id="front-hair1" d="M833.459 334.596H848.475C851.807 334.591 855.108 335.244 858.188 336.515C861.268 337.786 864.067 339.651 866.425 342.004C868.782 344.357 870.653 347.15 871.929 350.226C873.205 353.301 873.862 356.598 873.862 359.927V404.535C873.862 408.972 872.098 413.227 868.958 416.364C865.818 419.501 861.559 421.264 857.118 421.264H833.459C828.373 421.269 823.337 420.273 818.638 418.333C813.938 416.393 809.667 413.546 806.07 409.956C802.472 406.365 799.618 402.102 797.671 397.409C795.723 392.716 794.721 387.686 794.721 382.606V373.243C794.722 368.164 795.726 363.135 797.674 358.443C799.621 353.751 802.476 349.489 806.073 345.9C809.671 342.311 813.941 339.465 818.64 337.525C823.339 335.586 828.374 334.59 833.459 334.596Z" fill="#73381B"/>
<path id="front-hair-2" d="M895.97 328H992.262C994.722 328 997.082 328.977 998.822 330.715C1000.56 332.453 1001.54 334.811 1001.54 337.269V382.252C1001.54 387.238 1000.56 392.176 998.647 396.783C996.737 401.39 993.937 405.576 990.408 409.102C986.878 412.628 982.688 415.425 978.077 417.333C973.465 419.241 968.523 420.223 963.531 420.223H895.97C885.889 420.223 876.222 416.223 869.094 409.102C861.966 401.981 857.961 392.323 857.961 382.252V365.971C857.961 355.901 861.966 346.243 869.094 339.122C876.222 332.001 885.889 328 895.97 328V328Z" fill="#73381B"/>
</g>
<g id="Glow">
<path id="glow-2" d="M978.839 339.079H901.208C898.499 339.079 896.303 341.273 896.303 343.979C896.303 346.685 898.499 348.879 901.208 348.879H978.839C981.548 348.879 983.744 346.685 983.744 343.979C983.744 341.273 981.548 339.079 978.839 339.079Z" fill="#895339"/>
<path id="glow-1" d="M811.164 377.175C809.831 377.201 808.534 376.747 807.509 375.896C807.058 375.522 806.692 375.057 806.433 374.531C806.175 374.006 806.03 373.432 806.009 372.848C806.051 369.591 806.811 366.383 808.237 363.453C809.662 360.524 811.718 357.945 814.256 355.901C819.863 351.291 826.916 348.801 834.177 348.869C835.51 348.843 836.807 349.297 837.832 350.148C838.283 350.522 838.649 350.987 838.907 351.512C839.166 352.038 839.31 352.611 839.332 353.196C839.326 353.784 839.188 354.363 838.928 354.89C838.669 355.418 838.294 355.881 837.832 356.244C836.811 357.102 835.51 357.554 834.177 357.514C829.534 357.462 825.022 359.054 821.442 362.008C819.839 363.311 818.542 364.949 817.642 366.808C816.742 368.667 816.262 370.7 816.235 372.764C816.25 373.356 816.121 373.942 815.86 374.473C815.599 375.003 815.213 375.463 814.735 375.813C813.771 376.719 812.487 377.208 811.164 377.175Z" fill="#895339"/>
</g>
</g>
</g>
<g id="hot-cup">
<g id="cup">
<path id="Vector_20" d="M1264.84 834.744C1260.99 834.744 1257.23 835.886 1254.03 838.024C1250.83 840.162 1248.34 843.201 1246.86 846.757C1245.39 850.312 1245.01 854.225 1245.76 857.999C1246.51 861.774 1248.36 865.241 1251.08 867.963C1253.8 870.684 1257.27 872.537 1261.05 873.288C1264.82 874.039 1268.73 873.653 1272.29 872.181C1275.84 870.708 1278.88 868.214 1281.02 865.014C1283.16 861.814 1284.3 858.052 1284.3 854.203C1284.3 849.042 1282.25 844.093 1278.6 840.444C1274.95 836.795 1270 834.744 1264.84 834.744ZM1264.84 866.178C1262.47 866.178 1260.16 865.475 1258.19 864.16C1256.22 862.844 1254.68 860.974 1253.78 858.786C1252.87 856.598 1252.63 854.19 1253.1 851.867C1253.56 849.544 1254.7 847.41 1256.37 845.736C1258.05 844.061 1260.18 842.921 1262.51 842.459C1264.83 841.997 1267.24 842.234 1269.42 843.14C1271.61 844.046 1273.48 845.581 1274.8 847.55C1276.11 849.52 1276.82 851.835 1276.82 854.203C1276.82 857.379 1275.55 860.425 1273.31 862.67C1271.06 864.916 1268.02 866.178 1264.84 866.178Z" fill="#EE4F4F"/>
<path id="Vector_21" opacity="0.1" d="M1264.44 835C1260.59 835 1256.83 836.141 1253.63 838.279C1250.43 840.418 1247.94 843.457 1246.47 847.012C1244.99 850.568 1244.61 854.48 1245.36 858.255C1246.11 862.03 1247.96 865.497 1250.68 868.218C1253.41 870.939 1256.87 872.793 1260.65 873.544C1264.42 874.294 1268.33 873.909 1271.89 872.436C1275.45 870.963 1278.48 868.469 1280.62 865.269C1282.76 862.069 1283.9 858.307 1283.9 854.459C1283.9 849.298 1281.85 844.349 1278.2 840.699C1274.55 837.05 1269.6 835 1264.44 835ZM1264.44 866.433C1262.07 866.433 1259.76 865.731 1257.79 864.415C1255.82 863.099 1254.29 861.229 1253.38 859.041C1252.47 856.853 1252.24 854.445 1252.7 852.123C1253.16 849.8 1254.3 847.666 1255.98 845.991C1257.65 844.317 1259.78 843.176 1262.11 842.714C1264.43 842.252 1266.84 842.489 1269.03 843.396C1271.21 844.302 1273.08 845.837 1274.4 847.806C1275.72 849.775 1276.42 852.09 1276.42 854.459C1276.42 857.635 1275.16 860.68 1272.91 862.926C1270.66 865.172 1267.62 866.433 1264.44 866.433Z" fill="#DC5A66"/>
<path id="Vector_22" d="M1190 819.776H1264.84V893.848C1264.84 896.434 1263.81 898.914 1261.99 900.743C1260.16 902.571 1257.68 903.598 1255.09 903.598H1199.75C1197.16 903.598 1194.68 902.571 1192.86 900.743C1191.03 898.914 1190 896.434 1190 893.848V819.776Z" fill="#DC5A66"/>
<path id="Vector_23" opacity="0.1" d="M1251.37 819.776V889.004C1251.37 892.875 1249.83 896.587 1247.1 899.324C1244.36 902.061 1240.65 903.598 1236.78 903.598H1244.26C1248.13 903.598 1251.84 902.061 1254.58 899.324C1257.32 896.587 1258.85 892.875 1258.85 889.004V819.776H1251.37Z" fill="black"/>
</g>
<path id="cup smoke" d="M1204.6 743.66C1203.33 743.959 1201.89 744.433 1201.27 745.989C1200.28 748.46 1202.07 751.246 1203.71 752.944C1206.73 756.081 1209.92 759.162 1211.97 763.54C1214.03 767.918 1214.67 774.028 1212.43 778.223C1209.49 783.702 1202.5 784.881 1201.82 791.624C1201.38 795.953 1204.1 799.646 1206.85 801.819C1213.65 807.18 1222.41 808.61 1227.33 817C1229.37 811.233 1233.92 807.899 1238.46 806.476C1243 805.052 1247.72 805.158 1252.32 804.193C1253.81 803.881 1255.48 803.256 1256.15 801.399C1257.43 797.802 1253.77 793.489 1255.03 789.878C1256 787.13 1258.83 787.343 1260.89 786.243C1264.26 784.451 1265.64 778.486 1264.69 773.695C1263.73 768.903 1261.04 765.158 1258.2 762.088C1250.55 753.814 1241.36 748.948 1232.06 745.448C1227.74 743.82 1222.66 741.268 1218.17 741.021C1213.84 740.783 1208.89 742.648 1204.6 743.66Z" fill="#EEEEEE"/>
</g>
<defs>
<clipPath id="clip0">
<rect width="551" height="582" fill="white" transform="translate(575 328)"/>
</clipPath>
</defs>
</svg>
