<svg width="50.75" height="57.625" viewBox="0 0 406 461" fill="none" xmlns="http://www.w3.org/2000/svg">
<circle id="Ellipse 1" cx="203" cy="258" r="203" fill="#500103"/>
<path id="Ellipse 2" d="M395 257.5C395 356.635 314.635 437 215.5 437C116.365 437 36 356.635 36 257.5C36 158.365 116.365 78 215.5 78C314.635 78 395 158.365 395 257.5Z" fill="#B24048"/>
<g id="ears">
<g id="left-ear">
<path id="Vector" d="M98.5225 138.912C74.2255 138.912 54.5288 158.627 54.5288 182.947C54.5288 207.266 74.2255 226.981 98.5225 226.981H141.522C165.819 226.981 185.516 207.266 185.516 182.947C185.516 158.627 165.819 138.912 141.522 138.912H98.5225Z" fill="#DB9C94"/>
<path id="Vector_2" d="M56.915 168.418C55.8665 172.252 55.3398 176.21 55.3491 180.185C55.3458 185.969 56.4815 191.696 58.6912 197.04C60.901 202.384 64.1414 207.24 68.2272 211.329C72.3131 215.419 77.1642 218.662 82.5032 220.874C87.8423 223.086 93.5645 224.223 99.3428 224.219H142.342C150.92 224.2 159.305 221.669 166.464 216.939C173.623 212.209 179.243 205.487 182.633 197.6C180.082 206.868 174.572 215.047 166.942 220.886C159.313 226.726 149.983 229.906 140.379 229.941H97.2798C89.984 229.941 82.8028 228.125 76.3826 224.657C69.9624 221.188 64.5049 216.176 60.5012 210.071C56.4976 203.967 54.0737 196.961 53.4476 189.686C52.8216 182.41 54.0131 175.093 56.915 168.393V168.418Z" fill="#D68C87"/>
<path id="Vector_3" d="M71.5298 187.126C71.1058 187.305 70.6505 187.398 70.1903 187.4C69.7301 187.402 69.2742 187.312 68.8488 187.136C68.4235 186.96 68.0373 186.702 67.7124 186.376C67.3876 186.049 67.1306 185.662 66.9564 185.235C65.9827 182.887 65.481 180.369 65.48 177.826C65.4789 175.283 65.9786 172.764 66.9503 170.415C67.9221 168.065 69.347 165.93 71.1435 164.132C72.94 162.333 75.073 160.907 77.4205 159.934C77.8445 159.755 78.2998 159.662 78.7599 159.661C79.2201 159.659 79.6761 159.748 80.1014 159.924C80.5268 160.1 80.913 160.359 81.2378 160.685C81.5627 161.011 81.8196 161.399 81.9938 161.825C82.3491 162.687 82.35 163.654 81.9962 164.516C81.6424 165.378 80.9626 166.065 80.1048 166.428C77.1037 167.703 74.7236 170.108 73.4775 173.123C72.2314 176.139 72.2193 179.524 73.4436 182.549C73.6184 182.975 73.7075 183.432 73.7059 183.892C73.7043 184.353 73.612 184.809 73.4343 185.234C73.2565 185.659 72.9969 186.045 72.6701 186.37C72.3433 186.694 71.9558 186.952 71.5298 187.126Z" fill="#E1ADA6"/>
</g>
<g id="right-ear">
<path id="Vector_4" d="M291.425 138.912C266.898 138.912 247.014 159.08 247.014 183.958C247.014 208.836 266.898 229.003 291.425 229.003H334.832C359.359 229.003 379.243 208.836 379.243 183.958C379.243 159.08 359.359 138.912 334.832 138.912H291.425Z" fill="#DB9C94"/>
<path id="Vector_5" d="M375.554 167.009C376.621 170.895 377.169 174.91 377.185 178.944C377.189 184.861 376.042 190.72 373.812 196.186C371.581 201.653 368.31 206.62 364.185 210.804C360.061 214.987 355.163 218.305 349.774 220.568C344.384 222.83 338.608 223.993 332.775 223.99H289.368C280.711 223.988 272.244 221.419 265.009 216.599C257.773 211.779 252.085 204.918 248.645 196.861C251.226 206.363 256.807 214.744 264.534 220.72C272.262 226.696 281.708 229.937 291.425 229.945H334.807C342.172 229.945 349.421 228.087 355.902 224.539C362.383 220.991 367.893 215.864 371.934 209.619C375.976 203.374 378.423 196.207 379.055 188.765C379.687 181.322 378.484 173.837 375.554 166.983V167.009Z" fill="#D68C87"/>
<path id="Vector_6" d="M365.593 186.248C366.035 186.395 366.501 186.453 366.964 186.418C367.428 186.382 367.88 186.254 368.294 186.042C368.709 185.829 369.079 185.535 369.381 185.178C369.684 184.82 369.915 184.406 370.06 183.958C370.854 181.481 371.16 178.87 370.96 176.274C370.76 173.678 370.057 171.147 368.892 168.826C367.727 166.505 366.122 164.44 364.17 162.748C362.218 161.056 359.956 159.771 357.514 158.967C356.622 158.67 355.651 158.744 354.813 159.174C353.976 159.603 353.341 160.353 353.048 161.257C352.755 162.161 352.829 163.147 353.252 163.996C353.676 164.846 354.414 165.49 355.306 165.787C358.429 166.852 361.013 169.119 362.501 172.1C363.989 175.081 364.262 178.535 363.26 181.718C363.116 182.171 363.063 182.648 363.103 183.122C363.143 183.596 363.275 184.057 363.492 184.479C363.709 184.9 364.007 185.273 364.368 185.577C364.728 185.881 365.145 186.109 365.593 186.248Z" fill="#E1ADA6"/>
</g>
</g>
<path id="side-hair" d="M352.984 104.428C352.984 92.9476 348.427 81.9372 340.317 73.8192C332.206 65.7011 321.206 61.1404 309.736 61.1404H124.639C113.169 61.1404 102.169 65.7011 94.0579 73.8192C85.9474 81.9372 81.3909 92.9476 81.3909 104.428C81.3781 111.545 83.1287 118.555 86.4862 124.828V191.352C86.4862 195.162 87.2358 198.934 88.6923 202.453C90.1487 205.973 92.2835 209.17 94.9746 211.864C97.6658 214.558 100.861 216.694 104.377 218.152C107.893 219.61 111.662 220.36 115.467 220.36H318.336C326.022 220.36 333.393 217.304 338.829 211.864C344.264 206.424 347.317 199.046 347.317 191.352V125.799C351.031 119.29 352.984 111.924 352.984 104.428Z" fill="#72361B"/>
<path id="face" d="M338.245 152.443C338.245 85.3653 283.917 30.9882 216.902 30.9882C149.886 30.9882 95.5583 85.3653 95.5583 152.443V226.082C95.5583 293.16 149.886 347.537 216.902 347.537C283.917 347.537 338.245 293.16 338.245 226.082V152.443Z" fill="#F0BEB4"/>
<g id="collar">
<path id="Vector_7" d="M273.422 338.904C273.422 305.365 246.259 278.177 212.751 278.177C179.243 278.177 152.079 305.365 152.079 338.904C152.079 372.443 179.243 399.632 212.751 399.632C246.259 399.632 273.422 372.443 273.422 338.904Z" fill="#DB9C94"/>
<path id="Vector_8" d="M304.64 340.173C304.64 300.144 268.302 267.703 223.463 267.703H216.454C171.715 267.703 135.277 300.045 135.277 340.173C135.282 345.199 135.865 350.208 137.017 355.1V407.966C137.017 415.18 146.959 418.788 152.75 413.688L169.378 399.084C183.476 407.949 199.805 412.609 216.454 412.518H223.513C239.982 412.601 256.142 408.04 270.141 399.358L286.62 413.688C292.486 418.663 302.503 415.18 302.503 407.966V356.841C303.949 351.403 304.685 345.8 304.69 340.173H304.64Z" fill="#7C1826"/>
<path id="Vector_9" d="M304.641 333.307C304.641 293.303 268.302 260.862 223.463 260.862H216.454C171.715 260.862 135.277 293.203 135.277 333.307C135.272 338.374 135.856 343.425 137.017 348.358V401.224C137.017 408.438 146.959 412.046 152.75 406.946L169.378 392.342C183.476 401.207 199.806 405.868 216.454 405.776H223.513C239.982 405.859 256.142 401.298 270.141 392.616L286.62 406.946C292.486 411.921 302.503 408.438 302.503 401.224V350C303.951 344.554 304.686 338.942 304.69 333.307H304.641Z" fill="#971B1F"/>
<path id="Vector_10" d="M279.735 335.073C279.735 301.534 252.572 274.346 219.064 274.346C185.556 274.346 158.392 301.534 158.392 335.073C158.392 368.612 185.556 395.8 219.064 395.8C252.572 395.8 279.735 368.612 279.735 335.073Z" fill="#DB9C94"/>
<path id="Vector_11" d="M219.586 359.13C258.818 359.13 290.622 330.594 290.622 295.392C290.622 260.191 258.818 231.655 219.586 231.655C180.354 231.655 148.55 260.191 148.55 295.392C148.55 330.594 180.354 359.13 219.586 359.13Z" fill="#D68C87"/>
</g>
<g id="left-eyebrow">
<path id="Vector_12" d="M180.812 134.282H140.173C137.723 134.275 135.343 133.463 133.399 131.971C131.455 130.479 130.054 128.389 129.411 126.022C129.142 126.987 129 127.982 128.989 128.983C128.989 131.952 130.167 134.8 132.265 136.899C134.362 138.999 137.207 140.178 140.173 140.178H180.812C183.778 140.178 186.623 138.999 188.721 136.899C190.818 134.8 191.997 131.952 191.997 128.983C191.985 127.982 191.843 126.987 191.574 126.022C190.928 128.387 189.526 130.474 187.582 131.966C185.639 133.458 183.261 134.271 180.812 134.282Z" fill="#DDA69C"/>
<path id="Vector_13" d="M180.837 115.399H140.173C133.996 115.399 128.989 120.412 128.989 126.595V126.619C128.989 132.802 133.996 137.815 140.173 137.815H180.837C187.014 137.815 192.021 132.802 192.021 126.619V126.595C192.021 120.412 187.014 115.399 180.837 115.399Z" fill="#72361B"/>
<path id="Vector_14" d="M180.812 131.645H140.174C137.723 131.638 135.343 130.826 133.399 129.334C131.455 127.842 130.054 125.752 129.411 123.385C129.144 124.35 129.002 125.345 128.989 126.346C128.985 127.817 129.272 129.274 129.833 130.634C130.394 131.994 131.218 133.229 132.257 134.269C133.297 135.31 134.531 136.134 135.889 136.695C137.248 137.257 138.704 137.544 140.174 137.541H180.812C182.282 137.544 183.737 137.257 185.096 136.695C186.454 136.134 187.689 135.31 188.728 134.269C189.767 133.229 190.591 131.994 191.152 130.634C191.713 129.274 192 127.817 191.997 126.346C191.984 125.345 191.842 124.35 191.574 123.385C190.928 125.75 189.526 127.837 187.582 129.329C185.639 130.82 183.261 131.634 180.812 131.645Z" fill="#5F220E"/>
<path id="Vector_15" d="M172.435 119.081H148.574C147.106 119.081 145.915 120.273 145.915 121.743V121.768C145.915 123.238 147.106 124.43 148.574 124.43H172.435C173.904 124.43 175.095 123.238 175.095 121.768V121.743C175.095 120.273 173.904 119.081 172.435 119.081Z" fill="#885238"/>
</g>
<g id="right-eyebrow">
<path id="Vector_16" d="M300.316 134.381H259.677C257.226 134.379 254.844 133.568 252.899 132.076C250.954 130.583 249.554 128.491 248.915 126.122C248.597 127.104 248.413 128.125 248.368 129.157C248.375 132.128 249.559 134.976 251.66 137.075C253.762 139.174 256.609 140.352 259.578 140.352H300.316C303.282 140.352 306.127 139.173 308.225 137.073C310.322 134.974 311.5 132.126 311.5 129.157C311.493 128.154 311.342 127.157 311.053 126.197C310.405 128.549 309.004 130.624 307.064 132.103C305.125 133.581 302.754 134.382 300.316 134.381Z" fill="#DDA69C"/>
<path id="Vector_17" d="M300.34 115.499H259.677C253.5 115.499 248.492 120.511 248.492 126.694V126.719C248.492 132.902 253.5 137.914 259.677 137.914H300.34C306.518 137.914 311.525 132.902 311.525 126.719V126.694C311.525 120.511 306.518 115.499 300.34 115.499Z" fill="#72361B"/>
<path id="Vector_18" d="M300.316 131.645H259.677C257.226 131.642 254.844 130.832 252.899 129.339C250.954 127.846 249.554 125.754 248.915 123.385C248.638 124.348 248.487 125.344 248.468 126.346C248.474 129.317 249.658 132.165 251.76 134.264C253.861 136.362 256.709 137.541 259.677 137.541H300.316C303.282 137.541 306.127 136.362 308.225 134.262C310.322 132.163 311.5 129.315 311.5 126.346C311.493 125.343 311.342 124.346 311.053 123.385C310.419 125.752 309.024 127.844 307.083 129.337C305.142 130.83 302.764 131.641 300.316 131.645Z" fill="#5F220E"/>
<path id="Vector_19" d="M291.915 119.181H268.054C266.585 119.181 265.394 120.373 265.394 121.843V121.868C265.394 123.338 266.585 124.53 268.054 124.53H291.915C293.383 124.53 294.574 123.338 294.574 121.868V121.843C294.574 120.373 293.383 119.181 291.915 119.181Z" fill="#885238"/>
</g>
<g id="nose">
<path id="Vector_20" d="M219.064 199.96C214.489 199.962 210.075 201.649 206.664 204.701C203.254 207.752 201.085 211.954 200.572 216.504C200.54 216.767 200.564 217.034 200.644 217.287C200.723 217.54 200.855 217.773 201.032 217.971C201.208 218.168 201.425 218.326 201.667 218.434C201.909 218.541 202.171 218.596 202.436 218.594H235.717C235.98 218.592 236.239 218.535 236.478 218.426C236.717 218.317 236.931 218.159 237.104 217.961C237.278 217.764 237.408 217.532 237.486 217.281C237.564 217.03 237.588 216.765 237.556 216.504C237.043 211.954 234.874 207.752 231.463 204.701C228.053 201.649 223.639 199.962 219.064 199.96Z" fill="#ECB8B0"/>
<path id="Vector_21" d="M200.547 216.852C200.533 217.106 200.571 217.359 200.659 217.597C200.747 217.835 200.882 218.053 201.056 218.237C201.231 218.42 201.441 218.567 201.674 218.667C201.907 218.767 202.158 218.818 202.411 218.818H235.593C235.846 218.818 236.097 218.767 236.33 218.667C236.563 218.567 236.773 218.42 236.947 218.237C237.122 218.053 237.257 217.835 237.345 217.597C237.432 217.359 237.47 217.106 237.457 216.852H200.547Z" fill="#DDA69C"/>
<path id="Vector_22" d="M229.603 210.832H208.55C207.452 210.832 206.562 211.723 206.562 212.822C206.562 213.921 207.452 214.812 208.55 214.812H229.603C230.701 214.812 231.591 213.921 231.591 212.822C231.591 211.723 230.701 210.832 229.603 210.832Z" fill="#EFC5BD"/>
</g>
<g id="Beard">
<path id="Vector_23" d="M101.3 222.127C99.788 222.12 98.3351 222.713 97.259 223.776C96.183 224.839 95.5715 226.285 95.5583 227.799C95.5583 260.011 108.343 290.903 131.099 313.68C153.855 336.457 184.719 349.253 216.902 349.253C249.084 349.253 279.948 336.457 302.704 313.68C325.46 290.903 338.245 260.011 338.245 227.799C338.232 226.285 337.62 224.839 336.544 223.776C335.468 222.713 334.015 222.12 332.503 222.127H101.3Z" fill="#72361B"/>
<path id="Vector_24" d="M337.847 226.182C335.78 256.907 322.129 285.7 299.657 306.733C277.185 327.766 247.569 339.47 216.802 339.476C186.052 339.445 156.461 327.73 134.01 306.699C111.559 285.668 97.9225 256.89 95.8566 226.182C95.6669 226.743 95.5663 227.331 95.5583 227.923C95.5583 260.135 108.343 291.027 131.099 313.805C153.855 336.582 184.719 349.378 216.902 349.378C249.084 349.378 279.948 336.582 302.704 313.805C325.46 291.027 338.245 260.135 338.245 227.923C338.205 227.325 338.071 226.737 337.847 226.182Z" fill="#5F220E"/>
<path id="Vector_25" d="M184.242 304.771H160.381C158.912 304.771 157.721 305.963 157.721 307.433V307.458C157.721 308.928 158.912 310.12 160.381 310.12H184.242C185.711 310.12 186.901 308.928 186.901 307.458V307.433C186.901 305.963 185.711 304.771 184.242 304.771Z" fill="#885238"/>
<path id="Vector_26" d="M137.017 231.207H113.156C111.687 231.207 110.496 232.399 110.496 233.869V233.894C110.496 235.364 111.687 236.556 113.156 236.556H137.017C138.486 236.556 139.676 235.364 139.676 233.894V233.869C139.676 232.399 138.486 231.207 137.017 231.207Z" fill="#885238"/>
</g>
<g id="mouth">
<path id="Vector_27" d="M181.259 235.685C177.808 235.691 174.417 236.595 171.421 238.31C168.425 240.025 165.926 242.49 164.17 245.465C162.415 248.439 161.463 251.82 161.409 255.274C161.355 258.728 162.2 262.137 163.861 265.166C169.685 275.412 178.116 283.931 188.297 289.858C198.478 295.784 210.045 298.906 221.823 298.906C233.601 298.906 245.168 295.784 255.349 289.858C265.53 283.931 273.961 275.412 279.785 265.166C281.446 262.137 282.291 258.728 282.237 255.274C282.183 251.82 281.231 248.439 279.475 245.465C277.72 242.49 275.221 240.025 272.225 238.31C269.229 236.595 265.838 235.691 262.387 235.685H181.259Z" fill="#790410"/>
<path id="Vector_28" d="M279.711 259.667C273.887 269.914 265.455 278.433 255.274 284.36C245.093 290.286 233.526 293.408 221.748 293.408C209.971 293.408 198.403 290.286 188.222 284.36C178.041 278.433 169.61 269.914 163.786 259.667C162.575 257.54 161.782 255.201 161.45 252.776C160.786 257.068 161.61 261.458 163.786 265.215C169.61 275.461 178.041 283.981 188.222 289.908C198.403 295.834 209.971 298.956 221.748 298.956C233.526 298.956 245.093 295.834 255.274 289.908C265.455 283.981 273.887 275.461 279.711 265.215C281.886 261.458 282.711 257.068 282.047 252.776C281.726 255.204 280.932 257.545 279.711 259.667Z" fill="#5F0613"/>
<path id="Vector_29" d="M253.563 286.61C253.563 280.012 250.944 273.685 246.283 269.019C241.622 264.353 235.3 261.732 228.708 261.732H162.195C162.602 262.894 163.109 264.018 163.711 265.091C172.308 280.233 186.481 291.409 203.202 296.229C219.922 301.05 237.863 299.134 253.19 290.889C253.436 289.476 253.561 288.045 253.563 286.61Z" fill="#C55159"/>
<path id="Teeth" d="M163.065 246.557V247.03C163.065 249.94 166.247 252.304 170.149 252.304H274.342C275.734 252.406 277.124 252.091 278.337 251.4C279.55 250.709 280.53 249.673 281.152 248.423C279.673 244.663 277.096 241.436 273.758 239.164C270.419 236.891 266.474 235.679 262.436 235.685H180.911C177.225 235.679 173.609 236.69 170.46 238.608C167.311 240.526 164.753 243.277 163.065 246.557Z" fill="white"/>
<path id="Vector_30" d="M253.165 286.461C237.838 294.588 219.993 296.562 203.263 291.982C186.533 287.401 172.176 276.611 163.115 261.807H162.195C162.602 262.969 163.109 264.092 163.711 265.166C172.308 280.307 186.481 291.483 203.202 296.304C219.922 301.125 237.863 299.208 253.19 290.964C253.449 289.527 253.582 288.07 253.588 286.61C253.588 285.839 253.588 285.093 253.588 284.347C253.339 285.043 253.339 285.889 253.165 286.461Z" fill="#B34C56"/>
</g>
<g id="eyes">
<path id="left-eye" d="M172.311 162.867C172.311 157.467 167.938 153.09 162.543 153.09C157.148 153.09 152.775 157.467 152.775 162.867V176.525C152.775 181.925 157.148 186.302 162.543 186.302C167.938 186.302 172.311 181.925 172.311 176.525V162.867Z" fill="#231F20"/>
<path id="right-eye" d="M284.508 162.867C284.508 157.467 280.134 153.09 274.74 153.09C269.345 153.09 264.972 157.467 264.972 162.867V176.525C264.972 181.925 269.345 186.302 274.74 186.302C280.134 186.302 284.508 181.925 284.508 176.525V162.867Z" fill="#231F20"/>
</g>
<g id="glasses">
<path id="Vector_31" d="M244.665 143.661H125.956C124.269 143.661 122.65 144.332 121.457 145.526C120.264 146.721 119.593 148.341 119.593 150.03V180.879C119.593 201.378 139.627 218.196 164.333 218.196C189.039 218.196 209.072 201.503 209.072 180.879V156.722H230.97V180.879C230.97 201.378 251.003 218.196 275.709 218.196C300.415 218.196 320.448 201.503 320.448 180.879V150.03C320.448 148.341 319.778 146.721 318.585 145.526C317.391 144.332 315.773 143.661 314.085 143.661H244.665ZM193.239 180.978C193.239 194.288 180.24 205.11 164.258 205.11C148.276 205.11 135.277 194.288 135.277 180.978V156.822H193.239V180.978ZM304.64 180.978C304.64 194.288 291.641 205.11 275.659 205.11C259.677 205.11 246.678 194.288 246.678 180.978V156.822H304.64V180.978Z" fill="#971B1F"/>
<path id="Vector_32" d="M190.505 146.174H166.371C164.861 146.174 163.637 147.399 163.637 148.91C163.637 150.422 164.861 151.647 166.371 151.647H190.505C192.015 151.647 193.239 150.422 193.239 148.91C193.239 147.399 192.015 146.174 190.505 146.174Z" fill="#B24048"/>
<path id="Vector_33" d="M306.604 147.617H282.47C280.96 147.617 279.735 148.842 279.735 150.353C279.735 151.865 280.96 153.09 282.47 153.09H306.604C308.114 153.09 309.338 151.865 309.338 150.353C309.338 148.842 308.114 147.617 306.604 147.617Z" fill="#B24048"/>
<path id="Vector_34" d="M126.727 159.956C126.226 159.956 125.745 159.757 125.391 159.402C125.037 159.048 124.838 158.567 124.838 158.065C124.838 155.298 125.934 152.645 127.887 150.686C129.839 148.727 132.488 147.623 135.252 147.617C135.753 147.617 136.234 147.816 136.588 148.17C136.942 148.525 137.141 149.006 137.141 149.507C137.141 150.011 136.943 150.495 136.589 150.853C136.236 151.212 135.755 151.416 135.252 151.423C133.492 151.423 131.804 152.123 130.559 153.368C129.315 154.614 128.616 156.304 128.616 158.065C128.616 158.567 128.417 159.048 128.063 159.402C127.708 159.757 127.228 159.956 126.727 159.956Z" fill="#B24048"/>
<path id="Vector_35" d="M239.346 159.26C238.845 159.26 238.364 159.06 238.01 158.706C237.656 158.351 237.457 157.87 237.457 157.369C237.463 154.606 238.563 151.959 240.514 150.005C242.466 148.052 245.111 146.952 247.871 146.945C248.372 146.945 248.853 147.144 249.207 147.499C249.561 147.853 249.76 148.334 249.76 148.836C249.76 149.337 249.561 149.818 249.207 150.173C248.853 150.527 248.372 150.726 247.871 150.726C246.113 150.733 244.429 151.435 243.186 152.679C241.943 153.923 241.241 155.609 241.235 157.369C241.235 157.87 241.036 158.351 240.681 158.706C240.327 159.06 239.847 159.26 239.346 159.26Z" fill="#B24048"/>
<path id="Vector_36" d="M189.138 200.98C189.195 201.48 189.445 201.938 189.836 202.254C190.226 202.571 190.726 202.721 191.226 202.672C193.975 202.371 196.493 200.993 198.231 198.84C199.968 196.686 200.783 193.931 200.497 191.178C200.424 190.697 200.168 190.263 199.784 189.965C199.399 189.668 198.914 189.531 198.43 189.582C197.947 189.633 197.502 189.869 197.188 190.241C196.873 190.612 196.715 191.09 196.744 191.576C196.925 193.331 196.404 195.085 195.295 196.456C194.187 197.827 192.58 198.702 190.828 198.89C190.329 198.947 189.872 199.198 189.555 199.589C189.239 199.98 189.089 200.479 189.138 200.98Z" fill="#B24048"/>
<path id="Vector_37" d="M298.949 200.98C298.999 201.478 299.244 201.935 299.631 202.253C300.017 202.57 300.514 202.72 301.011 202.672C303.765 202.377 306.29 201.002 308.032 198.847C309.775 196.693 310.593 193.935 310.307 191.178C310.255 190.677 310.005 190.217 309.614 189.899C309.222 189.582 308.721 189.434 308.22 189.486C307.719 189.539 307.259 189.789 306.942 190.181C306.625 190.573 306.477 191.075 306.529 191.576C306.696 193.328 306.161 195.073 305.043 196.431C303.924 197.788 302.314 198.646 300.564 198.816C300.315 198.849 300.075 198.932 299.858 199.059C299.641 199.187 299.452 199.356 299.302 199.558C299.151 199.76 299.043 199.989 298.982 200.233C298.921 200.478 298.91 200.731 298.949 200.98Z" fill="#B24048"/>
<g id="left-glass-shade" opacity="0.3">
<path id="Vector_38" opacity="0.3" d="M158.467 156.822L135.277 180.058V180.978C135.331 184.1 136.048 187.174 137.381 189.996C138.714 192.819 140.631 195.325 143.007 197.348L183.471 156.822H158.467Z" fill="white"/>
<path id="Vector_39" opacity="0.3" d="M171.714 143.76L171.615 143.661L171.516 143.76H171.714Z" fill="white"/>
</g>
<g id="right-glass-shade" opacity="0.3">
<path id="Vector_40" opacity="0.3" d="M269.868 156.822L246.678 180.058V180.978C246.737 184.099 247.456 187.171 248.788 189.993C250.121 192.815 252.036 195.322 254.408 197.348L294.872 156.822H269.868Z" fill="white"/>
<path id="Vector_41" opacity="0.3" d="M283.139 143.76L283.041 143.661L282.917 143.76H283.139Z" fill="white"/>
</g>
</g>
<g id="Hair">
<path id="Vector_42" d="M212.974 17.3868C206.99 17.4609 201.099 18.7777 195.726 21.2419C190.352 23.7062 185.632 27.2563 181.905 31.6356C178.109 27.2606 173.332 23.7173 167.913 21.2554C162.493 18.7936 156.562 17.473 150.538 17.3868C126.18 17.3868 106.42 38.8878 106.42 65.3864C106.42 91.885 126.18 113.409 150.538 113.409C157.378 113.271 164.079 111.575 170.06 108.469C176.042 105.362 181.123 100.938 184.863 95.5808C188.525 99.0937 192.895 101.894 197.719 103.821C202.544 105.748 207.729 106.763 212.974 106.808H282.967C306.455 106.808 325.519 86.7945 325.519 62.109V17.3868H212.974Z" fill="#DDA69C"/>
<path id="Vector_43" d="M212.154 10.4135C205.598 10.414 199.113 11.6797 193.104 14.1314C187.095 16.5832 181.692 20.1682 177.233 24.6623C172.704 20.1756 167.246 16.5984 161.19 14.1487C155.135 11.699 148.61 10.4281 142.013 10.4135C114.672 10.4135 92.4266 31.9145 92.4266 58.4131C92.4266 84.9116 114.622 106.436 142.013 106.436C149.467 106.411 156.816 104.791 163.498 101.701C170.18 98.611 176.017 94.1322 180.563 88.6075C189.266 95.8452 200.508 99.8406 212.154 99.8345H290.796C303.473 99.8345 315.63 95.1252 324.593 86.7425C333.557 78.3599 338.593 66.9905 338.593 55.1356V10.4135H212.154Z" fill="#5F220E"/>
<path id="Vector_44" d="M212.154 0.0929619C205.607 0.077222 199.127 1.32412 193.118 3.75575C187.11 6.18738 181.702 9.75151 177.233 14.2255C172.703 9.74205 167.244 6.16845 161.188 3.7227C155.133 1.27694 148.609 0.0103143 142.013 0C114.672 0 92.4266 21.4778 92.4266 47.9996C92.4266 74.5214 114.622 95.9992 142.013 95.9992C149.467 95.9759 156.817 94.3571 163.499 91.2668C170.181 88.1765 176.018 83.6967 180.563 78.1708C189.272 85.399 200.51 89.3931 212.154 89.3978H290.796C303.473 89.3978 315.63 84.6885 324.593 76.3058C333.557 67.9231 338.593 56.5538 338.593 44.6989V0.0929619H212.154Z" fill="#72361B"/>
<path id="Vector_45" d="M277.349 10.7854H219.884C213.707 10.7854 208.699 15.4685 208.699 21.2454V21.2686C208.699 27.0455 213.707 31.7286 219.884 31.7286H277.349C283.527 31.7286 288.534 27.0455 288.534 21.2686V21.2454C288.534 15.4685 283.527 10.7854 277.349 10.7854Z" fill="#885238"/>
<path id="Vector_46" d="M116.636 54.5778C115.185 54.5778 113.795 54.039 112.769 53.08C111.744 52.121 111.167 50.8203 111.167 49.464C111.154 41.988 114.314 34.8126 119.953 29.5132C125.591 24.2138 133.248 21.2235 141.242 21.1989C142.692 21.1989 144.083 21.7376 145.109 22.6966C146.134 23.6557 146.71 24.9564 146.71 26.3126C146.71 27.6689 146.134 28.9696 145.109 29.9286C144.083 30.8876 142.692 31.4264 141.242 31.4264C136.151 31.4325 131.27 33.3283 127.673 36.6973C124.075 40.0662 122.054 44.6329 122.054 49.3943C122.067 50.7527 121.505 52.0608 120.489 53.0323C119.474 54.0037 118.088 54.5594 116.636 54.5778Z" fill="#885238"/>
</g>
</svg>
