<svg width="70.75" height="77.625" viewBox="0 0 445 525" fill="none" xmlns="http://www.w3.org/2000/svg">
<circle id="Ellipse 1" cx="222.5" cy="302.458" r="222.5" fill="#250640"/>
<path id="Ellipse 2" d="M432 300.958C432 409.759 344.472 497.958 236.5 497.958C128.528 497.958 41 409.759 41 300.958C41 192.158 128.528 103.958 236.5 103.958C344.472 103.958 432 192.158 432 300.958Z" fill="#72439A"/>
<path id="backhair" d="M200.608 27H272.392C302.257 27 330.9 37.7991 352.018 57.0218C373.136 76.2444 385 102.316 385 129.501V369.609C385 382.443 379.399 394.751 369.429 403.826C359.459 412.902 345.936 418 331.837 418H141.163C127.064 418 113.541 412.902 103.571 403.826C93.6011 394.751 88 382.443 88 369.609V129.501C88 102.316 99.8641 76.2444 120.982 57.0218C142.1 37.7991 170.743 27 200.608 27V27Z" fill="#072132"/>
<g id="ears">
<g id="right-ear">
<path id="Vector" d="M353.155 234.186C367.576 234.186 379.267 222.502 379.267 208.088C379.267 193.674 367.576 181.989 353.155 181.989C338.733 181.989 327.043 193.674 327.043 208.088C327.043 222.502 338.733 234.186 353.155 234.186Z" fill="#EFBDB4"/>
<path id="Vector_2" d="M352.691 222.151C360.462 222.151 366.762 215.855 366.762 208.088C366.762 200.321 360.462 194.024 352.691 194.024C344.92 194.024 338.62 200.321 338.62 208.088C338.62 215.855 344.92 222.151 352.691 222.151Z" fill="#DDA79C"/>
</g>
<g id="left-ear">
<path id="Vector_3" d="M126.715 234.186C141.137 234.186 152.828 222.502 152.828 208.088C152.828 193.674 141.137 181.989 126.715 181.989C112.294 181.989 100.603 193.674 100.603 208.088C100.603 222.502 112.294 234.186 126.715 234.186Z" fill="#EFBDB4"/>
<path id="Vector_4" d="M126.252 222.151C134.023 222.151 140.323 215.855 140.323 208.088C140.323 200.321 134.023 194.024 126.252 194.024C118.481 194.024 112.181 200.321 112.181 208.088C112.181 215.855 118.481 222.151 126.252 222.151Z" fill="#DDA79C"/>
</g>
</g>
<g id="ear-rings">
<path id="Vector_5" d="M122.831 241.588C126.914 241.588 130.224 238.28 130.224 234.199C130.224 230.118 126.914 226.81 122.831 226.81C118.748 226.81 115.439 230.118 115.439 234.199C115.439 238.28 118.748 241.588 122.831 241.588Z" fill="#EAE4E4"/>
<path id="Vector_6" d="M356.663 240.348C360.746 240.348 364.056 237.04 364.056 232.959C364.056 228.878 360.746 225.57 356.663 225.57C352.58 225.57 349.27 228.878 349.27 232.959C349.27 237.04 352.58 240.348 356.663 240.348Z" fill="#EAE4E4"/>
</g>
<g id="collar">
<path id="Vector 20" d="M239.91 280.836C196.381 281.95 161.974 318.531 163.102 362.576C164.23 406.62 200.479 441.398 244.007 440.283C287.536 439.168 321.943 402.588 320.815 358.531C319.687 314.474 283.451 279.721 239.91 280.836Z" fill="#D3A09B"/>
</g>
<path id="face" d="M352.95 176.984C352.95 122.839 302.365 78.9585 239.95 78.9585C177.535 78.9585 127 122.839 127 176.984V236.356C127 290.488 177.385 367.958 239.8 367.958C302.215 367.958 353 290.501 353 236.356L352.95 176.984Z" fill="#EFBDB4"/>
<g id="nose">
<path id="Vector 30" d="M239.71 245.533C236.686 245.529 233.766 246.634 231.503 248.638C229.255 250.665 227.817 253.436 227.456 256.44C227.444 256.623 227.469 256.806 227.531 256.979C227.575 257.154 227.666 257.314 227.794 257.442C227.907 257.569 228.038 257.678 228.182 257.768C228.351 257.85 228.534 257.897 228.721 257.906H250.811C250.997 257.889 251.179 257.843 251.35 257.768C251.506 257.695 251.639 257.583 251.738 257.442C251.866 257.314 251.957 257.154 252.002 256.979C252.064 256.794 252.086 256.597 252.064 256.403C251.736 253.389 250.292 250.606 248.017 248.601C245.714 246.601 242.76 245.51 239.71 245.533Z" fill="#EBB8B0"/>
<path id="Vector 31" d="M227.393 256.716C227.379 256.873 227.4 257.031 227.455 257.179C227.53 257.304 227.593 257.505 227.731 257.567C227.843 257.679 227.974 257.768 228.119 257.83C228.262 257.909 228.42 257.956 228.583 257.968H250.56C250.725 257.968 250.886 257.92 251.024 257.83C251.175 257.773 251.312 257.683 251.425 257.567C251.536 257.456 251.626 257.324 251.688 257.179C251.738 257.03 251.759 256.873 251.751 256.716H227.393Z" fill="#DDA79C"/>
<path id="Vector 32" d="M246.664 252.646H232.693C232.341 252.646 232.003 252.786 231.754 253.035C231.505 253.284 231.365 253.621 231.365 253.973C231.365 254.325 231.505 254.663 231.754 254.912C232.003 255.161 232.341 255.301 232.693 255.301H246.664C247.016 255.301 247.354 255.161 247.603 254.912C247.852 254.663 247.992 254.325 247.992 253.973C247.992 253.621 247.852 253.284 247.603 253.035C247.354 252.786 247.016 252.646 246.664 252.646Z" fill="#F0C6BE"/>
</g>
<g id="eyebrows">
<g id="left eyebrow">
<path id="Vector 22" d="M200.992 189.478H172.462C170.689 189.448 168.989 188.766 167.688 187.562C166.309 186.212 165.336 184.503 164.881 182.628C164.68 183.447 164.583 184.289 164.593 185.132C164.566 187.536 165.387 189.873 166.911 191.732C167.575 192.574 168.417 193.258 169.377 193.737C170.336 194.215 171.39 194.476 172.462 194.5H200.992C202.064 194.476 203.118 194.215 204.077 193.737C205.037 193.258 205.879 192.574 206.543 191.732C208.067 189.873 208.888 187.536 208.861 185.132C208.839 184.291 208.743 183.453 208.573 182.628C208.216 184.54 207.228 186.278 205.766 187.562C204.473 188.779 202.768 189.463 200.992 189.478V189.478Z" fill="#DDA79C"/>
<path id="Vector 23" d="M200.992 173.749H172.399C168.039 173.749 164.518 177.919 164.518 183.104C164.518 188.288 168.039 192.471 172.399 192.471H200.992C205.353 192.471 208.861 188.288 208.861 183.104C208.861 177.856 205.353 173.749 200.992 173.749Z" fill="#072132"/>
<path id="Vector 25" d="M195.091 176.779H178.301C177.75 176.827 177.24 177.091 176.883 177.514C176.526 177.936 176.351 178.483 176.396 179.034C176.351 179.585 176.526 180.131 176.883 180.554C177.24 180.976 177.75 181.24 178.301 181.288H195.091C195.64 181.237 196.146 180.972 196.5 180.55C196.855 180.127 197.028 179.583 196.983 179.034V179.034C197.028 178.485 196.855 177.94 196.5 177.518C196.146 177.096 195.64 176.83 195.091 176.779Z" fill="#143748"/>
</g>
<g id="right eyebrow">
<path id="Vector 26" d="M307.534 188.426H279.103C277.331 188.41 275.631 187.726 274.342 186.51C272.95 185.14 271.977 183.403 271.535 181.501C271.321 182.319 271.204 183.16 271.184 184.005C271.157 186.413 271.977 188.754 273.502 190.618C274.162 191.457 275 192.139 275.956 192.616C276.911 193.092 277.961 193.351 279.028 193.373H307.534C308.603 193.351 309.654 193.092 310.612 192.616C311.569 192.14 312.409 191.457 313.072 190.618C314.588 188.75 315.403 186.411 315.377 184.005C315.353 183.164 315.261 182.327 315.102 181.501C314.696 183.395 313.716 185.118 312.295 186.435C311.672 187.064 310.93 187.564 310.113 187.906C309.296 188.248 308.419 188.424 307.534 188.426Z" fill="#DDA79C"/>
<path id="Vector 27" d="M307.533 172.634H279.028C274.693 172.634 271.184 176.804 271.184 181.989C271.184 187.174 274.693 191.357 279.028 191.357H307.533C311.881 191.357 315.377 187.174 315.377 181.989C315.377 176.804 311.881 172.634 307.533 172.634Z" fill="#072132"/>
<path id="Vector 28" d="M307.534 186.084H279.103C277.331 186.068 275.631 185.384 274.342 184.168C272.921 182.82 271.943 181.074 271.535 179.159C271.345 179.98 271.253 180.821 271.26 181.664C271.231 184.069 272.047 186.409 273.565 188.276C274.227 189.115 275.068 189.798 276.025 190.274C276.983 190.751 278.034 191.009 279.103 191.031H307.534C308.603 191.009 309.654 190.751 310.612 190.274C311.569 189.798 312.409 189.115 313.072 188.276C314.59 186.409 315.405 184.069 315.377 181.664C315.353 180.823 315.261 179.985 315.102 179.159C314.72 181.083 313.737 182.837 312.295 184.168C311.008 185.386 309.306 186.071 307.534 186.084Z" fill="#0B161E"/>
<path id="Vector 29" d="M301.657 175.715H284.917C284.367 175.769 283.861 176.037 283.507 176.461C283.153 176.885 282.98 177.431 283.025 177.982C282.98 178.531 283.153 179.075 283.508 179.498C283.862 179.92 284.368 180.185 284.917 180.236H301.657C302.206 180.185 302.713 179.92 303.067 179.498C303.421 179.075 303.594 178.531 303.549 177.982V177.982C303.594 177.431 303.422 176.885 303.068 176.461C302.714 176.037 302.207 175.769 301.657 175.715V175.715Z" fill="#143748"/>
</g>
</g>
<g id="eyes">
<path id="left eye" d="M194.339 208.814C194.339 206.346 193.358 203.98 191.612 202.235C189.866 200.49 187.498 199.509 185.029 199.509C182.56 199.509 180.192 200.49 178.446 202.235C176.7 203.98 175.72 206.346 175.72 208.814V221.826C175.72 224.294 176.7 226.66 178.446 228.405C180.192 230.15 182.56 231.131 185.029 231.131C187.498 231.131 189.866 230.15 191.612 228.405C193.358 226.66 194.339 224.294 194.339 221.826V208.814Z" fill="#231F20"/>
<path id="right eye" d="M300.93 208.814C300.93 206.346 299.949 203.98 298.204 202.235C296.458 200.49 294.09 199.509 291.621 199.509C289.152 199.509 286.784 200.49 285.038 202.235C283.292 203.98 282.311 206.346 282.311 208.814V221.826C282.311 224.294 283.292 226.66 285.038 228.405C286.784 230.15 289.152 231.131 291.621 231.131C294.09 231.131 296.458 230.15 298.204 228.405C299.949 226.66 300.93 224.294 300.93 221.826V208.814Z" fill="#231F20"/>
<path id="Vector_7" d="M305.98 204.09L299.633 208.589C297.857 209.847 295.654 210.349 293.508 209.984C291.363 209.619 289.45 208.417 288.191 206.642L286.632 204.446L292.98 199.947C294.755 198.689 296.958 198.187 299.104 198.552C301.25 198.917 303.163 200.119 304.422 201.894L305.98 204.09Z" fill="#231F20"/>
<path id="Vector_8" d="M185.16 199.991L191.507 204.489L189.949 206.685C189.326 207.564 188.535 208.312 187.623 208.885C186.71 209.458 185.694 209.846 184.632 210.027C183.569 210.208 182.481 210.178 181.431 209.938C180.38 209.699 179.386 209.255 178.507 208.632L172.16 204.134L173.718 201.937C174.977 200.163 176.89 198.961 179.036 198.595C181.182 198.23 183.385 198.732 185.16 199.991Z" fill="#231F20"/>
</g>
<g id="lips">
<path id="Vector_9" d="M249.307 280.31C247.432 280.308 245.575 280.676 243.842 281.392C242.109 282.108 240.534 283.159 239.208 284.483C237.881 285.808 236.829 287.381 236.111 289.112C235.393 290.844 235.023 292.7 235.023 294.574H263.579C263.579 292.701 263.21 290.846 262.493 289.115C261.775 287.385 260.724 285.812 259.399 284.488C258.074 283.163 256.5 282.112 254.769 281.396C253.037 280.679 251.182 280.31 249.307 280.31V280.31Z" fill="#BC3451"/>
<path id="Vector_10" d="M239.935 318.256C246.214 318.252 252.234 315.757 256.672 311.319C261.111 306.88 263.604 300.862 263.604 294.586H216.266C216.266 300.862 218.759 306.88 223.198 311.319C227.636 315.757 233.656 318.252 239.935 318.256V318.256Z" fill="#BC3451"/>
<path id="Vector_11" d="M230.563 280.36C226.777 280.363 223.147 281.869 220.47 284.546C217.794 287.223 216.291 290.852 216.291 294.637H244.847C244.847 290.85 243.342 287.219 240.663 284.541C237.984 281.864 234.351 280.36 230.563 280.36V280.36Z" fill="#BC3451"/>
</g>
<path id="mouth" d="M251.443 289.958H228.557C227.125 289.958 226 291.522 226 293.458C226 295.407 227.151 296.958 228.557 296.958H251.443C252.874 296.958 254 295.395 254 293.458C254.025 291.522 252.874 289.958 251.443 289.958Z" fill="#A12A4A"/>
<g id="front-hair">
<path id="Vector_12" d="M228.796 168.962L154.023 168.962C145.792 168.952 137.901 165.54 132.084 159.474C126.267 153.408 123 145.185 123 136.611V102.906C123 76.94 132.903 52.0371 150.531 33.6761C168.158 15.3151 192.066 5 216.995 5H274.783C276.697 5 278.533 5.79205 279.886 7.2019C281.24 8.61175 282 10.5239 282 12.5178V113.632C282 128.316 276.4 142.399 266.431 152.783C256.462 163.167 242.942 169 228.844 169L228.796 168.962Z" fill="#DDA79C"/>
<path id="Vector_13" d="M233.069 159.585H122.618C114.053 159.575 105.841 156.171 99.7837 150.119C93.7261 144.066 90.3169 135.86 90.3036 127.3V97.8574C90.3036 71.904 100.619 47.0135 118.98 28.6617C137.342 10.3099 162.245 -1.10451e-06 188.212 -1.10451e-06H280.97C282.964 -1.10451e-06 284.876 0.791645 286.286 2.20079C287.696 3.60994 288.488 5.52116 288.488 7.514V104.232C288.49 111.504 287.057 118.706 284.272 125.425C281.487 132.144 277.405 138.248 272.258 143.389C267.111 148.53 261 152.607 254.276 155.386C247.552 158.164 240.345 159.591 233.069 159.585V159.585Z" fill="#072132"/>
<path id="Vector_14" d="M226.403 113.837H137.19C133.343 113.837 130.224 116.955 130.224 120.8V122.353C130.224 126.199 133.343 129.316 137.19 129.316H226.403C230.25 129.316 233.369 126.199 233.369 122.353V120.8C233.369 116.955 230.25 113.837 226.403 113.837Z" fill="#143748"/>
<path id="Vector_15" d="M181.345 45.4472H137.466C133.466 45.4472 130.224 48.688 130.224 52.6857V54.3012C130.224 58.2989 133.466 61.5397 137.466 61.5397H181.345C185.345 61.5397 188.588 58.2989 188.588 54.3012V52.6857C188.588 48.688 185.345 45.4472 181.345 45.4472Z" fill="#143748"/>
</g>
<g id="collar_2">
<path id="Vector_16" d="M161.323 445.468L136.363 334.974L164.794 329.401L189.753 439.895L161.323 445.468Z" fill="#55297B"/>
<path id="Vector_17" d="M262.915 486.131L162.288 444.503L174.128 418.067L274.755 459.694L262.915 486.131Z" fill="#55297B"/>
<path id="Vector_18" d="M232.58 413.145L179.704 402.538L171.76 442.061L273.064 462.387L232.58 413.145Z" fill="#55297B"/>
<path id="Vector_19" d="M322.306 445.468L347.366 334.486L318.936 328.913L293.876 439.895L322.306 445.468Z" fill="#55297B"/>
<path id="Vector_20" d="M220.714 486.131L321.341 444.503L309.501 418.067L208.874 459.694L220.714 486.131Z" fill="#55297B"/>
<path id="Vector_21" d="M251.049 413.145L303.925 402.538L311.856 442.061L210.565 462.387L251.049 413.145Z" fill="#55297B"/>
</g>
</svg>
