<svg 
width="70.75" height="77.625"
viewBox="0 0 343 381" 
fill="none" 
xmlns="http://www.w3.org/2000/svg">
<circle id="Ellipse 1" cx="171.5" cy="209.5" r="171.5" fill="#500103"/>
<path id="Ellipse 2" d="M333 209C333 292.947 265.395 361 182 361C98.605 361 31 292.947 31 209C31 125.053 98.605 57 182 57C265.395 57 333 125.053 333 209Z" fill="#B62639"/>
<g id="collar">
<path id="Vector 16" d="M232.15 270.646C232.148 259.442 228.82 248.489 222.587 239.173C216.354 229.858 207.497 222.598 197.134 218.311C186.771 214.025 175.369 212.904 164.369 215.092C153.368 217.279 143.264 222.675 135.334 230.599C127.404 238.523 122.004 248.618 119.817 259.608C117.629 270.597 118.753 281.988 123.046 292.34C127.338 302.692 134.607 311.54 143.933 317.765C153.259 323.989 164.223 327.312 175.439 327.312C190.479 327.306 204.902 321.334 215.537 310.708C226.171 300.082 232.147 285.672 232.15 270.646V270.646Z" fill="#DB9D95"/>
<path id="Vector 17" d="M260.807 271C260.807 234.132 226.995 204.171 185.175 204.171H178.656C137.003 204.171 103.024 233.944 103.024 271C103.042 275.625 103.573 280.234 104.607 284.743V333.523C104.607 340.16 113.833 343.478 119.186 338.724L134.65 325.263C147.802 333.46 163.019 337.747 178.521 337.621H185.133C200.457 337.708 215.497 333.491 228.536 325.45L243.906 338.63C249.404 343.239 258.714 340.014 258.714 333.429V286.324C260.149 281.351 260.85 276.196 260.797 271.021L260.807 271Z" fill="#7D1927"/>
<path id="Vector 18" d="M262.525 265.424C262.525 228.087 228.047 197.804 185.394 197.804H178.74C136.274 197.804 101.608 227.973 101.608 265.424C101.621 270.168 102.162 274.896 103.222 279.52V328.893C103.222 335.614 112.594 338.974 118.134 334.22L133.9 320.592C147.349 328.886 162.872 333.214 178.677 333.075H185.425C201.042 333.166 216.374 328.896 229.692 320.748L245.385 334.126C250.987 338.787 260.495 335.52 260.495 328.8V281.008C261.941 275.934 262.643 270.678 262.577 265.403L262.525 265.424Z" fill="#981E21"/>
<path id="Vector 19" d="M248.978 267.099C248.978 235.838 218.852 210.444 181.739 210.444C144.626 210.444 114.5 235.838 114.5 267.099C114.5 298.36 144.626 323.764 181.739 323.764C218.852 323.764 248.978 298.371 248.978 267.099Z" fill="#CB9187"/>
<path id="Vector 19_2" d="M248.978 260.118C248.978 228.857 218.852 203.463 181.739 203.463C144.626 203.463 114.5 228.857 114.5 260.118C114.5 291.38 144.626 316.774 181.739 316.774C218.852 316.774 248.978 291.39 248.978 260.118Z" fill="#DDA79C"/>
</g>
<g id="Back-Hair">
<path id="Vector" d="M236.961 100.775H120.394C99.4023 100.775 82.3853 117.775 82.3853 138.746V164.545C82.3853 185.516 99.4023 202.517 120.394 202.517H236.961C257.952 202.517 274.969 185.516 274.969 164.545V138.746C274.969 117.775 257.952 100.775 236.961 100.775Z" fill="#73381B"/>
<path id="Vector_2" d="M239.98 57.2481H116.791C95.7993 57.2481 78.7822 74.2484 78.7822 95.2193V117.035C78.7822 138.006 95.7993 155.006 116.791 155.006H239.98C260.972 155.006 277.989 138.006 277.989 117.035V95.2193C277.989 74.2484 260.972 57.2481 239.98 57.2481Z" fill="#73381B"/>
</g>
<g id="right-ear">
<path id="outer" d="M272.939 165.575C282.066 165.575 289.465 158.184 289.465 149.066C289.465 139.948 282.066 132.556 272.939 132.556C263.812 132.556 256.413 139.948 256.413 149.066C256.413 158.184 263.812 165.575 272.939 165.575Z" fill="#EFBDB4"/>
<path id="inner" d="M272.637 157.96C277.554 157.96 281.54 153.978 281.54 149.066C281.54 144.153 277.554 140.171 272.637 140.171C267.719 140.171 263.733 144.153 263.733 149.066C263.733 153.978 267.719 157.96 272.637 157.96Z" fill="#DDA79C"/>
</g>
<g id="left-ear">
<path id="outer_2" d="M86.0403 163.755C95.1673 163.755 102.566 156.363 102.566 147.245C102.566 138.127 95.1673 130.735 86.0403 130.735C76.9133 130.735 69.5144 138.127 69.5144 147.245C69.5144 156.363 76.9133 163.755 86.0403 163.755Z" fill="#EFBDB4"/>
<path id="inner_2" d="M85.7487 156.14C90.666 156.14 94.6521 152.157 94.6521 147.245C94.6521 142.333 90.666 138.35 85.7487 138.35C80.8315 138.35 76.8454 142.333 76.8454 147.245C76.8454 152.157 80.8315 156.14 85.7487 156.14Z" fill="#DDA79C"/>
</g>
<path id="Face" d="M97.8282 233.809L126.163 264.841C129.75 268.866 134.141 272.096 139.054 274.323C143.966 276.55 149.291 277.725 154.685 277.772H202.586C207.981 277.727 213.306 276.553 218.219 274.326C223.131 272.099 227.522 268.868 231.108 264.841L259.453 233.809C267.127 225.229 271.336 214.106 271.262 202.6V112C271.334 100.494 267.125 89.3718 259.453 80.7903L245.614 65.6434C208.616 25.1443 148.635 25.1443 111.636 65.6434L97.8282 80.7799C90.149 89.3577 85.9364 100.481 86.0091 111.989V202.579C85.9292 214.094 90.1424 225.227 97.8282 233.809V233.809Z" fill="#EFBDB4"/>
<g id="nose">
<path id="Vector 30" d="M181.114 163.016C178.643 163.009 176.257 163.914 174.413 165.558C172.57 167.201 171.4 169.468 171.128 171.921C171.12 172.065 171.137 172.21 171.18 172.348C171.218 172.49 171.294 172.619 171.398 172.722C171.49 172.83 171.599 172.922 171.721 172.993C171.857 173.062 172.006 173.101 172.158 173.107H190.132C190.283 173.094 190.431 173.055 190.569 172.993C190.701 172.936 190.813 172.842 190.892 172.722C190.993 172.616 191.068 172.488 191.111 172.348C191.153 172.21 191.171 172.065 191.163 171.921C190.899 169.463 189.725 167.193 187.872 165.555C186.004 163.914 183.601 163.011 181.114 163.016Z" fill="#EBB8B0"/>
<path id="Vector 31" d="M171.076 172.171C171.063 172.301 171.081 172.433 171.128 172.556C171.18 172.66 171.232 172.826 171.346 172.878C171.441 172.966 171.55 173.036 171.669 173.086C171.784 173.153 171.912 173.192 172.044 173.201H189.976C190.109 173.199 190.239 173.16 190.351 173.086C190.469 173.036 190.579 172.966 190.673 172.878C190.765 172.785 190.839 172.675 190.892 172.556C190.933 172.432 190.951 172.301 190.944 172.171H171.076Z" fill="#DDA79C"/>
<path id="Vector 32" d="M186.789 168.842H175.397C175.111 168.842 174.837 168.955 174.635 169.157C174.433 169.359 174.319 169.633 174.319 169.919C174.319 170.204 174.433 170.478 174.635 170.68C174.837 170.882 175.111 170.995 175.397 170.995H186.789C187.075 170.995 187.349 170.882 187.551 170.68C187.753 170.478 187.867 170.204 187.867 169.919C187.867 169.633 187.753 169.359 187.551 169.157C187.349 168.955 187.075 168.842 186.789 168.842Z" fill="#F0C6BE"/>
</g>
<g id="Eyebrows">
<g id="left eyebrow">
<path id="Vector 22" d="M151.551 119.958H122.674C120.93 119.944 119.237 119.372 117.843 118.325C116.499 117.254 115.508 115.804 115 114.163C114.799 114.856 114.704 115.575 114.719 116.296C114.732 118.401 115.574 120.415 117.063 121.905C118.552 123.394 120.568 124.238 122.674 124.254H151.551C153.659 124.241 155.677 123.398 157.168 121.908C158.659 120.419 159.503 118.402 159.517 116.296C159.495 115.577 159.401 114.863 159.236 114.163C158.814 115.844 157.806 117.32 156.393 118.325C155.001 119.384 153.3 119.958 151.551 119.958V119.958Z" fill="#DDA79C"/>
<path id="Vector 23" d="M151.551 106.527H122.612C121.565 106.526 120.529 106.731 119.562 107.13C118.595 107.53 117.716 108.116 116.976 108.855C116.236 109.595 115.649 110.473 115.249 111.439C114.849 112.405 114.644 113.44 114.646 114.486V114.486C114.644 115.531 114.849 116.567 115.249 117.533C115.649 118.499 116.236 119.377 116.976 120.116C117.716 120.856 118.595 121.442 119.562 121.841C120.529 122.241 121.565 122.446 122.612 122.444H151.551C152.597 122.446 153.634 122.241 154.601 121.841C155.568 121.442 156.447 120.856 157.187 120.116C157.927 119.377 158.513 118.499 158.913 117.533C159.313 116.567 159.518 115.531 159.517 114.486V114.486C159.518 113.44 159.313 112.405 158.913 111.439C158.513 110.473 157.927 109.595 157.187 108.855C156.447 108.116 155.568 107.53 154.601 107.13C153.634 106.731 152.597 106.526 151.551 106.527V106.527Z" fill="#73381B"/>
<path id="Vector 24" d="M151.551 118.075H122.674C120.926 118.074 119.228 117.496 117.843 116.431C116.495 115.363 115.504 113.913 115 112.27C114.803 112.946 114.709 113.647 114.719 114.351C114.727 115.395 114.917 116.43 115.281 117.409C115.68 118.364 116.26 119.233 116.989 119.968C117.718 120.704 118.59 121.284 119.55 121.674C120.521 122.072 121.563 122.264 122.612 122.236H151.478C152.523 122.228 153.559 122.038 154.539 121.674C155.495 121.275 156.365 120.696 157.101 119.968C157.837 119.239 158.418 118.369 158.809 117.409C159.21 116.44 159.405 115.399 159.381 114.351C159.353 113.649 159.255 112.952 159.09 112.27C158.624 113.92 157.64 115.377 156.282 116.425C154.925 117.474 153.266 118.06 151.551 118.096V118.075Z" fill="#5F2411"/>
<path id="Vector 25" d="M145.584 109.159H128.579C128.071 109.159 127.583 109.361 127.224 109.72C126.865 110.079 126.663 110.566 126.663 111.074C126.661 111.326 126.71 111.576 126.806 111.809C126.901 112.043 127.042 112.255 127.22 112.434C127.398 112.613 127.61 112.755 127.843 112.851C128.076 112.948 128.326 112.998 128.579 112.998H145.584C145.836 112.998 146.086 112.948 146.319 112.851C146.553 112.755 146.764 112.613 146.942 112.434C147.12 112.255 147.261 112.043 147.357 111.809C147.453 111.576 147.501 111.326 147.5 111.074V111.074C147.5 110.566 147.298 110.079 146.939 109.72C146.579 109.361 146.092 109.159 145.584 109.159Z" fill="#895339"/>
</g>
<g id="left-eyebrow">
<path id="Vector 22_2" d="M239.741 119.698H210.865C209.12 119.688 207.425 119.115 206.033 118.064C204.686 116.994 203.692 115.545 203.18 113.903C202.984 114.597 202.889 115.315 202.899 116.036C202.912 118.142 203.756 120.159 205.247 121.648C206.738 123.138 208.756 123.981 210.865 123.994H239.741C241.848 123.975 243.863 123.131 245.353 121.642C246.843 120.154 247.688 118.141 247.707 116.036C247.699 115.322 247.619 114.611 247.468 113.914C247.051 115.597 246.042 117.074 244.625 118.075C243.222 119.142 241.504 119.712 239.741 119.698V119.698Z" fill="#DDA79C"/>
<path id="Vector 23_2" d="M239.741 106.267H210.792C209.745 106.266 208.709 106.471 207.742 106.87C206.775 107.27 205.896 107.856 205.156 108.595C204.416 109.335 203.829 110.212 203.429 111.179C203.029 112.145 202.824 113.18 202.826 114.226C202.824 115.271 203.029 116.307 203.429 117.273C203.829 118.239 204.416 119.117 205.156 119.856C205.896 120.596 206.775 121.182 207.742 121.581C208.709 121.981 209.745 122.185 210.792 122.184H239.741C240.787 122.185 241.824 121.981 242.791 121.581C243.758 121.182 244.637 120.596 245.377 119.856C246.117 119.117 246.704 118.239 247.104 117.273C247.503 116.307 247.708 115.271 247.707 114.226V114.226C247.708 113.18 247.503 112.145 247.104 111.179C246.704 110.212 246.117 109.335 245.377 108.595C244.637 107.856 243.758 107.27 242.791 106.87C241.824 106.471 240.787 106.266 239.741 106.267Z" fill="#73381B"/>
<path id="Vector 24_2" d="M239.741 117.773H210.865C209.117 117.78 207.418 117.205 206.033 116.14C204.684 115.072 203.689 113.621 203.18 111.979C202.985 112.673 202.89 113.391 202.899 114.111C202.911 115.156 203.104 116.191 203.471 117.17C203.867 118.127 204.447 118.996 205.179 119.729C205.907 120.462 206.774 121.042 207.73 121.435C208.701 121.832 209.743 122.023 210.792 121.997H239.668C240.713 121.988 241.749 121.798 242.73 121.435C243.681 121.034 244.547 120.455 245.281 119.729C246.02 118.994 246.603 118.118 246.995 117.153C247.387 116.187 247.58 115.153 247.561 114.111C247.534 113.393 247.44 112.679 247.28 111.979C246.819 113.631 245.836 115.091 244.477 116.14C243.119 117.19 241.458 117.773 239.741 117.804V117.773Z" fill="#5F2411"/>
<path id="Vector 25_2" d="M233.764 108.899H216.769C216.517 108.898 216.266 108.946 216.033 109.042C215.799 109.138 215.587 109.278 215.408 109.456C215.229 109.634 215.086 109.846 214.99 110.079C214.893 110.312 214.843 110.561 214.843 110.814V110.814C214.841 111.067 214.89 111.318 214.987 111.552C215.083 111.786 215.225 111.999 215.404 112.178C215.583 112.356 215.796 112.498 216.03 112.594C216.265 112.691 216.516 112.739 216.769 112.738H233.764C234.017 112.74 234.267 112.691 234.501 112.594C234.735 112.498 234.947 112.356 235.125 112.177C235.304 111.998 235.445 111.785 235.54 111.551C235.635 111.317 235.683 111.066 235.68 110.814C235.681 110.562 235.633 110.312 235.537 110.079C235.441 109.847 235.3 109.635 235.122 109.457C234.943 109.279 234.732 109.138 234.499 109.042C234.266 108.947 234.016 108.898 233.764 108.899V108.899Z" fill="#895339"/>
</g>
</g>
<g id="Beard">
<path id="Dark-Front-Beard" d="M90.7367 191.999C90.1333 191.998 89.5355 192.116 88.9777 192.346C88.42 192.576 87.9132 192.914 87.4864 193.34C87.0597 193.766 86.7215 194.272 86.4912 194.83C86.2609 195.387 86.1431 195.984 86.1445 196.587V203.682C86.0729 215.187 90.2812 226.31 97.9532 234.891L126.298 265.913C129.879 269.939 134.264 273.172 139.171 275.402C144.078 277.633 149.398 278.813 154.789 278.865H202.69C208.085 278.818 213.41 277.644 218.322 275.416C223.234 273.189 227.625 269.959 231.212 265.934L259.557 234.912C267.229 226.33 271.438 215.208 271.366 203.703V196.608C271.366 195.391 270.882 194.224 270.021 193.364C269.16 192.503 267.992 192.02 266.774 192.02L90.7367 191.999Z" fill="#5F2411"/>
<path id="Front-Beard" d="M90.4972 187.214C89.8933 187.214 89.2953 187.333 88.7375 187.564C88.1796 187.795 87.6729 188.134 87.2463 188.561C86.8198 188.988 86.4817 189.495 86.2515 190.053C86.0214 190.611 85.9036 191.209 85.905 191.812V198.907C85.8334 210.412 90.0417 221.535 97.7137 230.116L126.059 261.138C129.641 265.173 134.029 268.414 138.942 270.65C143.855 272.886 149.182 274.069 154.581 274.121H202.482C207.877 274.073 213.202 272.896 218.115 270.667C223.027 268.438 227.418 265.206 231.004 261.18L259.349 230.158C267.021 221.576 271.23 210.454 271.158 198.948V191.854C271.158 190.636 270.674 189.468 269.814 188.606C268.953 187.744 267.785 187.258 266.566 187.255L90.4972 187.214Z" fill="#73381B"/>
</g>
<g id="mouth">
<path id="Vector 37" d="M156.643 205.138C153.596 205.138 150.671 206.33 148.494 208.46C146.317 210.589 145.063 213.487 145.001 216.53C144.947 218.545 145.451 220.536 146.458 222.283C149.857 228.245 154.775 233.202 160.713 236.651C166.651 240.099 173.397 241.916 180.265 241.916C187.134 241.916 193.879 240.099 199.817 236.651C205.755 233.202 210.673 228.245 214.072 222.283C215.051 220.527 215.549 218.546 215.518 216.537C215.487 214.528 214.927 212.563 213.895 210.839C212.843 209.124 211.384 207.695 209.646 206.678C207.889 205.687 205.906 205.167 203.888 205.169L156.643 205.138Z" fill="#921A1E"/>
<path id="Vector_3" d="M214.072 220.077C211.519 224.527 208.112 228.43 204.046 231.562C199.98 234.693 195.335 236.992 190.378 238.326C185.42 239.659 180.248 240.002 175.157 239.334C170.067 238.666 165.159 237.001 160.714 234.433C154.76 231.012 149.836 226.053 146.458 220.077C145.694 218.655 145.22 217.096 145.063 215.489C145.063 215.781 145.001 216.061 145.001 216.353C144.95 218.368 145.454 220.358 146.458 222.106C149.859 228.065 154.778 233.02 160.716 236.466C166.654 239.913 173.398 241.728 180.265 241.728C187.132 241.728 193.877 239.913 199.815 236.466C205.752 233.02 210.671 228.065 214.072 222.106C215.046 220.342 215.545 218.356 215.52 216.342C215.528 216.054 215.511 215.765 215.468 215.479C215.331 217.093 214.856 218.659 214.072 220.077Z" fill="#75101F"/>
<path id="Vector_4" d="M199.561 216.075C199.607 212.801 191.076 210.027 180.506 209.879C169.937 209.732 161.331 212.267 161.286 215.541C161.24 218.816 169.771 221.59 180.341 221.738C190.91 221.885 199.516 219.35 199.561 216.075Z" fill="#3F1215"/>
<path id="Teeth" d="M145.927 211.942V212.285C146.01 213.307 146.495 214.255 147.275 214.92C148.056 215.585 149.07 215.913 150.093 215.833H211.021C211.85 215.912 212.679 215.687 213.354 215.198C214.023 214.719 214.561 214.078 214.916 213.336C214.946 213.293 214.963 213.242 214.963 213.19C214.963 213.138 214.946 213.087 214.916 213.045C214.093 210.655 212.622 208.541 210.667 206.938C208.792 205.42 206.447 204.6 204.034 204.618H156.351C154.16 204.639 152.027 205.329 150.238 206.595C148.351 207.963 146.863 209.808 145.927 211.942V211.942Z" fill="white"/>
<path id="Vector_5" d="M188.82 218.454H172.929C168.742 218.456 164.692 219.939 161.497 222.642C158.301 225.345 156.168 229.091 155.476 233.216C157.04 234.478 158.694 235.625 160.423 236.649C166.397 240.111 173.181 241.934 180.088 241.934C186.995 241.934 193.779 240.111 199.754 236.649C201.976 235.359 204.069 233.858 206.002 232.165C205.133 228.265 202.955 224.779 199.829 222.285C196.704 219.791 192.82 218.439 188.82 218.454V218.454Z" fill="#C5515A"/>
<path id="Vector_6" d="M199.816 234.381C193.802 237.731 187.031 239.49 180.146 239.49C173.26 239.49 166.489 237.731 160.475 234.381C158.882 233.469 157.348 232.458 155.882 231.354C155.718 231.908 155.582 232.471 155.476 233.039C157.042 234.264 158.696 235.373 160.423 236.358C166.435 239.708 173.204 241.466 180.088 241.466C186.972 241.466 193.742 239.708 199.754 236.358C201.96 235.09 204.05 233.631 206.002 231.999C205.876 231.446 205.72 230.901 205.533 230.366C203.791 231.922 201.872 233.27 199.816 234.381Z" fill="#AA4952"/>
</g>
<g id="Shadow">
<path id="shadow-right" d="M225.6 180.036C206.856 180.036 191.673 163.859 191.673 143.968V125.523H259.526V143.968C259.526 163.848 244.344 180.036 225.6 180.036Z" fill="#DDA79C"/>
<path id="shadow-left" d="M140.085 180.036C121.341 180.036 106.159 163.984 106.159 144.259V125.95H174.012V144.259C174.012 163.984 158.788 180.036 140.085 180.036Z" fill="#DDA79C"/>
</g>
<g id="eyes">
<path id="left eye" d="M145.729 143.469C145.729 141.695 145.024 139.993 143.768 138.739C142.513 137.484 140.81 136.78 139.034 136.78C137.258 136.78 135.555 137.484 134.299 138.739C133.043 139.993 132.338 141.695 132.338 143.469V152.832C132.338 154.606 133.043 156.307 134.299 157.562C135.555 158.816 137.258 159.521 139.034 159.521C140.81 159.521 142.513 158.816 143.768 157.562C145.024 156.307 145.729 154.606 145.729 152.832V143.469Z" fill="#231F20"/>
<path id="right eye" d="M231.952 144.083C231.952 142.309 231.246 140.607 229.991 139.353C228.735 138.098 227.032 137.393 225.256 137.393C223.48 137.393 221.777 138.098 220.521 139.353C219.266 140.607 218.56 142.309 218.56 144.083V153.445C218.56 155.219 219.266 156.921 220.521 158.175C221.777 159.43 223.48 160.135 225.256 160.135C227.032 160.135 228.735 159.43 229.991 158.175C231.246 156.921 231.952 155.219 231.952 153.445V144.083Z" fill="#231F20"/>
</g>
<g id="Glasses">
<g id="bridge">
<path id="shadow" d="M189.288 135.094H171.627V141.596H189.288V135.094Z" fill="#DDA79C"/>
<path id="dark" d="M188.549 134.127H170.888V140.629H188.549V134.127Z" fill="black"/>
<path id="front" d="M188.549 133.024H170.888V139.526H188.549V133.024Z" fill="#0F1D2C"/>
</g>
<g id="glasses-shade">
<g id="left glass shade" opacity="0.6">
<path id="Vector 48" opacity="0.3" d="M132.151 131.994L110.512 152.665V153.445C110.601 156.226 111.268 158.957 112.469 161.466C113.752 163.984 115.522 166.222 117.676 168.051L155.456 131.963L132.151 131.994Z" fill="white"/>
</g>
<g id="left-glass-shade" opacity="0.6">
<path id="Vector 48_2" opacity="0.3" d="M217.79 131.786L195.089 150.72V151.448C195.193 154.026 195.906 156.543 197.171 158.793C198.567 161.161 200.435 163.219 202.659 164.837L242.261 131.786H217.79Z" fill="white"/>
</g>
</g>
<g id="Glasses-Handle-Shadow">
<path id="Vector_7" d="M106.773 127.001H90.6118C88.5874 127.001 86.9463 128.64 86.9463 130.663V131.1C86.9463 133.122 88.5874 134.761 90.6118 134.761H106.773C108.798 134.761 110.439 133.122 110.439 131.1V130.663C110.439 128.64 108.798 127.001 106.773 127.001Z" fill="#DDA79C"/>
<path id="Vector_8" d="M271.106 125.971H258.381C256.356 125.971 254.715 127.61 254.715 129.633V131.349C254.715 133.372 256.356 135.011 258.381 135.011H271.106C273.13 135.011 274.771 133.372 274.771 131.349V129.633C274.771 127.61 273.13 125.971 271.106 125.971Z" fill="#DDA79C"/>
</g>
<g id="dark-glasses-border">
<path id="dark-left-glass-border" d="M136.961 178.995C118.217 178.995 103.035 163.245 103.035 143.906V125.95H170.888V143.906C170.888 163.245 155.664 178.995 136.961 178.995ZM108.846 131.973V143.906C108.846 159.926 121.456 172.962 136.961 172.962C152.467 172.962 165.077 159.926 165.077 143.906V131.973H108.846Z" fill="black"/>
<path id="dark-right-glass-border" d="M222.476 178.475C213.481 178.464 204.858 174.89 198.498 168.536C192.138 162.182 188.56 153.568 188.549 144.582V127.24H256.402V144.582C256.391 153.568 252.813 162.182 246.453 168.536C240.093 174.89 231.47 178.464 222.476 178.475V178.475ZM194.36 133.055V144.582C194.36 152.031 197.322 159.176 202.595 164.443C207.867 169.711 215.019 172.67 222.476 172.67C229.932 172.67 237.084 169.711 242.357 164.443C247.629 159.176 250.592 152.031 250.592 144.582V133.055H194.36Z" fill="black"/>
</g>
<g id="glasses-frame-border">
<path id="right-glass-border" d="M224.558 176.696C204.773 177.924 188.507 161.934 188.507 142.116V125.565H256.277V142.865C256.267 151.471 252.986 159.751 247.098 166.032C241.209 172.312 233.153 176.124 224.558 176.696V176.696ZM194.36 131.38V142.231C194.36 157.523 206.345 170.496 221.653 170.933C225.412 171.04 229.155 170.393 232.659 169.029C236.163 167.666 239.358 165.614 242.054 162.995C244.751 160.376 246.894 157.243 248.357 153.782C249.819 150.321 250.572 146.602 250.571 142.845V131.401H194.422L194.36 131.38Z" fill="#0F1D2C"/>
<path id="left-glass-border" d="M139.086 177.123C119.3 178.35 103.035 162.361 103.035 142.543V125.992H170.805V143.292C170.795 151.897 167.514 160.178 161.625 166.458C155.737 172.739 147.68 176.55 139.086 177.123ZM108.887 131.807V142.657C108.887 157.95 120.873 170.923 136.18 171.359C139.94 171.467 143.682 170.819 147.186 169.456C150.691 168.092 153.886 166.04 156.582 163.421C159.278 160.802 161.421 157.669 162.884 154.208C164.347 150.747 165.1 147.028 165.098 143.271V131.828H108.97L108.856 131.807H108.887Z" fill="#0F1D2C"/>
</g>
<g id="Dark-glasses-handle">
<path id="dark-left-glasses-handle" d="M104.607 124.223H84.4054C82.381 124.223 80.7399 125.863 80.7399 127.885V128.322C80.7399 130.344 82.381 131.984 84.4054 131.984H104.607C106.632 131.984 108.273 130.344 108.273 128.322V127.885C108.273 125.863 106.632 124.223 104.607 124.223Z" fill="#0A1523"/>
<path id="dark-right-glasses-handle" d="M274.324 124.005H256.954C254.93 124.005 253.289 125.644 253.289 127.667V128.884C253.289 130.906 254.93 132.546 256.954 132.546H274.324C276.348 132.546 277.989 130.906 277.989 128.884V127.667C277.989 125.644 276.348 124.005 274.324 124.005Z" fill="black"/>
</g>
<g id="Glasses-Handle">
<path id="right-glasses-handle" d="M274.324 122.798H255.83C253.805 122.798 252.164 124.437 252.164 126.46V127.677C252.164 129.699 253.805 131.339 255.83 131.339H274.324C276.348 131.339 277.989 129.699 277.989 127.677V126.46C277.989 124.437 276.348 122.798 274.324 122.798Z" fill="#0F1D2C"/>
<path id="left-glasses-handle" d="M105.222 122.975H83.739C81.7146 122.975 80.0735 124.614 80.0735 126.637V127.074C80.0735 129.096 81.7146 130.735 83.739 130.735H105.222C107.246 130.735 108.887 129.096 108.887 127.074V126.637C108.887 124.614 107.246 122.975 105.222 122.975Z" fill="#0F1D2C"/>
</g>
</g>
<g id="Top-Hair">
<g id="Shadow_2">
<path id="shadow-2" d="M182.384 0H265.691C268.152 0 270.512 0.976567 272.252 2.71487C273.992 4.45317 274.969 6.81081 274.969 9.26914V65.4457C274.969 75.5163 270.965 85.1745 263.837 92.2955C256.709 99.4164 247.041 103.417 236.961 103.417H182.384C172.304 103.417 162.636 99.4164 155.508 92.2955C148.38 85.1745 144.376 75.5163 144.376 65.4457V37.9712C144.376 27.9006 148.38 18.2425 155.508 11.1215C162.636 4.00053 172.304 0 182.384 0V0Z" fill="#DDA79C"/>
<path id="shadow-1" d="M121.081 12.9414H131.047C137.772 12.9414 144.221 15.6103 148.976 20.3608C153.732 25.1114 156.403 31.5546 156.403 38.2729V85.3052C156.403 89.7418 154.639 93.9966 151.499 97.1338C148.359 100.271 144.099 102.033 139.658 102.033H121.081C110.818 102.033 100.976 97.9605 93.719 90.7107C86.4621 83.461 82.3853 73.6282 82.3853 63.3755V51.5992C82.3853 41.3465 86.4621 31.5138 93.719 24.264C100.976 17.0143 110.818 12.9414 121.081 12.9414V12.9414Z" fill="#DDA79C"/>
</g>
<g id="Dark-hair">
<path id="dark-fronthair-1" d="M113.459 12.9414H128.475C131.807 12.9373 135.108 13.5895 138.188 14.8607C141.268 16.1319 144.067 17.9972 146.425 20.3498C148.782 22.7025 150.653 25.4964 151.929 28.5718C153.205 31.6472 153.862 34.9437 153.862 38.2729V81.0503C153.864 83.2506 153.431 85.4296 152.588 87.4623C151.745 89.4951 150.509 91.3418 148.951 92.8967C147.392 94.4516 145.542 95.684 143.506 96.5235C141.47 97.363 139.289 97.793 137.086 97.7889H113.459C108.373 97.7944 103.335 96.7981 98.6351 94.8572C93.9348 92.9163 89.6637 90.0687 86.0659 86.4773C82.4681 82.886 79.6142 78.6213 77.6676 73.9272C75.721 69.2331 74.7197 64.2017 74.7211 59.1207V51.5992C74.7211 46.5191 75.7233 41.4888 77.6706 36.7959C79.6178 32.103 82.4719 27.8396 86.0695 24.2493C89.6672 20.6591 93.9379 17.8124 98.6375 15.8721C103.337 13.9318 108.373 12.936 113.459 12.9414V12.9414Z" fill="#5F2411"/>
<path id="darkhair-2" d="M180.145 4.49414H272.262C274.722 4.49414 277.082 5.47071 278.822 7.20901C280.562 8.94731 281.54 11.305 281.54 13.7633V59.8073C281.541 64.7946 280.559 69.7334 278.65 74.3414C276.74 78.9495 273.941 83.1367 270.411 86.6637C266.882 90.1908 262.691 92.9886 258.079 94.8975C253.467 96.8064 248.524 97.7889 243.531 97.7889H180.145C170.065 97.7889 160.397 93.7884 153.269 86.6674C146.141 79.5464 142.137 69.8883 142.137 59.8177V42.4654C142.137 32.3948 146.141 22.7366 153.269 15.6157C160.397 8.49467 170.065 4.49414 180.145 4.49414V4.49414Z" fill="#5F2411"/>
</g>
<g id="Front-Hair">
<path id="front-hair1" d="M113.459 6.59554H128.475C131.807 6.59144 135.108 7.24363 138.188 8.51482C141.268 9.78601 144.067 11.6513 146.425 14.0039C148.782 16.3566 150.653 19.1505 151.929 22.2259C153.205 25.3013 153.862 28.5978 153.862 31.927V76.5354C153.862 80.972 152.098 85.2269 148.958 88.364C145.818 91.5011 141.559 93.2636 137.118 93.2636H113.459C108.373 93.269 103.337 92.2732 98.6375 90.3329C93.9379 88.3926 89.6672 85.5459 86.0695 81.9557C82.4719 78.3654 79.6178 74.102 77.6706 69.4091C75.7233 64.7162 74.7211 59.6859 74.7211 54.6057V45.243C74.7224 40.1637 75.7257 35.1345 77.6736 30.4428C79.6214 25.7511 82.4757 21.4889 86.0732 17.8998C89.6707 14.3106 93.941 11.4649 98.6399 9.52525C103.339 7.58561 108.374 6.59007 113.459 6.59554V6.59554Z" fill="#73381B"/>
<path id="front-hair-2" d="M175.97 0H272.262C274.722 0 277.082 0.976567 278.822 2.71487C280.562 4.45317 281.54 6.81081 281.54 9.26914V54.252C281.54 59.2385 280.557 64.1761 278.647 68.783C276.737 73.3899 273.937 77.5758 270.408 81.1017C266.878 84.6277 262.688 87.4246 258.077 89.3329C253.465 91.2411 248.523 92.2233 243.531 92.2233H175.97C165.889 92.2233 156.222 88.2227 149.094 81.1017C141.966 73.9808 137.961 64.3226 137.961 54.252V37.9712C137.961 27.9006 141.966 18.2425 149.094 11.1215C156.222 4.00053 165.889 0 175.97 0V0Z" fill="#73381B"/>
</g>
<g id="Glow">
<path id="glow-2" d="M258.839 11.0793H181.208C178.499 11.0793 176.303 13.273 176.303 15.9791C176.303 18.6852 178.499 20.879 181.208 20.879H258.839C261.548 20.879 263.744 18.6852 263.744 15.9791C263.744 13.273 261.548 11.0793 258.839 11.0793Z" fill="#895339"/>
<path id="glow-1" d="M91.1637 49.1753C89.8311 49.2011 88.5337 48.7469 87.5086 47.8957C87.0582 47.5216 86.6918 47.0567 86.4334 46.5315C86.175 46.0063 86.0304 45.4325 86.0091 44.8477C86.0505 41.5906 86.8112 38.3829 88.2368 35.4535C89.6625 32.5241 91.7179 29.9452 94.2564 27.9011C99.8631 23.2911 106.916 20.8013 114.177 20.8686C115.51 20.8428 116.807 21.297 117.832 22.1481C118.283 22.5223 118.649 22.9872 118.907 23.5124C119.166 24.0376 119.31 24.6114 119.332 25.1962C119.326 25.784 119.188 26.3629 118.928 26.8904C118.669 27.4179 118.294 27.8805 117.832 28.2443C116.811 29.1018 115.51 29.5537 114.177 29.5135C109.534 29.4621 105.022 31.0541 101.442 34.0077C99.8387 35.3108 98.5417 36.9495 97.642 38.8081C96.7424 40.6668 96.262 42.7001 96.235 44.7644C96.25 45.3557 96.1215 45.9418 95.8603 46.4727C95.5992 47.0035 95.2132 47.4632 94.7354 47.8125C93.7708 48.7188 92.4874 49.2085 91.1637 49.1753V49.1753Z" fill="#895339"/>
</g>
</g>
</svg>
