<svg width="627" height="550" viewBox="0 0 627 550" fill="none" xmlns="http://www.w3.org/2000/svg">
<g id="Layer 3">
<path id="Vector" d="M627 0H0V550H627V0Z" fill="#A61F31"/>
</g>
<g id="Layer 2">
<path id="Vector_2" d="M309.044 542C442.639 542 550.939 433.7 550.939 300.105C550.939 166.511 442.639 58.211 309.044 58.211C175.45 58.211 67.1498 166.511 67.1498 300.105C67.1498 433.7 175.45 542 309.044 542Z" fill="#E7E7E9"/>
</g>
<g id="Layer 1">
<path id="Vector_3" d="M462 550H155V424.042C155 395.286 176.567 372 203.199 372H413.638C440.27 372 461.837 395.286 461.837 424.042V550H462Z" fill="#A61F31"/>
<g id="collar">
<path id="Vector 16" d="M356.638 389.639C356.638 360.527 332.923 336.811 303.811 336.811C274.698 336.811 250.983 360.527 250.983 389.639C250.983 418.751 274.698 442.466 303.811 442.466C332.923 442.466 356.638 418.751 356.638 389.639Z" fill="#DB9D95"/>
<path id="Vector 17" d="M383.297 389.966C383.297 355.62 351.732 327.652 312.806 327.652H306.755C267.993 327.652 236.263 355.456 236.263 389.966C236.263 394.218 236.754 398.634 237.735 402.723V448.191C237.735 454.406 246.404 457.513 251.31 453.097L265.703 440.504C277.969 448.191 292.035 452.116 306.591 451.953H312.806C327.199 452.116 341.101 448.027 353.204 440.667L367.596 452.934C372.666 457.186 381.335 454.242 381.335 448.027V404.195C382.643 399.616 383.461 394.709 383.297 389.966Z" fill="#7D1927"/>
<path id="Vector 18" d="M384.933 384.732C384.933 349.896 352.876 321.765 313.133 321.765H306.918C267.338 321.765 235.118 349.896 235.118 384.732C235.118 389.148 235.609 393.564 236.59 397.817V443.775C236.59 449.99 245.422 453.097 250.492 448.682L265.212 435.924C277.642 443.611 292.035 447.7 306.918 447.537H313.133C327.689 447.7 341.918 443.611 354.348 436.088L368.905 448.518C374.138 452.934 382.97 449.826 382.97 443.611V399.289C384.279 394.546 384.933 389.639 384.933 384.732Z" fill="#981E21"/>
<path id="Vector 19" d="M372.339 386.204C372.339 357.092 344.208 333.377 309.698 333.377C275.189 333.377 247.058 357.092 247.058 386.204C247.058 415.317 275.189 439.032 309.698 439.032C344.208 439.032 372.339 415.48 372.339 386.204Z" fill="#CB9187"/>
<path id="Vector 19 1" d="M372.339 379.826C372.339 350.713 344.208 326.998 309.698 326.998C275.189 326.998 247.058 350.55 247.058 379.826C247.058 408.938 275.189 432.653 309.698 432.653C344.208 432.653 372.339 408.938 372.339 379.826Z" fill="#DDA79C"/>
<path id="Vector 21" d="M322 441H297V500H322V441Z" fill="#981E21"/>
</g>
<path id="Vector_4" d="M349.115 326.017H264.558C238.39 326.017 217.128 304.755 217.128 278.587C217.128 252.418 238.39 231.156 264.558 231.156H349.115C375.283 231.156 396.545 252.418 396.545 278.587C396.545 304.755 375.283 326.017 349.115 326.017Z" fill="#73381B"/>
<path id="Vector_5" d="M353.694 281.694H259.324C234.137 281.694 213.693 261.25 213.693 236.063C213.693 210.876 234.137 190.432 259.324 190.432H353.694C378.881 190.432 399.325 210.876 399.325 236.063C399.325 261.414 378.881 281.694 353.694 281.694Z" fill="#73381B"/>
<g id="Group">
<path id="Vector_6" d="M394.582 291.671C403.073 291.671 409.956 284.788 409.956 276.297C409.956 267.806 403.073 260.923 394.582 260.923C386.092 260.923 379.208 267.806 379.208 276.297C379.208 284.788 386.092 291.671 394.582 291.671Z" fill="#EFBDB4"/>
<path id="Vector_7" d="M394.419 284.638C399.026 284.638 402.76 280.904 402.76 276.297C402.76 271.69 399.026 267.956 394.419 267.956C389.812 267.956 386.078 271.69 386.078 276.297C386.078 280.904 389.812 284.638 394.419 284.638Z" fill="#DDA79C"/>
<path id="Vector_8" d="M220.562 289.872C229.053 289.872 235.936 282.989 235.936 274.498C235.936 266.007 229.053 259.124 220.562 259.124C212.071 259.124 205.188 266.007 205.188 274.498C205.188 282.989 212.071 289.872 220.562 289.872Z" fill="#EFBDB4"/>
<path id="Vector_9" d="M220.235 282.839C224.842 282.839 228.576 279.105 228.576 274.498C228.576 269.891 224.842 266.157 220.235 266.157C215.628 266.157 211.894 269.891 211.894 274.498C211.894 279.105 215.628 282.839 220.235 282.839Z" fill="#DDA79C"/>
</g>
<path id="Vector_10" d="M231.52 355.293L257.852 384.242C264.885 391.929 274.535 396.345 284.348 396.345H328.998C338.974 396.345 348.46 391.929 355.493 384.242L381.825 355.293C388.858 347.606 392.783 337.139 392.783 326.18V241.787C392.783 230.829 388.858 220.362 381.825 212.675L368.905 198.609C334.395 160.829 278.623 160.829 244.114 198.609L231.193 212.675C224.16 220.362 220.235 230.829 220.235 241.787V326.18C220.562 336.975 224.487 347.606 231.52 355.293Z" fill="#EFBDB4"/>
<path id="Vector_11" d="M348.297 233.61H323.11C296.451 233.61 274.862 212.021 274.862 185.362C274.862 158.702 296.451 137.114 323.11 137.114H384.769C391.311 137.114 396.545 142.347 396.545 148.889V185.362C396.545 212.021 374.956 233.61 348.297 233.61Z" fill="#DDA79C"/>
<g id="nose">
<path id="Vector 30" d="M309.044 289.218C306.755 289.218 304.465 290.035 302.829 291.507C301.194 293.143 300.049 295.106 299.722 297.395C299.722 297.559 299.722 297.722 299.722 297.722C299.722 297.886 299.885 298.049 299.885 298.049C300.049 298.213 300.049 298.213 300.212 298.377C300.376 298.377 300.54 298.54 300.54 298.54H317.222C317.385 298.54 317.549 298.54 317.549 298.377C317.713 298.377 317.876 298.213 317.876 298.049C318.04 297.886 318.04 297.886 318.04 297.722C318.04 297.559 318.04 297.395 318.04 297.395C317.713 295.106 316.731 292.979 314.932 291.507C313.624 290.035 311.334 289.218 309.044 289.218Z" fill="#EBB8B0"/>
<path id="Vector 31" d="M299.722 297.722C299.722 297.886 299.722 298.049 299.722 298.049C299.722 298.213 299.885 298.377 299.885 298.377C300.049 298.54 300.049 298.54 300.212 298.54C300.376 298.54 300.54 298.704 300.54 298.704H317.385C317.549 298.704 317.713 298.704 317.713 298.54C317.876 298.54 317.876 298.377 318.04 298.377C318.203 298.377 318.203 298.213 318.203 298.049C318.203 297.886 318.203 297.722 318.203 297.722H299.722Z" fill="#DDA79C"/>
<path id="Vector 32" d="M314.442 294.615H303.811C303.32 294.615 302.829 295.105 302.829 295.596C302.829 296.087 303.32 296.577 303.811 296.577H314.442C314.932 296.577 315.423 296.087 315.423 295.596C315.423 295.105 314.932 294.615 314.442 294.615Z" fill="#F0C6BE"/>
</g>
<path id="Vector_12" d="M268.156 232.301H258.67C235.773 232.301 217.128 213.656 217.128 190.759C217.128 167.861 235.773 149.216 258.67 149.216H258.834C273.88 149.216 285.983 161.319 285.983 176.366V214.474C286.147 224.287 277.969 232.301 268.156 232.301Z" fill="#DDA79C"/>
<path id="Vector_13" d="M266.521 228.376H249.511C227.595 228.376 209.931 210.712 209.931 188.796C209.931 166.88 227.595 149.216 249.511 149.216H257.689C272.081 149.216 283.53 160.829 283.53 175.058V211.203C283.694 220.689 276.007 228.376 266.521 228.376Z" fill="#5F2411"/>
<path id="Vector_14" d="M266.193 224.287H250.492C228.249 224.287 210.095 206.133 210.095 183.89C210.095 161.646 228.249 143.492 250.492 143.492H257.198C271.754 143.492 283.694 155.268 283.694 169.988V206.787C283.694 216.437 275.843 224.287 266.193 224.287Z" fill="#73381B"/>
<path id="Vector 69" d="M225.305 183.072C223.997 183.072 222.852 182.745 221.871 181.927C221.053 181.109 220.399 180.128 220.399 179.147C220.399 173.259 223.179 167.534 228.086 163.282C232.992 159.03 239.698 156.74 246.731 156.74C248.039 156.74 249.184 157.067 250.165 157.885C250.983 158.702 251.637 159.684 251.637 160.665C251.637 161.81 251.147 162.791 250.165 163.446C249.348 164.263 248.039 164.59 246.731 164.59C242.315 164.59 238.062 166.062 234.791 168.843C231.52 171.623 229.885 175.058 229.885 178.819C229.885 179.964 229.394 180.946 228.413 181.6C227.922 182.581 226.614 183.072 225.305 183.072Z" fill="#895339"/>
<g id="left glass shade" opacity="0.6">
<path id="Vector 48" opacity="0.3" d="M263.413 260.269L243.296 279.568V280.386C243.46 283.003 243.95 285.456 245.095 287.909C246.24 290.199 248.039 292.325 250.002 294.124L285.166 260.432L263.413 260.269Z" fill="white"/>
</g>
<g id="left glass shade 1" opacity="0.6">
<path id="Vector 48 1" opacity="0.3" d="M343.227 260.105L322.128 277.769V278.423C322.292 280.713 322.783 283.166 324.091 285.292C325.236 287.418 327.035 289.381 329.161 290.853L366.124 260.105H343.227Z" fill="white"/>
</g>
<path id="Vector_15" d="M316.731 263.213H300.212V269.264H316.731V263.213Z" fill="#DDA79C"/>
<path id="Vector_16" d="M316.077 262.231H299.558V268.283H316.077V262.231Z" fill="black"/>
<path id="Vector_17" d="M316.077 261.25H299.558V267.301H316.077V261.25Z" fill="#0F1D2C"/>
<path id="Vector_18" d="M267.993 304.101C250.492 304.101 236.427 289.381 236.427 271.39V254.708H299.558V271.39C299.558 289.381 285.329 304.101 267.993 304.101ZM241.824 260.269V271.39C241.824 286.274 253.6 298.54 267.993 298.54C282.385 298.54 294.161 286.437 294.161 271.39V260.269H241.824Z" fill="black"/>
<path id="Vector_19" d="M238.717 262.886H224.16C222.198 262.886 220.562 261.25 220.562 259.287C220.562 257.325 222.198 255.689 224.16 255.689H238.717C240.679 255.689 242.315 257.325 242.315 259.287C242.315 261.25 240.679 262.886 238.717 262.886Z" fill="#DDA79C"/>
<path id="Vector_20" d="M237.572 260.269H219.254C217.291 260.269 215.656 258.633 215.656 256.671C215.656 254.708 217.291 253.072 219.254 253.072H237.735C239.698 253.072 241.333 254.708 241.333 256.671C241.333 258.633 239.698 260.269 237.572 260.269Z" fill="#0A1523"/>
<path id="Vector_21" d="M391.148 263.213H380.844C378.554 263.213 376.592 261.25 376.592 258.96C376.592 256.671 378.554 254.708 380.844 254.708H391.148C393.437 254.708 395.4 256.671 395.4 258.96C395.4 261.25 393.437 263.213 391.148 263.213Z" fill="#DDA79C"/>
<path id="Vector_22" d="M395.4 260.759H380.353C378.227 260.759 376.428 258.96 376.428 256.834C376.428 254.708 378.227 252.909 380.353 252.909H395.4C397.526 252.909 399.325 254.708 399.325 256.834C399.325 259.124 397.526 260.759 395.4 260.759Z" fill="black"/>
<path id="Vector_23" d="M395.4 259.778H379.372C377.246 259.778 375.447 257.979 375.447 255.853C375.447 253.727 377.246 251.928 379.372 251.928H395.4C397.526 251.928 399.325 253.727 399.325 255.853C399.325 257.979 397.526 259.778 395.4 259.778Z" fill="#0F1D2C"/>
<path id="Vector_24" d="M347.643 303.61C330.143 303.61 316.077 289.381 316.077 272.045V255.853H379.208V272.045C379.208 289.545 364.979 303.61 347.643 303.61ZM321.474 261.25V272.045C321.474 286.437 333.25 298.213 347.643 298.213C362.035 298.213 373.811 286.437 373.811 272.045V261.25H321.474Z" fill="black"/>
<path id="Vector_25" d="M349.605 301.975C331.124 303.12 316.077 288.236 316.077 269.755V254.381H379.208V270.573C379.208 287.255 366.124 300.993 349.605 301.975ZM321.474 259.778V269.918C321.474 284.147 332.596 296.25 346.825 296.741C361.545 297.232 373.811 285.292 373.811 270.573V259.942L321.474 259.778Z" fill="#0F1D2C"/>
<path id="Vector_26" d="M359.091 228.376H316.241C292.198 228.376 272.736 208.913 272.736 184.871C272.736 160.829 292.198 141.366 316.241 141.366H391.966C397.853 141.366 402.596 146.109 402.596 151.997V184.871C402.596 208.913 383.134 228.376 359.091 228.376Z" fill="#5F2411"/>
<path id="Vector_27" d="M269.955 302.465C251.474 303.61 236.427 288.727 236.427 270.245V254.872H299.558V271.063C299.558 287.582 286.474 301.32 269.955 302.465ZM241.824 260.105V270.245C241.824 284.475 252.946 296.577 267.175 297.068C281.894 297.559 294.161 285.619 294.161 270.9V260.269L241.824 260.105Z" fill="#0F1D2C"/>
<path id="Vector_28" d="M238.226 259.124H218.6C216.637 259.124 215.001 257.488 215.001 255.526C215.001 253.563 216.637 251.928 218.6 251.928H238.226C240.189 251.928 241.824 253.563 241.824 255.526C241.824 257.488 240.189 259.124 238.226 259.124Z" fill="#0F1D2C"/>
<path id="Vector_29" d="M359.582 223.306H311.825C288.11 223.306 268.81 204.007 268.81 180.291C268.81 156.576 288.11 137.277 311.825 137.277H392.129C397.853 137.277 402.596 142.02 402.596 147.744V180.291C402.596 204.007 383.461 223.306 359.582 223.306Z" fill="#73381B"/>
<path id="Vector_30" d="M381.498 156.74H309.208C306.755 156.74 304.628 154.614 304.628 152.16C304.628 149.707 306.755 147.581 309.208 147.581H381.498C383.951 147.581 386.078 149.707 386.078 152.16C386.078 154.614 383.951 156.74 381.498 156.74Z" fill="#895339"/>
</g>
</svg>
