<svg width="627" height="550" viewBox="0 0 627 550" fill="none" xmlns="http://www.w3.org/2000/svg">
<g id="Layer 3">
<path id="Vector" d="M627 0H0V550H627V0Z" fill="#7C51A1"/>
</g>
<g id="Layer 5">
<path id="Vector_2" d="M314.044 542C447.639 542 555.939 433.7 555.939 300.105C555.939 166.511 447.639 58.211 314.044 58.211C180.45 58.211 72.1498 166.511 72.1498 300.105C72.1498 433.7 180.45 542 314.044 542Z" fill="#E7E7E9"/>
</g>
<path id="backhair" d="M285.593 145.155H337.107C358.54 145.155 379.094 153.652 394.249 168.778C409.404 183.903 417.919 204.417 417.919 225.807V414.735C417.919 424.834 413.899 434.519 406.744 441.66C399.589 448.8 389.885 452.812 379.767 452.812H242.933C232.815 452.812 223.111 448.8 215.956 441.66C208.801 434.519 204.781 424.834 204.781 414.735V225.807C204.781 204.417 213.296 183.903 228.451 168.778C243.606 153.652 264.161 145.155 285.593 145.155V145.155Z" fill="#072132"/>
<path id="Vector_3" d="M206.349 370.216H417.879V533.073C417.879 536.418 415.668 539.625 411.733 541.99C407.797 544.354 402.459 545.683 396.894 545.683H227.335C221.769 545.683 216.431 544.354 212.496 541.99C208.56 539.625 206.349 536.418 206.349 533.073V370.216Z" fill="#7C51A1"/>
<g id="ears">
<g id="right-ear">
<path id="Vector_4" d="M394.937 293.968C405.294 293.968 413.689 285.589 413.689 275.253C413.689 264.917 405.294 256.538 394.937 256.538C384.581 256.538 376.185 264.917 376.185 275.253C376.185 285.589 384.581 293.968 394.937 293.968Z" fill="#EFBDB4"/>
<path id="Vector_5" d="M394.605 285.338C400.185 285.338 404.709 280.823 404.709 275.253C404.709 269.683 400.185 265.168 394.605 265.168C389.024 265.168 384.5 269.683 384.5 275.253C384.5 280.823 389.024 285.338 394.605 285.338Z" fill="#DDA79C"/>
</g>
<g id="left-ear">
<path id="Vector_6" d="M232.325 293.968C242.681 293.968 251.076 285.589 251.076 275.253C251.076 264.917 242.681 256.538 232.325 256.538C221.968 256.538 213.573 264.917 213.573 275.253C213.573 285.589 221.968 293.968 232.325 293.968Z" fill="#EFBDB4"/>
<path id="Vector_7" d="M231.992 285.338C237.572 285.338 242.096 280.823 242.096 275.253C242.096 269.683 237.572 265.168 231.992 265.168C226.411 265.168 221.887 269.683 221.887 275.253C221.887 280.823 226.411 285.338 231.992 285.338Z" fill="#DDA79C"/>
</g>
</g>
<g id="ear-rings">
<path id="Vector_8" d="M229.535 299.275C232.467 299.275 234.844 296.903 234.844 293.977C234.844 291.051 232.467 288.679 229.535 288.679C226.603 288.679 224.226 291.051 224.226 293.977C224.226 296.903 226.603 299.275 229.535 299.275Z" fill="#EAE4E4"/>
<path id="Vector_9" d="M397.457 298.386C400.389 298.386 402.766 296.014 402.766 293.088C402.766 290.162 400.389 287.79 397.457 287.79C394.525 287.79 392.148 290.162 392.148 293.088C392.148 296.014 394.525 298.386 397.457 298.386Z" fill="#EAE4E4"/>
</g>
<g id="collar">
<path id="Vector 20" d="M313.613 327.42C282.354 328.219 257.645 354.45 258.455 386.034C259.265 417.618 285.296 442.556 316.555 441.757C347.815 440.958 372.523 414.726 371.713 383.134C370.904 351.541 344.881 326.62 313.613 327.42Z" fill="#D3A09B"/>
</g>
<path id="face" d="M394.937 252.883C394.937 214.088 358.54 182.648 313.631 182.648C268.722 182.648 232.361 214.088 232.361 252.883V295.423C232.361 334.209 268.614 389.716 313.523 389.716C358.432 389.716 394.973 334.218 394.973 295.423L394.937 252.883Z" fill="#EFBDB4"/>
<g id="nose">
<path id="Vector 30" d="M313.47 302.104C311.298 302.102 309.201 302.894 307.576 304.331C305.962 305.785 304.929 307.772 304.67 309.926C304.661 310.057 304.679 310.188 304.724 310.312C304.755 310.438 304.821 310.553 304.913 310.644C304.994 310.735 305.088 310.814 305.192 310.878C305.312 310.937 305.444 310.971 305.578 310.977H321.442C321.576 310.965 321.706 310.932 321.829 310.878C321.941 310.826 322.037 310.745 322.108 310.644C322.2 310.553 322.265 310.438 322.297 310.312C322.342 310.179 322.357 310.038 322.342 309.899C322.106 307.738 321.069 305.742 319.435 304.304C317.782 302.871 315.66 302.088 313.47 302.104Z" fill="#EBB8B0"/>
<path id="Vector 31" d="M304.624 310.124C304.614 310.236 304.629 310.35 304.669 310.456C304.723 310.546 304.768 310.689 304.867 310.734C304.947 310.814 305.042 310.878 305.146 310.923C305.249 310.979 305.362 311.013 305.479 311.022H321.261C321.38 311.021 321.495 310.987 321.594 310.923C321.703 310.882 321.801 310.817 321.882 310.734C321.962 310.654 322.026 310.56 322.071 310.456C322.107 310.349 322.122 310.236 322.116 310.124H304.624Z" fill="#DDA79C"/>
<path id="Vector 32" d="M318.463 307.205H308.43C308.177 307.205 307.935 307.305 307.756 307.484C307.577 307.662 307.476 307.904 307.476 308.157C307.476 308.409 307.577 308.651 307.756 308.83C307.935 309.009 308.177 309.109 308.43 309.109H318.463C318.716 309.109 318.958 309.009 319.137 308.83C319.316 308.651 319.417 308.409 319.417 308.157C319.417 307.904 319.316 307.662 319.137 307.484C318.958 307.305 318.716 307.205 318.463 307.205Z" fill="#F0C6BE"/>
</g>
<g id="left arm">
<path id="Vector 56" d="M180.176 537.146L199.689 540.264C210.787 542.016 221.213 534.812 223.032 524.112L244.892 397.167C246.711 386.461 239.243 376.407 228.208 374.59L208.704 371.479C197.605 369.727 187.172 376.924 185.361 387.631L163.492 514.575C161.681 525.276 169.15 535.329 180.176 537.146Z" fill="#7C51A1"/>
</g>
<g id="left arm_2">
<path id="Vector 56_2" d="M396.068 373.597L415.874 370.479C427.139 368.727 437.721 375.93 439.568 386.63L461.757 513.575C463.603 524.282 456.022 534.335 444.822 536.152L425.025 539.264C413.759 541.015 403.169 533.819 401.331 523.112L379.134 396.167C377.296 385.467 384.876 375.414 396.068 373.597Z" fill="#7C51A1"/>
</g>
<g id="front-hair">
<path id="Vector_10" d="M308.7 246.839H252.768C246.611 246.832 240.709 244.386 236.357 240.038C232.006 235.691 229.562 229.797 229.562 223.652V199.495C229.562 180.884 236.97 163.036 250.156 149.876C263.342 136.716 281.225 129.323 299.873 129.323H343.1C344.532 129.323 345.905 129.89 346.917 130.901C347.93 131.911 348.499 133.282 348.499 134.711V207.182C348.499 217.707 344.309 227.801 336.852 235.243C329.396 242.685 319.282 246.866 308.736 246.866L308.7 246.839Z" fill="#DDA79C"/>
<path id="Vector_11" d="M308.7 240.472L229.382 240.472C223.231 240.465 217.334 238.024 212.984 233.684C208.634 229.344 206.186 223.46 206.176 217.321V196.208C206.176 177.597 213.584 159.749 226.77 146.589C239.956 133.429 257.839 126.036 276.487 126.036L343.1 126.036C344.532 126.036 345.905 126.604 346.917 127.614C347.93 128.625 348.499 129.995 348.499 131.424V200.779C348.5 205.994 347.471 211.159 345.471 215.977C343.471 220.795 340.539 225.172 336.843 228.859C333.147 232.545 328.759 235.468 323.93 237.461C319.101 239.454 313.926 240.477 308.7 240.472V240.472Z" fill="#072132"/>
<path id="Vector_12" d="M303.913 207.667H239.847C237.084 207.667 234.844 209.903 234.844 212.66V213.774C234.844 216.531 237.084 218.767 239.847 218.767H303.913C306.676 218.767 308.916 216.531 308.916 213.774V212.66C308.916 209.903 306.676 207.667 303.913 207.667Z" fill="#143748"/>
<path id="Vector_13" d="M271.556 158.626H240.045C237.173 158.626 234.844 160.949 234.844 163.816V164.975C234.844 167.841 237.173 170.165 240.045 170.165H271.556C274.428 170.165 276.757 167.841 276.757 164.975V163.816C276.757 160.949 274.428 158.626 271.556 158.626Z" fill="#143748"/>
</g>
<g id="collar_2">
<path id="Vector_14" d="M257.177 445.475L239.253 366.242L259.67 362.245L277.594 441.479L257.177 445.475Z" fill="#72439A"/>
<path id="Vector_15" d="M330.133 474.634L257.87 444.784L266.373 425.826L338.637 455.677L330.133 474.634Z" fill="#72439A"/>
<path id="Vector_16" d="M308.349 422.297L270.377 414.691L264.673 443.032L337.422 457.607L308.349 422.297Z" fill="#72439A"/>
<path id="Vector_17" d="M372.784 445.475L390.78 365.891L370.364 361.895L352.368 441.479L372.784 445.475Z" fill="#72439A"/>
<path id="Vector_18" d="M299.828 474.634L372.091 444.784L363.588 425.826L291.325 455.677L299.828 474.634Z" fill="#72439A"/>
<path id="Vector_19" d="M321.612 422.297L359.584 414.691L365.28 443.032L292.54 457.607L321.612 422.297Z" fill="#72439A"/>
</g>
</svg>
